ISO-10303-21;
HEADER;
/* Generated by software containing ST-Developer
 * from STEP Tools, Inc. (www.steptools.com) 
 */
/* OPTION: using custom renumber hook */

FILE_DESCRIPTION(
/* description */ ('STEP AP242 Edition 2',
'CAx-IF Rec.Pracs.---Representation and Presentation of Product Manufa
cturing Information (PMI)---4.0---2014-10-13',
'CAx-IF Rec.Pracs.---3D Tessellated Geometry---0.4---2014-09-14','2;1',
'CAx-IF Rec.Pracs.---User Defined Attributes---1.5---2016-08-15'),
/* implementation_level */ '2;1');

FILE_NAME(
/* name */ 'Part Studio 1 - holder',
/* time_stamp */ '2026-10-03T21:29:08Z',
/* author */ (''),
/* organization */ (''),
/* preprocessor_version */ 'ST-DEVELOPER v20',
/* originating_system */ 'ONSHAPE BY PTC INC, 1.221',
/* authorisation */ '  ');

FILE_SCHEMA (('AP242_MANAGED_MODEL_BASED_3D_ENGINEERING_MIM_LF { 1 0 10303 442 3 1 4 }'));
ENDSEC;

DATA;
#10=SHAPE_REPRESENTATION_RELATIONSHIP('','',#402,#11);
#11=ADVANCED_BREP_SHAPE_REPRESENTATION('',(#400),#662);
#12=CYLINDRICAL_SURFACE('',#424,0.018);
#13=CYLINDRICAL_SURFACE('',#425,0.0159);
#14=CYLINDRICAL_SURFACE('',#428,0.0159000000000012);
#15=CYLINDRICAL_SURFACE('',#429,0.018);
#16=CYLINDRICAL_SURFACE('',#433,0.0015);
#17=CYLINDRICAL_SURFACE('',#434,0.001);
#18=CYLINDRICAL_SURFACE('',#437,0.001);
#19=CIRCLE('',#406,0.018);
#20=CIRCLE('',#407,0.0159);
#21=CIRCLE('',#408,0.0159000000000012);
#22=CIRCLE('',#409,0.018);
#23=CIRCLE('',#412,0.018);
#24=CIRCLE('',#413,0.0159000000000012);
#25=CIRCLE('',#414,0.0159);
#26=CIRCLE('',#415,0.018);
#27=CIRCLE('',#418,0.0015);
#28=CIRCLE('',#420,0.001);
#29=CIRCLE('',#421,0.001);
#30=CIRCLE('',#422,0.0015);
#31=CIRCLE('',#435,0.001);
#32=CIRCLE('',#438,0.001);
#33=ORIENTED_EDGE('',*,*,#135,.F.);
#34=ORIENTED_EDGE('',*,*,#136,.T.);
#35=ORIENTED_EDGE('',*,*,#137,.F.);
#36=ORIENTED_EDGE('',*,*,#138,.F.);
#37=ORIENTED_EDGE('',*,*,#139,.F.);
#38=ORIENTED_EDGE('',*,*,#140,.F.);
#39=ORIENTED_EDGE('',*,*,#141,.T.);
#40=ORIENTED_EDGE('',*,*,#142,.T.);
#41=ORIENTED_EDGE('',*,*,#143,.F.);
#42=ORIENTED_EDGE('',*,*,#144,.T.);
#43=ORIENTED_EDGE('',*,*,#137,.T.);
#44=ORIENTED_EDGE('',*,*,#145,.T.);
#45=ORIENTED_EDGE('',*,*,#146,.T.);
#46=ORIENTED_EDGE('',*,*,#147,.F.);
#47=ORIENTED_EDGE('',*,*,#148,.F.);
#48=ORIENTED_EDGE('',*,*,#149,.F.);
#49=ORIENTED_EDGE('',*,*,#150,.T.);
#50=ORIENTED_EDGE('',*,*,#151,.T.);
#51=ORIENTED_EDGE('',*,*,#152,.F.);
#52=ORIENTED_EDGE('',*,*,#153,.F.);
#53=ORIENTED_EDGE('',*,*,#154,.T.);
#54=ORIENTED_EDGE('',*,*,#139,.T.);
#55=ORIENTED_EDGE('',*,*,#155,.T.);
#56=ORIENTED_EDGE('',*,*,#156,.F.);
#57=ORIENTED_EDGE('',*,*,#157,.T.);
#58=ORIENTED_EDGE('',*,*,#158,.T.);
#59=ORIENTED_EDGE('',*,*,#159,.T.);
#60=ORIENTED_EDGE('',*,*,#160,.F.);
#61=ORIENTED_EDGE('',*,*,#161,.F.);
#62=ORIENTED_EDGE('',*,*,#135,.T.);
#63=ORIENTED_EDGE('',*,*,#162,.F.);
#64=ORIENTED_EDGE('',*,*,#163,.T.);
#65=ORIENTED_EDGE('',*,*,#164,.F.);
#66=ORIENTED_EDGE('',*,*,#165,.F.);
#67=ORIENTED_EDGE('',*,*,#166,.T.);
#68=ORIENTED_EDGE('',*,*,#153,.T.);
#69=ORIENTED_EDGE('',*,*,#167,.T.);
#70=ORIENTED_EDGE('',*,*,#168,.F.);
#71=ORIENTED_EDGE('',*,*,#169,.F.);
#72=ORIENTED_EDGE('',*,*,#151,.F.);
#73=ORIENTED_EDGE('',*,*,#170,.T.);
#74=ORIENTED_EDGE('',*,*,#168,.T.);
#75=ORIENTED_EDGE('',*,*,#171,.F.);
#76=ORIENTED_EDGE('',*,*,#150,.F.);
#77=ORIENTED_EDGE('',*,*,#172,.T.);
#78=ORIENTED_EDGE('',*,*,#156,.T.);
#79=ORIENTED_EDGE('',*,*,#170,.F.);
#80=ORIENTED_EDGE('',*,*,#173,.T.);
#81=ORIENTED_EDGE('',*,*,#174,.T.);
#82=ORIENTED_EDGE('',*,*,#175,.T.);
#83=ORIENTED_EDGE('',*,*,#152,.T.);
#84=ORIENTED_EDGE('',*,*,#169,.T.);
#85=ORIENTED_EDGE('',*,*,#167,.F.);
#86=ORIENTED_EDGE('',*,*,#155,.F.);
#87=ORIENTED_EDGE('',*,*,#141,.F.);
#88=ORIENTED_EDGE('',*,*,#176,.F.);
#89=ORIENTED_EDGE('',*,*,#165,.T.);
#90=ORIENTED_EDGE('',*,*,#177,.T.);
#91=ORIENTED_EDGE('',*,*,#140,.T.);
#92=ORIENTED_EDGE('',*,*,#154,.F.);
#93=ORIENTED_EDGE('',*,*,#166,.F.);
#94=ORIENTED_EDGE('',*,*,#176,.T.);
#95=ORIENTED_EDGE('',*,*,#144,.F.);
#96=ORIENTED_EDGE('',*,*,#178,.F.);
#97=ORIENTED_EDGE('',*,*,#162,.T.);
#98=ORIENTED_EDGE('',*,*,#138,.T.);
#99=ORIENTED_EDGE('',*,*,#143,.T.);
#100=ORIENTED_EDGE('',*,*,#179,.F.);
#101=ORIENTED_EDGE('',*,*,#163,.F.);
#102=ORIENTED_EDGE('',*,*,#178,.T.);
#103=ORIENTED_EDGE('',*,*,#142,.F.);
#104=ORIENTED_EDGE('',*,*,#177,.F.);
#105=ORIENTED_EDGE('',*,*,#164,.T.);
#106=ORIENTED_EDGE('',*,*,#179,.T.);
#107=ORIENTED_EDGE('',*,*,#145,.F.);
#108=ORIENTED_EDGE('',*,*,#136,.F.);
#109=ORIENTED_EDGE('',*,*,#161,.T.);
#110=ORIENTED_EDGE('',*,*,#180,.T.);
#111=ORIENTED_EDGE('',*,*,#149,.T.);
#112=ORIENTED_EDGE('',*,*,#181,.F.);
#113=ORIENTED_EDGE('',*,*,#157,.F.);
#114=ORIENTED_EDGE('',*,*,#172,.F.);
#115=ORIENTED_EDGE('',*,*,#148,.T.);
#116=ORIENTED_EDGE('',*,*,#182,.F.);
#117=ORIENTED_EDGE('',*,*,#158,.F.);
#118=ORIENTED_EDGE('',*,*,#181,.T.);
#119=ORIENTED_EDGE('',*,*,#147,.T.);
#120=ORIENTED_EDGE('',*,*,#183,.F.);
#121=ORIENTED_EDGE('',*,*,#159,.F.);
#122=ORIENTED_EDGE('',*,*,#182,.T.);
#123=ORIENTED_EDGE('',*,*,#146,.F.);
#124=ORIENTED_EDGE('',*,*,#180,.F.);
#125=ORIENTED_EDGE('',*,*,#160,.T.);
#126=ORIENTED_EDGE('',*,*,#183,.T.);
#127=ORIENTED_EDGE('',*,*,#171,.T.);
#128=ORIENTED_EDGE('',*,*,#175,.F.);
#129=ORIENTED_EDGE('',*,*,#184,.T.);
#130=ORIENTED_EDGE('',*,*,#174,.F.);
#131=ORIENTED_EDGE('',*,*,#184,.F.);
#132=ORIENTED_EDGE('',*,*,#185,.T.);
#133=ORIENTED_EDGE('',*,*,#173,.F.);
#134=ORIENTED_EDGE('',*,*,#185,.F.);
#135=EDGE_CURVE('',#186,#187,#222,.T.);
#136=EDGE_CURVE('',#186,#188,#223,.T.);
#137=EDGE_CURVE('',#189,#188,#224,.T.);
#138=EDGE_CURVE('',#187,#189,#225,.T.);
#139=EDGE_CURVE('',#190,#191,#226,.T.);
#140=EDGE_CURVE('',#192,#190,#19,.T.);
#141=EDGE_CURVE('',#192,#193,#227,.T.);
#142=EDGE_CURVE('',#193,#194,#228,.T.);
#143=EDGE_CURVE('',#195,#194,#229,.T.);
#144=EDGE_CURVE('',#195,#189,#20,.T.);
#145=EDGE_CURVE('',#188,#196,#21,.T.);
#146=EDGE_CURVE('',#196,#197,#230,.T.);
#147=EDGE_CURVE('',#198,#197,#231,.T.);
#148=EDGE_CURVE('',#199,#198,#232,.T.);
#149=EDGE_CURVE('',#200,#199,#22,.T.);
#150=EDGE_CURVE('',#200,#201,#233,.T.);
#151=EDGE_CURVE('',#201,#202,#234,.T.);
#152=EDGE_CURVE('',#191,#202,#235,.T.);
#153=EDGE_CURVE('',#203,#204,#236,.T.);
#154=EDGE_CURVE('',#203,#190,#237,.T.);
#155=EDGE_CURVE('',#191,#204,#238,.T.);
#156=EDGE_CURVE('',#205,#206,#239,.T.);
#157=EDGE_CURVE('',#205,#207,#23,.T.);
#158=EDGE_CURVE('',#207,#208,#240,.T.);
#159=EDGE_CURVE('',#208,#209,#241,.T.);
#160=EDGE_CURVE('',#210,#209,#242,.T.);
#161=EDGE_CURVE('',#186,#210,#24,.T.);
#162=EDGE_CURVE('',#211,#187,#25,.T.);
#163=EDGE_CURVE('',#211,#212,#243,.T.);
#164=EDGE_CURVE('',#213,#212,#244,.T.);
#165=EDGE_CURVE('',#214,#213,#245,.T.);
#166=EDGE_CURVE('',#214,#203,#26,.T.);
#167=EDGE_CURVE('',#204,#215,#246,.T.);
#168=EDGE_CURVE('',#206,#215,#247,.T.);
#169=EDGE_CURVE('',#202,#215,#248,.T.);
#170=EDGE_CURVE('',#201,#206,#249,.T.);
#171=EDGE_CURVE('',#216,#216,#27,.T.);
#172=EDGE_CURVE('',#200,#205,#250,.T.);
#173=EDGE_CURVE('',#217,#217,#28,.T.);
#174=EDGE_CURVE('',#218,#218,#29,.T.);
#175=EDGE_CURVE('',#219,#219,#30,.T.);
#176=EDGE_CURVE('',#214,#192,#251,.T.);
#177=EDGE_CURVE('',#213,#193,#252,.T.);
#178=EDGE_CURVE('',#211,#195,#253,.T.);
#179=EDGE_CURVE('',#212,#194,#254,.T.);
#180=EDGE_CURVE('',#210,#196,#255,.T.);
#181=EDGE_CURVE('',#207,#199,#256,.T.);
#182=EDGE_CURVE('',#208,#198,#257,.T.);
#183=EDGE_CURVE('',#209,#197,#258,.T.);
#184=EDGE_CURVE('',#220,#220,#31,.T.);
#185=EDGE_CURVE('',#221,#221,#32,.T.);
#186=VERTEX_POINT('',#554);
#187=VERTEX_POINT('',#555);
#188=VERTEX_POINT('',#557);
#189=VERTEX_POINT('',#559);
#190=VERTEX_POINT('',#563);
#191=VERTEX_POINT('',#564);
#192=VERTEX_POINT('',#566);
#193=VERTEX_POINT('',#568);
#194=VERTEX_POINT('',#570);
#195=VERTEX_POINT('',#572);
#196=VERTEX_POINT('',#575);
#197=VERTEX_POINT('',#577);
#198=VERTEX_POINT('',#579);
#199=VERTEX_POINT('',#581);
#200=VERTEX_POINT('',#583);
#201=VERTEX_POINT('',#585);
#202=VERTEX_POINT('',#587);
#203=VERTEX_POINT('',#591);
#204=VERTEX_POINT('',#592);
#205=VERTEX_POINT('',#597);
#206=VERTEX_POINT('',#598);
#207=VERTEX_POINT('',#600);
#208=VERTEX_POINT('',#602);
#209=VERTEX_POINT('',#604);
#210=VERTEX_POINT('',#606);
#211=VERTEX_POINT('',#609);
#212=VERTEX_POINT('',#611);
#213=VERTEX_POINT('',#613);
#214=VERTEX_POINT('',#615);
#215=VERTEX_POINT('',#618);
#216=VERTEX_POINT('',#625);
#217=VERTEX_POINT('',#629);
#218=VERTEX_POINT('',#631);
#219=VERTEX_POINT('',#633);
#220=VERTEX_POINT('',#655);
#221=VERTEX_POINT('',#659);
#222=LINE('',#553,#259);
#223=LINE('',#556,#260);
#224=LINE('',#558,#261);
#225=LINE('',#560,#262);
#226=LINE('',#562,#263);
#227=LINE('',#567,#264);
#228=LINE('',#569,#265);
#229=LINE('',#571,#266);
#230=LINE('',#576,#267);
#231=LINE('',#578,#268);
#232=LINE('',#580,#269);
#233=LINE('',#584,#270);
#234=LINE('',#586,#271);
#235=LINE('',#588,#272);
#236=LINE('',#590,#273);
#237=LINE('',#593,#274);
#238=LINE('',#594,#275);
#239=LINE('',#596,#276);
#240=LINE('',#601,#277);
#241=LINE('',#603,#278);
#242=LINE('',#605,#279);
#243=LINE('',#610,#280);
#244=LINE('',#612,#281);
#245=LINE('',#614,#282);
#246=LINE('',#617,#283);
#247=LINE('',#619,#284);
#248=LINE('',#621,#285);
#249=LINE('',#622,#286);
#250=LINE('',#626,#287);
#251=LINE('',#635,#288);
#252=LINE('',#636,#289);
#253=LINE('',#639,#290);
#254=LINE('',#641,#291);
#255=LINE('',#644,#292);
#256=LINE('',#646,#293);
#257=LINE('',#648,#294);
#258=LINE('',#650,#295);
#259=VECTOR('',#444,1.);
#260=VECTOR('',#445,1.);
#261=VECTOR('',#446,1.);
#262=VECTOR('',#447,1.);
#263=VECTOR('',#450,1.);
#264=VECTOR('',#453,1.);
#265=VECTOR('',#454,1.);
#266=VECTOR('',#455,1.);
#267=VECTOR('',#460,1.);
#268=VECTOR('',#461,1.);
#269=VECTOR('',#462,1.);
#270=VECTOR('',#465,1.);
#271=VECTOR('',#466,1.);
#272=VECTOR('',#467,1.);
#273=VECTOR('',#470,1.);
#274=VECTOR('',#471,1.);
#275=VECTOR('',#472,1.);
#276=VECTOR('',#475,1.);
#277=VECTOR('',#478,1.);
#278=VECTOR('',#479,1.);
#279=VECTOR('',#480,1.);
#280=VECTOR('',#485,1.);
#281=VECTOR('',#486,1.);
#282=VECTOR('',#487,1.);
#283=VECTOR('',#490,1.);
#284=VECTOR('',#491,1.);
#285=VECTOR('',#494,1.);
#286=VECTOR('',#495,1.);
#287=VECTOR('',#500,1.);
#288=VECTOR('',#511,1.);
#289=VECTOR('',#512,1.);
#290=VECTOR('',#517,1.);
#291=VECTOR('',#520,1.);
#292=VECTOR('',#525,1.);
#293=VECTOR('',#528,1.);
#294=VECTOR('',#531,1.);
#295=VECTOR('',#534,1.);
#296=EDGE_LOOP('',(#33,#34,#35,#36));
#297=EDGE_LOOP('',(#37,#38,#39,#40,#41,#42,#43,#44,#45,#46,#47,#48,#49,
#50,#51));
#298=EDGE_LOOP('',(#52,#53,#54,#55));
#299=EDGE_LOOP('',(#56,#57,#58,#59,#60,#61,#62,#63,#64,#65,#66,#67,#68,
#69,#70));
#300=EDGE_LOOP('',(#71,#72,#73,#74));
#301=EDGE_LOOP('',(#75));
#302=EDGE_LOOP('',(#76,#77,#78,#79));
#303=EDGE_LOOP('',(#80));
#304=EDGE_LOOP('',(#81));
#305=EDGE_LOOP('',(#82));
#306=EDGE_LOOP('',(#83,#84,#85,#86));
#307=EDGE_LOOP('',(#87,#88,#89,#90));
#308=EDGE_LOOP('',(#91,#92,#93,#94));
#309=EDGE_LOOP('',(#95,#96,#97,#98));
#310=EDGE_LOOP('',(#99,#100,#101,#102));
#311=EDGE_LOOP('',(#103,#104,#105,#106));
#312=EDGE_LOOP('',(#107,#108,#109,#110));
#313=EDGE_LOOP('',(#111,#112,#113,#114));
#314=EDGE_LOOP('',(#115,#116,#117,#118));
#315=EDGE_LOOP('',(#119,#120,#121,#122));
#316=EDGE_LOOP('',(#123,#124,#125,#126));
#317=EDGE_LOOP('',(#127));
#318=EDGE_LOOP('',(#128));
#319=EDGE_LOOP('',(#129));
#320=EDGE_LOOP('',(#130));
#321=EDGE_LOOP('',(#131));
#322=EDGE_LOOP('',(#132));
#323=EDGE_LOOP('',(#133));
#324=EDGE_LOOP('',(#134));
#325=FACE_BOUND('',#296,.T.);
#326=FACE_BOUND('',#297,.T.);
#327=FACE_BOUND('',#298,.T.);
#328=FACE_BOUND('',#299,.T.);
#329=FACE_BOUND('',#300,.T.);
#330=FACE_BOUND('',#301,.T.);
#331=FACE_BOUND('',#302,.T.);
#332=FACE_BOUND('',#303,.T.);
#333=FACE_BOUND('',#304,.T.);
#334=FACE_BOUND('',#305,.T.);
#335=FACE_BOUND('',#306,.T.);
#336=FACE_BOUND('',#307,.T.);
#337=FACE_BOUND('',#308,.T.);
#338=FACE_BOUND('',#309,.T.);
#339=FACE_BOUND('',#310,.T.);
#340=FACE_BOUND('',#311,.T.);
#341=FACE_BOUND('',#312,.T.);
#342=FACE_BOUND('',#313,.T.);
#343=FACE_BOUND('',#314,.T.);
#344=FACE_BOUND('',#315,.T.);
#345=FACE_BOUND('',#316,.T.);
#346=FACE_BOUND('',#317,.T.);
#347=FACE_BOUND('',#318,.T.);
#348=FACE_BOUND('',#319,.T.);
#349=FACE_BOUND('',#320,.T.);
#350=FACE_BOUND('',#321,.T.);
#351=FACE_BOUND('',#322,.T.);
#352=FACE_BOUND('',#323,.T.);
#353=FACE_BOUND('',#324,.T.);
#354=PLANE('',#404);
#355=PLANE('',#405);
#356=PLANE('',#410);
#357=PLANE('',#411);
#358=PLANE('',#416);
#359=PLANE('',#417);
#360=PLANE('',#419);
#361=PLANE('',#423);
#362=PLANE('',#426);
#363=PLANE('',#427);
#364=PLANE('',#430);
#365=PLANE('',#431);
#366=PLANE('',#432);
#367=PLANE('',#436);
#368=PLANE('',#439);
#369=ADVANCED_FACE('',(#325),#354,.T.);
#370=ADVANCED_FACE('',(#326),#355,.T.);
#371=ADVANCED_FACE('',(#327),#356,.F.);
#372=ADVANCED_FACE('',(#328),#357,.F.);
#373=ADVANCED_FACE('',(#329),#358,.T.);
#374=ADVANCED_FACE('',(#330,#331),#359,.T.);
#375=ADVANCED_FACE('',(#332,#333,#334,#335),#360,.F.);
#376=ADVANCED_FACE('',(#336),#361,.T.);
#377=ADVANCED_FACE('',(#337),#12,.T.);
#378=ADVANCED_FACE('',(#338),#13,.F.);
#379=ADVANCED_FACE('',(#339),#362,.F.);
#380=ADVANCED_FACE('',(#340),#363,.T.);
#381=ADVANCED_FACE('',(#341),#14,.F.);
#382=ADVANCED_FACE('',(#342),#15,.T.);
#383=ADVANCED_FACE('',(#343),#364,.F.);
#384=ADVANCED_FACE('',(#344),#365,.F.);
#385=ADVANCED_FACE('',(#345),#366,.T.);
#386=ADVANCED_FACE('',(#346,#347),#16,.F.);
#387=ADVANCED_FACE('',(#348,#349),#17,.T.);
#388=ADVANCED_FACE('',(#350),#367,.F.);
#389=ADVANCED_FACE('',(#351,#352),#18,.T.);
#390=ADVANCED_FACE('',(#353),#368,.F.);
#391=CLOSED_SHELL('',(#369,#370,#371,#372,#373,#374,#375,#376,#377,#378,
#379,#380,#381,#382,#383,#384,#385,#386,#387,#388,#389,#390));
#392=STYLED_ITEM('',(#393),#400);
#393=PRESENTATION_STYLE_ASSIGNMENT((#394));
#394=SURFACE_STYLE_USAGE(.BOTH.,#395);
#395=SURFACE_SIDE_STYLE('',(#396));
#396=SURFACE_STYLE_FILL_AREA(#397);
#397=FILL_AREA_STYLE('',(#398));
#398=FILL_AREA_STYLE_COLOUR('',#399);
#399=COLOUR_RGB('',0.980392156862745,0.713725490196078,0.00392156862745098);
#400=MANIFOLD_SOLID_BREP('holder',#391);
#401=SHAPE_DEFINITION_REPRESENTATION(#667,#402);
#402=SHAPE_REPRESENTATION('holder',(#403),#662);
#403=AXIS2_PLACEMENT_3D('',#551,#440,#441);
#404=AXIS2_PLACEMENT_3D('',#552,#442,#443);
#405=AXIS2_PLACEMENT_3D('',#561,#448,#449);
#406=AXIS2_PLACEMENT_3D('',#565,#451,#452);
#407=AXIS2_PLACEMENT_3D('',#573,#456,#457);
#408=AXIS2_PLACEMENT_3D('',#574,#458,#459);
#409=AXIS2_PLACEMENT_3D('',#582,#463,#464);
#410=AXIS2_PLACEMENT_3D('',#589,#468,#469);
#411=AXIS2_PLACEMENT_3D('',#595,#473,#474);
#412=AXIS2_PLACEMENT_3D('',#599,#476,#477);
#413=AXIS2_PLACEMENT_3D('',#607,#481,#482);
#414=AXIS2_PLACEMENT_3D('',#608,#483,#484);
#415=AXIS2_PLACEMENT_3D('',#616,#488,#489);
#416=AXIS2_PLACEMENT_3D('',#620,#492,#493);
#417=AXIS2_PLACEMENT_3D('',#623,#496,#497);
#418=AXIS2_PLACEMENT_3D('',#624,#498,#499);
#419=AXIS2_PLACEMENT_3D('',#627,#501,#502);
#420=AXIS2_PLACEMENT_3D('',#628,#503,#504);
#421=AXIS2_PLACEMENT_3D('',#630,#505,#506);
#422=AXIS2_PLACEMENT_3D('',#632,#507,#508);
#423=AXIS2_PLACEMENT_3D('',#634,#509,#510);
#424=AXIS2_PLACEMENT_3D('',#637,#513,#514);
#425=AXIS2_PLACEMENT_3D('',#638,#515,#516);
#426=AXIS2_PLACEMENT_3D('',#640,#518,#519);
#427=AXIS2_PLACEMENT_3D('',#642,#521,#522);
#428=AXIS2_PLACEMENT_3D('',#643,#523,#524);
#429=AXIS2_PLACEMENT_3D('',#645,#526,#527);
#430=AXIS2_PLACEMENT_3D('',#647,#529,#530);
#431=AXIS2_PLACEMENT_3D('',#649,#532,#533);
#432=AXIS2_PLACEMENT_3D('',#651,#535,#536);
#433=AXIS2_PLACEMENT_3D('',#652,#537,#538);
#434=AXIS2_PLACEMENT_3D('',#653,#539,#540);
#435=AXIS2_PLACEMENT_3D('',#654,#541,#542);
#436=AXIS2_PLACEMENT_3D('',#656,#543,#544);
#437=AXIS2_PLACEMENT_3D('',#657,#545,#546);
#438=AXIS2_PLACEMENT_3D('',#658,#547,#548);
#439=AXIS2_PLACEMENT_3D('',#660,#549,#550);
#440=DIRECTION('',(0.,0.,1.));
#441=DIRECTION('',(1.,0.,0.));
#442=DIRECTION('',(0.707106781186548,0.,-0.707106781186548));
#443=DIRECTION('',(0.,1.,0.));
#444=DIRECTION('',(0.707106781186548,0.,0.707106781186548));
#445=DIRECTION('',(0.,1.,0.));
#446=DIRECTION('',(-0.707106781186548,0.,-0.707106781186548));
#447=DIRECTION('',(0.,1.,0.));
#448=DIRECTION('',(0.,1.,0.));
#449=DIRECTION('',(0.,0.,1.));
#450=DIRECTION('',(0.,0.,1.));
#451=DIRECTION('',(0.,-1.,0.));
#452=DIRECTION('',(0.,0.,-1.));
#453=DIRECTION('',(0.,0.,-1.));
#454=DIRECTION('',(-1.,0.,0.));
#455=DIRECTION('',(0.,0.,-1.));
#456=DIRECTION('',(0.,-1.,0.));
#457=DIRECTION('',(0.,0.,-1.));
#458=DIRECTION('',(0.,-1.,0.));
#459=DIRECTION('',(0.,0.,-1.));
#460=DIRECTION('',(0.,0.,-1.));
#461=DIRECTION('',(1.,0.,0.));
#462=DIRECTION('',(0.,0.,-1.));
#463=DIRECTION('',(0.,-1.,0.));
#464=DIRECTION('',(0.,0.,-1.));
#465=DIRECTION('',(-1.,0.,0.));
#466=DIRECTION('',(0.,0.,1.));
#467=DIRECTION('',(-1.,0.,0.));
#468=DIRECTION('',(-1.,0.,0.));
#469=DIRECTION('',(0.,0.,1.));
#470=DIRECTION('',(0.,0.,1.));
#471=DIRECTION('',(0.,1.,0.));
#472=DIRECTION('',(0.,-1.,0.));
#473=DIRECTION('',(0.,1.,0.));
#474=DIRECTION('',(0.,0.,1.));
#475=DIRECTION('',(-1.,0.,0.));
#476=DIRECTION('',(0.,-1.,0.));
#477=DIRECTION('',(0.,0.,-1.));
#478=DIRECTION('',(0.,0.,-1.));
#479=DIRECTION('',(1.,0.,0.));
#480=DIRECTION('',(0.,0.,-1.));
#481=DIRECTION('',(0.,-1.,0.));
#482=DIRECTION('',(0.,0.,-1.));
#483=DIRECTION('',(0.,-1.,0.));
#484=DIRECTION('',(0.,0.,-1.));
#485=DIRECTION('',(0.,0.,-1.));
#486=DIRECTION('',(-1.,0.,0.));
#487=DIRECTION('',(0.,0.,-1.));
#488=DIRECTION('',(0.,-1.,0.));
#489=DIRECTION('',(0.,0.,-1.));
#490=DIRECTION('',(-1.,0.,0.));
#491=DIRECTION('',(0.,0.,1.));
#492=DIRECTION('',(-1.,0.,0.));
#493=DIRECTION('',(0.,0.,1.));
#494=DIRECTION('',(0.,-1.,0.));
#495=DIRECTION('',(0.,-1.,0.));
#496=DIRECTION('',(0.,0.,-1.));
#497=DIRECTION('',(1.,0.,0.));
#498=DIRECTION('',(0.,0.,-1.));
#499=DIRECTION('',(-1.,0.,0.));
#500=DIRECTION('',(0.,-1.,0.));
#501=DIRECTION('',(0.,0.,-1.));
#502=DIRECTION('',(1.,0.,0.));
#503=DIRECTION('',(0.,0.,-1.));
#504=DIRECTION('',(-1.,0.,0.));
#505=DIRECTION('',(0.,0.,-1.));
#506=DIRECTION('',(-1.,0.,0.));
#507=DIRECTION('',(0.,0.,-1.));
#508=DIRECTION('',(-1.,0.,0.));
#509=DIRECTION('',(1.,0.,0.));
#510=DIRECTION('',(0.,0.,-1.));
#511=DIRECTION('',(0.,1.,0.));
#512=DIRECTION('',(0.,1.,0.));
#513=DIRECTION('',(0.,1.,0.));
#514=DIRECTION('',(0.,0.,1.));
#515=DIRECTION('',(0.,1.,0.));
#516=DIRECTION('',(0.,0.,1.));
#517=DIRECTION('',(0.,1.,0.));
#518=DIRECTION('',(1.,0.,0.));
#519=DIRECTION('',(0.,0.,-1.));
#520=DIRECTION('',(0.,1.,0.));
#521=DIRECTION('',(0.,0.,-1.));
#522=DIRECTION('',(-1.,0.,0.));
#523=DIRECTION('',(0.,1.,0.));
#524=DIRECTION('',(0.,0.,1.));
#525=DIRECTION('',(0.,1.,0.));
#526=DIRECTION('',(0.,1.,0.));
#527=DIRECTION('',(0.,0.,1.));
#528=DIRECTION('',(0.,1.,0.));
#529=DIRECTION('',(1.,0.,0.));
#530=DIRECTION('',(0.,0.,-1.));
#531=DIRECTION('',(0.,1.,0.));
#532=DIRECTION('',(0.,0.,1.));
#533=DIRECTION('',(1.,0.,0.));
#534=DIRECTION('',(0.,1.,0.));
#535=DIRECTION('',(1.,0.,0.));
#536=DIRECTION('',(0.,0.,-1.));
#537=DIRECTION('',(0.,0.,-1.));
#538=DIRECTION('',(-1.,0.,0.));
#539=DIRECTION('',(0.,0.,-1.));
#540=DIRECTION('',(-1.,0.,0.));
#541=DIRECTION('',(0.,0.,-1.));
#542=DIRECTION('',(-1.,0.,0.));
#543=DIRECTION('',(0.,0.,-1.));
#544=DIRECTION('',(1.,0.,0.));
#545=DIRECTION('',(0.,0.,-1.));
#546=DIRECTION('',(-1.,0.,0.));
#547=DIRECTION('',(0.,0.,-1.));
#548=DIRECTION('',(-1.,0.,0.));
#549=DIRECTION('',(0.,0.,-1.));
#550=DIRECTION('',(1.,0.,0.));
#551=CARTESIAN_POINT('',(0.,0.,0.));
#552=CARTESIAN_POINT('',(-0.000499999999999992,-0.00775,-0.02));
#553=CARTESIAN_POINT('',(-0.000499999999999992,0.02525,-0.02));
#554=CARTESIAN_POINT('',(0.00342027133209711,0.02525,-0.0160797286679029));
#555=CARTESIAN_POINT('',(0.00857972866790289,0.02525,-0.0109202713320971));
#556=CARTESIAN_POINT('',(0.00342027133209711,0.02525,-0.0160797286679029));
#557=CARTESIAN_POINT('',(0.00342027133209181,0.03325,-0.0160797286679082));
#558=CARTESIAN_POINT('',(-0.000249999999999991,0.03325,-0.01975));
#559=CARTESIAN_POINT('',(0.00857972866790287,0.03325,-0.0109202713320971));
#560=CARTESIAN_POINT('',(0.00857972866790287,0.02525,-0.0109202713320971));
#561=CARTESIAN_POINT('',(8.67361737988404E-18,0.03325,-0.02));
#562=CARTESIAN_POINT('',(0.0125,0.03325,-0.02));
#563=CARTESIAN_POINT('',(0.0125,0.03325,-0.007));
#564=CARTESIAN_POINT('',(0.0125,0.03325,0.));
#565=CARTESIAN_POINT('',(0.0169430343141194,0.03325,-0.0244430343141188));
#566=CARTESIAN_POINT('',(0.0231700230944486,0.03325,-0.041331628415751));
#567=CARTESIAN_POINT('',(0.0231700230944486,0.03325,-0.0453873313649353));
#568=CARTESIAN_POINT('',(0.0231700230944486,0.03325,-0.0494430343141197));
#569=CARTESIAN_POINT('',(0.0216700230944486,0.03325,-0.0494430343141197));
#570=CARTESIAN_POINT('',(0.0201700230944486,0.03325,-0.0494430343141197));
#571=CARTESIAN_POINT('',(0.0201700230944486,0.03325,-0.0410817664682968));
#572=CARTESIAN_POINT('',(0.0201700230944486,0.03325,-0.0400121236712924));
#573=CARTESIAN_POINT('',(0.0169430343141196,0.03325,-0.0244430343141196));
#574=CARTESIAN_POINT('',(0.0169430343141199,0.03325,-0.0244430343141184));
#575=CARTESIAN_POINT('',(0.0151700230944486,0.03325,-0.040243870722833));
#576=CARTESIAN_POINT('',(0.0151700230944486,0.03325,-0.0412996854209711));
#577=CARTESIAN_POINT('',(0.0151700230944486,0.03325,-0.0494430343141197));
#578=CARTESIAN_POINT('',(0.0136700230944486,0.03325,-0.0494430343141197));
#579=CARTESIAN_POINT('',(0.0121700230944486,0.03325,-0.0494430343141197));
#580=CARTESIAN_POINT('',(0.0121700230944486,0.03325,-0.0456208561015398));
#581=CARTESIAN_POINT('',(0.0121700230944486,0.03325,-0.04179867788896));
#582=CARTESIAN_POINT('',(0.0169430343141196,0.03325,-0.0244430343141196));
#583=CARTESIAN_POINT('',(-0.0005,0.03325,-0.02));
#584=CARTESIAN_POINT('',(8.67361737988404E-18,0.03325,-0.02));
#585=CARTESIAN_POINT('',(-0.0125,0.03325,-0.02));
#586=CARTESIAN_POINT('',(-0.0125,0.03325,-0.02));
#587=CARTESIAN_POINT('',(-0.0125,0.03325,0.));
#588=CARTESIAN_POINT('',(8.67361737988404E-18,0.03325,0.));
#589=CARTESIAN_POINT('',(0.0125,0.02925,-0.02));
#590=CARTESIAN_POINT('',(0.0125,0.02525,-0.02));
#591=CARTESIAN_POINT('',(0.0125,0.02525,-0.007));
#592=CARTESIAN_POINT('',(0.0125,0.02525,0.));
#593=CARTESIAN_POINT('',(0.0125,0.03325,-0.007));
#594=CARTESIAN_POINT('',(0.0125,0.02925,0.));
#595=CARTESIAN_POINT('',(8.67361737988404E-18,0.02525,-0.02));
#596=CARTESIAN_POINT('',(8.67361737988404E-18,0.02525,-0.02));
#597=CARTESIAN_POINT('',(-0.0005,0.02525,-0.02));
#598=CARTESIAN_POINT('',(-0.0125,0.02525,-0.02));
#599=CARTESIAN_POINT('',(0.0169430343141196,0.02525,-0.0244430343141196));
#600=CARTESIAN_POINT('',(0.0121700230944486,0.02525,-0.04179867788896));
#601=CARTESIAN_POINT('',(0.0121700230944486,0.02525,-0.0456208561015398));
#602=CARTESIAN_POINT('',(0.0121700230944486,0.02525,-0.0494430343141197));
#603=CARTESIAN_POINT('',(0.0136700230944486,0.02525,-0.0494430343141197));
#604=CARTESIAN_POINT('',(0.0151700230944486,0.02525,-0.0494430343141197));
#605=CARTESIAN_POINT('',(0.0151700230944486,0.02525,-0.0412996854209711));
#606=CARTESIAN_POINT('',(0.0151700230944486,0.02525,-0.040243870722833));
#607=CARTESIAN_POINT('',(0.0169430343141199,0.02525,-0.0244430343141184));
#608=CARTESIAN_POINT('',(0.0169430343141196,0.02525,-0.0244430343141196));
#609=CARTESIAN_POINT('',(0.0201700230944486,0.02525,-0.0400121236712924));
#610=CARTESIAN_POINT('',(0.0201700230944486,0.02525,-0.0410817664682968));
#611=CARTESIAN_POINT('',(0.0201700230944486,0.02525,-0.0494430343141197));
#612=CARTESIAN_POINT('',(0.0216700230944486,0.02525,-0.0494430343141197));
#613=CARTESIAN_POINT('',(0.0231700230944486,0.02525,-0.0494430343141197));
#614=CARTESIAN_POINT('',(0.0231700230944486,0.02525,-0.0453873313649353));
#615=CARTESIAN_POINT('',(0.0231700230944486,0.02525,-0.041331628415751));
#616=CARTESIAN_POINT('',(0.0169430343141194,0.02525,-0.0244430343141188));
#617=CARTESIAN_POINT('',(8.67361737988404E-18,0.02525,0.));
#618=CARTESIAN_POINT('',(-0.0125,0.02525,0.));
#619=CARTESIAN_POINT('',(-0.0125,0.02525,-0.02));
#620=CARTESIAN_POINT('',(-0.0125,0.02925,-0.02));
#621=CARTESIAN_POINT('',(-0.0125,0.02925,0.));
#622=CARTESIAN_POINT('',(-0.0125,0.02925,-0.02));
#623=CARTESIAN_POINT('',(-3.46944695195361E-18,-0.00775,-0.02));
#624=CARTESIAN_POINT('',(-0.004,0.02925,-0.02));
#625=CARTESIAN_POINT('',(-0.0055,0.02925,-0.02));
#626=CARTESIAN_POINT('',(-0.000499999999999992,0.02525,-0.02));
#627=CARTESIAN_POINT('',(-3.46944695195361E-18,-0.00775,0.));
#628=CARTESIAN_POINT('',(0.0085,0.03125,0.));
#629=CARTESIAN_POINT('',(0.0075,0.03125,0.));
#630=CARTESIAN_POINT('',(0.0085,0.02725,0.));
#631=CARTESIAN_POINT('',(0.0075,0.02725,0.));
#632=CARTESIAN_POINT('',(-0.004,0.02925,0.));
#633=CARTESIAN_POINT('',(-0.0055,0.02925,0.));
#634=CARTESIAN_POINT('',(0.0231700230944486,0.02525,-0.0453873313649353));
#635=CARTESIAN_POINT('',(0.0231700230944486,0.02525,-0.041331628415751));
#636=CARTESIAN_POINT('',(0.0231700230944486,0.02525,-0.0494430343141197));
#637=CARTESIAN_POINT('',(0.0169430343141194,0.02525,-0.0244430343141188));
#638=CARTESIAN_POINT('',(0.0169430343141196,0.02525,-0.0244430343141196));
#639=CARTESIAN_POINT('',(0.0201700230944486,0.02525,-0.0400121236712924));
#640=CARTESIAN_POINT('',(0.0201700230944486,0.02525,-0.0410817664682968));
#641=CARTESIAN_POINT('',(0.0201700230944486,0.02525,-0.0494430343141197));
#642=CARTESIAN_POINT('',(0.0216700230944486,0.02525,-0.0494430343141197));
#643=CARTESIAN_POINT('',(0.0169430343141199,0.02525,-0.0244430343141184));
#644=CARTESIAN_POINT('',(0.0151700230944486,0.02525,-0.040243870722833));
#645=CARTESIAN_POINT('',(0.0169430343141196,0.02525,-0.0244430343141196));
#646=CARTESIAN_POINT('',(0.0121700230944486,0.02525,-0.04179867788896));
#647=CARTESIAN_POINT('',(0.0121700230944486,0.02525,-0.0456208561015398));
#648=CARTESIAN_POINT('',(0.0121700230944486,0.02525,-0.0494430343141197));
#649=CARTESIAN_POINT('',(0.0136700230944486,0.02525,-0.0494430343141197));
#650=CARTESIAN_POINT('',(0.0151700230944486,0.02525,-0.0494430343141197));
#651=CARTESIAN_POINT('',(0.0151700230944486,0.02525,-0.0412996854209711));
#652=CARTESIAN_POINT('',(-0.004,0.02925,0.003));
#653=CARTESIAN_POINT('',(0.0085,0.02725,0.0025));
#654=CARTESIAN_POINT('',(0.0085,0.02725,0.0025));
#655=CARTESIAN_POINT('',(0.0075,0.02725,0.0025));
#656=CARTESIAN_POINT('',(-3.46944695195361E-18,-0.00775,0.0025));
#657=CARTESIAN_POINT('',(0.0085,0.03125,0.0025));
#658=CARTESIAN_POINT('',(0.0085,0.03125,0.0025));
#659=CARTESIAN_POINT('',(0.0075,0.03125,0.0025));
#660=CARTESIAN_POINT('',(-3.46944695195361E-18,-0.00775,0.0025));
#661=MECHANICAL_DESIGN_GEOMETRIC_PRESENTATION_REPRESENTATION('',(#392),
#662);
#662=(
GEOMETRIC_REPRESENTATION_CONTEXT(3)
GLOBAL_UNCERTAINTY_ASSIGNED_CONTEXT((#663))
GLOBAL_UNIT_ASSIGNED_CONTEXT((#666,#665,#664))
REPRESENTATION_CONTEXT('holder','TOP_LEVEL_ASSEMBLY_PART')
);
#663=UNCERTAINTY_MEASURE_WITH_UNIT(LENGTH_MEASURE(1.E-8),#666,
'DISTANCE_ACCURACY_VALUE','Maximum Tolerance applied to model');
#664=(
NAMED_UNIT(*)
SI_UNIT($,.STERADIAN.)
SOLID_ANGLE_UNIT()
);
#665=(
NAMED_UNIT(*)
PLANE_ANGLE_UNIT()
SI_UNIT($,.RADIAN.)
);
#666=(
LENGTH_UNIT()
NAMED_UNIT(*)
SI_UNIT($,.METRE.)
);
#667=PRODUCT_DEFINITION_SHAPE('','',#668);
#668=PRODUCT_DEFINITION('','',#670,#669);
#669=PRODUCT_DEFINITION_CONTEXT('',#676,'design');
#670=PRODUCT_DEFINITION_FORMATION_WITH_SPECIFIED_SOURCE('','',#672,
 .NOT_KNOWN.);
#671=PRODUCT_RELATED_PRODUCT_CATEGORY('','',(#672));
#672=PRODUCT('holder','holder','holder',(#674));
#673=PRODUCT_CATEGORY('','');
#674=PRODUCT_CONTEXT('',#676,'mechanical');
#675=APPLICATION_PROTOCOL_DEFINITION('international standard',
'ap242_managed_model_based_3d_engineering',2020,#676);
#676=APPLICATION_CONTEXT('managed model based 3d engineering');
ENDSEC;
END-ISO-10303-21;
