ISO-10303-21;
HEADER;
/* Generated by software containing ST-Developer
 * from STEP Tools, Inc. (www.steptools.com) 
 */
/* OPTION: using custom renumber hook */

FILE_DESCRIPTION(
/* description */ ('STEP AP242 Edition 2',
'CAx-IF Rec.Pracs.---Representation and Presentation of Product Manufa
cturing Information (PMI)---4.0---2014-10-13',
'CAx-IF Rec.Pracs.---3D Tessellated Geometry---0.4---2014-09-14','2;1',
'CAx-IF Rec.Pracs.---User Defined Attributes---1.5---2016-08-15'),
/* implementation_level */ '2;1');

FILE_NAME(
/* name */ 'Part Studio 1 - top frame',
/* time_stamp */ '2026-10-03T21:28:12Z',
/* author */ (''),
/* organization */ (''),
/* preprocessor_version */ 'ST-DEVELOPER v20',
/* originating_system */ 'ONSHAPE BY PTC INC, 1.221',
/* authorisation */ '  ');

FILE_SCHEMA (('AP242_MANAGED_MODEL_BASED_3D_ENGINEERING_MIM_LF { 1 0 10303 442 3 1 4 }'));
ENDSEC;

DATA;
#10=SHAPE_REPRESENTATION_RELATIONSHIP('','',#835,#11);
#11=ADVANCED_BREP_SHAPE_REPRESENTATION('',(#833),#1389);
#12=ELLIPSE('',#910,0.000848528137423857,0.0006);
#13=ELLIPSE('',#911,0.000848528137423857,0.0006);
#14=ELLIPSE('',#913,0.000848528137423857,0.0006);
#15=ELLIPSE('',#915,0.000848528137423857,0.0006);
#16=CIRCLE('',#846,0.00265);
#17=CIRCLE('',#847,0.00265);
#18=CIRCLE('',#850,0.00265);
#19=CIRCLE('',#851,0.00265);
#20=CIRCLE('',#854,0.00265);
#21=CIRCLE('',#855,0.00265);
#22=CIRCLE('',#859,0.00165);
#23=CIRCLE('',#860,0.00165);
#24=CIRCLE('',#862,0.00165);
#25=CIRCLE('',#863,0.00165);
#26=CIRCLE('',#865,0.00165);
#27=CIRCLE('',#866,0.00165);
#28=CIRCLE('',#868,0.00165);
#29=CIRCLE('',#869,0.00165);
#30=CIRCLE('',#871,0.00265);
#31=CIRCLE('',#872,0.00265);
#32=CIRCLE('',#875,0.016);
#33=CIRCLE('',#876,0.016);
#34=CIRCLE('',#877,0.016);
#35=CIRCLE('',#878,0.016);
#36=CIRCLE('',#879,0.016);
#37=CIRCLE('',#880,0.016);
#38=CIRCLE('',#881,0.016);
#39=CIRCLE('',#882,0.016);
#40=CIRCLE('',#884,0.016);
#41=CIRCLE('',#885,0.016);
#42=CIRCLE('',#886,0.016);
#43=CIRCLE('',#887,0.016);
#44=CIRCLE('',#888,0.016);
#45=CIRCLE('',#889,0.016);
#46=CIRCLE('',#890,0.016);
#47=CIRCLE('',#891,0.016);
#48=CYLINDRICAL_SURFACE('',#845,0.00265);
#49=CYLINDRICAL_SURFACE('',#849,0.00265);
#50=CYLINDRICAL_SURFACE('',#853,0.00265);
#51=CYLINDRICAL_SURFACE('',#858,0.00165);
#52=CYLINDRICAL_SURFACE('',#861,0.00165);
#53=CYLINDRICAL_SURFACE('',#864,0.00165);
#54=CYLINDRICAL_SURFACE('',#867,0.00165);
#55=CYLINDRICAL_SURFACE('',#870,0.00265);
#56=CYLINDRICAL_SURFACE('',#892,0.016);
#57=CYLINDRICAL_SURFACE('',#893,0.016);
#58=CYLINDRICAL_SURFACE('',#894,0.016);
#59=CYLINDRICAL_SURFACE('',#895,0.016);
#60=CYLINDRICAL_SURFACE('',#896,0.016);
#61=CYLINDRICAL_SURFACE('',#897,0.016);
#62=CYLINDRICAL_SURFACE('',#898,0.016);
#63=CYLINDRICAL_SURFACE('',#899,0.016);
#64=CYLINDRICAL_SURFACE('',#909,0.0006);
#65=CYLINDRICAL_SURFACE('',#912,0.0006);
#66=CYLINDRICAL_SURFACE('',#914,0.0006);
#67=CYLINDRICAL_SURFACE('',#916,0.0006);
#68=ORIENTED_EDGE('',*,*,#292,.F.);
#69=ORIENTED_EDGE('',*,*,#293,.T.);
#70=ORIENTED_EDGE('',*,*,#294,.T.);
#71=ORIENTED_EDGE('',*,*,#295,.F.);
#72=ORIENTED_EDGE('',*,*,#296,.T.);
#73=ORIENTED_EDGE('',*,*,#297,.T.);
#74=ORIENTED_EDGE('',*,*,#298,.T.);
#75=ORIENTED_EDGE('',*,*,#299,.T.);
#76=ORIENTED_EDGE('',*,*,#300,.F.);
#77=ORIENTED_EDGE('',*,*,#301,.F.);
#78=ORIENTED_EDGE('',*,*,#302,.T.);
#79=ORIENTED_EDGE('',*,*,#303,.T.);
#80=ORIENTED_EDGE('',*,*,#304,.T.);
#81=ORIENTED_EDGE('',*,*,#305,.F.);
#82=ORIENTED_EDGE('',*,*,#306,.F.);
#83=ORIENTED_EDGE('',*,*,#301,.T.);
#84=ORIENTED_EDGE('',*,*,#307,.T.);
#85=ORIENTED_EDGE('',*,*,#308,.F.);
#86=ORIENTED_EDGE('',*,*,#309,.F.);
#87=ORIENTED_EDGE('',*,*,#305,.T.);
#88=ORIENTED_EDGE('',*,*,#310,.F.);
#89=ORIENTED_EDGE('',*,*,#311,.T.);
#90=ORIENTED_EDGE('',*,*,#312,.T.);
#91=ORIENTED_EDGE('',*,*,#296,.F.);
#92=ORIENTED_EDGE('',*,*,#313,.F.);
#93=ORIENTED_EDGE('',*,*,#314,.T.);
#94=ORIENTED_EDGE('',*,*,#310,.T.);
#95=ORIENTED_EDGE('',*,*,#299,.F.);
#96=ORIENTED_EDGE('',*,*,#315,.F.);
#97=ORIENTED_EDGE('',*,*,#316,.T.);
#98=ORIENTED_EDGE('',*,*,#313,.T.);
#99=ORIENTED_EDGE('',*,*,#298,.F.);
#100=ORIENTED_EDGE('',*,*,#317,.T.);
#101=ORIENTED_EDGE('',*,*,#318,.T.);
#102=ORIENTED_EDGE('',*,*,#319,.F.);
#103=ORIENTED_EDGE('',*,*,#320,.T.);
#104=ORIENTED_EDGE('',*,*,#321,.T.);
#105=ORIENTED_EDGE('',*,*,#322,.T.);
#106=ORIENTED_EDGE('',*,*,#323,.F.);
#107=ORIENTED_EDGE('',*,*,#324,.T.);
#108=ORIENTED_EDGE('',*,*,#325,.T.);
#109=ORIENTED_EDGE('',*,*,#326,.T.);
#110=ORIENTED_EDGE('',*,*,#327,.F.);
#111=ORIENTED_EDGE('',*,*,#328,.T.);
#112=ORIENTED_EDGE('',*,*,#329,.T.);
#113=ORIENTED_EDGE('',*,*,#330,.T.);
#114=ORIENTED_EDGE('',*,*,#331,.F.);
#115=ORIENTED_EDGE('',*,*,#332,.T.);
#116=ORIENTED_EDGE('',*,*,#333,.F.);
#117=ORIENTED_EDGE('',*,*,#334,.T.);
#118=ORIENTED_EDGE('',*,*,#335,.T.);
#119=ORIENTED_EDGE('',*,*,#336,.T.);
#120=ORIENTED_EDGE('',*,*,#337,.T.);
#121=ORIENTED_EDGE('',*,*,#338,.T.);
#122=ORIENTED_EDGE('',*,*,#339,.F.);
#123=ORIENTED_EDGE('',*,*,#340,.T.);
#124=ORIENTED_EDGE('',*,*,#341,.T.);
#125=ORIENTED_EDGE('',*,*,#342,.T.);
#126=ORIENTED_EDGE('',*,*,#343,.F.);
#127=ORIENTED_EDGE('',*,*,#344,.T.);
#128=ORIENTED_EDGE('',*,*,#312,.F.);
#129=ORIENTED_EDGE('',*,*,#345,.T.);
#130=ORIENTED_EDGE('',*,*,#315,.T.);
#131=ORIENTED_EDGE('',*,*,#297,.F.);
#132=ORIENTED_EDGE('',*,*,#346,.T.);
#133=ORIENTED_EDGE('',*,*,#347,.F.);
#134=ORIENTED_EDGE('',*,*,#348,.T.);
#135=ORIENTED_EDGE('',*,*,#349,.F.);
#136=ORIENTED_EDGE('',*,*,#350,.T.);
#137=ORIENTED_EDGE('',*,*,#351,.F.);
#138=ORIENTED_EDGE('',*,*,#352,.T.);
#139=ORIENTED_EDGE('',*,*,#353,.F.);
#140=ORIENTED_EDGE('',*,*,#354,.T.);
#141=ORIENTED_EDGE('',*,*,#355,.T.);
#142=ORIENTED_EDGE('',*,*,#356,.F.);
#143=ORIENTED_EDGE('',*,*,#357,.T.);
#144=ORIENTED_EDGE('',*,*,#358,.F.);
#145=ORIENTED_EDGE('',*,*,#303,.F.);
#146=ORIENTED_EDGE('',*,*,#359,.T.);
#147=ORIENTED_EDGE('',*,*,#308,.T.);
#148=ORIENTED_EDGE('',*,*,#360,.T.);
#149=ORIENTED_EDGE('',*,*,#361,.T.);
#150=ORIENTED_EDGE('',*,*,#362,.T.);
#151=ORIENTED_EDGE('',*,*,#363,.T.);
#152=ORIENTED_EDGE('',*,*,#356,.T.);
#153=ORIENTED_EDGE('',*,*,#364,.T.);
#154=ORIENTED_EDGE('',*,*,#319,.T.);
#155=ORIENTED_EDGE('',*,*,#365,.T.);
#156=ORIENTED_EDGE('',*,*,#323,.T.);
#157=ORIENTED_EDGE('',*,*,#366,.T.);
#158=ORIENTED_EDGE('',*,*,#327,.T.);
#159=ORIENTED_EDGE('',*,*,#367,.T.);
#160=ORIENTED_EDGE('',*,*,#331,.T.);
#161=ORIENTED_EDGE('',*,*,#368,.T.);
#162=ORIENTED_EDGE('',*,*,#335,.F.);
#163=ORIENTED_EDGE('',*,*,#369,.T.);
#164=ORIENTED_EDGE('',*,*,#339,.T.);
#165=ORIENTED_EDGE('',*,*,#370,.T.);
#166=ORIENTED_EDGE('',*,*,#341,.F.);
#167=ORIENTED_EDGE('',*,*,#371,.T.);
#168=ORIENTED_EDGE('',*,*,#352,.F.);
#169=ORIENTED_EDGE('',*,*,#350,.F.);
#170=ORIENTED_EDGE('',*,*,#348,.F.);
#171=ORIENTED_EDGE('',*,*,#346,.F.);
#172=ORIENTED_EDGE('',*,*,#302,.F.);
#173=ORIENTED_EDGE('',*,*,#306,.T.);
#174=ORIENTED_EDGE('',*,*,#309,.T.);
#175=ORIENTED_EDGE('',*,*,#359,.F.);
#176=ORIENTED_EDGE('',*,*,#372,.T.);
#177=ORIENTED_EDGE('',*,*,#373,.T.);
#178=ORIENTED_EDGE('',*,*,#374,.F.);
#179=ORIENTED_EDGE('',*,*,#375,.F.);
#180=ORIENTED_EDGE('',*,*,#317,.F.);
#181=ORIENTED_EDGE('',*,*,#376,.T.);
#182=ORIENTED_EDGE('',*,*,#354,.F.);
#183=ORIENTED_EDGE('',*,*,#377,.T.);
#184=ORIENTED_EDGE('',*,*,#343,.T.);
#185=ORIENTED_EDGE('',*,*,#378,.T.);
#186=ORIENTED_EDGE('',*,*,#337,.F.);
#187=ORIENTED_EDGE('',*,*,#379,.T.);
#188=ORIENTED_EDGE('',*,*,#333,.T.);
#189=ORIENTED_EDGE('',*,*,#380,.T.);
#190=ORIENTED_EDGE('',*,*,#329,.F.);
#191=ORIENTED_EDGE('',*,*,#381,.T.);
#192=ORIENTED_EDGE('',*,*,#325,.F.);
#193=ORIENTED_EDGE('',*,*,#382,.T.);
#194=ORIENTED_EDGE('',*,*,#321,.F.);
#195=ORIENTED_EDGE('',*,*,#383,.T.);
#196=ORIENTED_EDGE('',*,*,#353,.T.);
#197=ORIENTED_EDGE('',*,*,#351,.T.);
#198=ORIENTED_EDGE('',*,*,#349,.T.);
#199=ORIENTED_EDGE('',*,*,#347,.T.);
#200=ORIENTED_EDGE('',*,*,#300,.T.);
#201=ORIENTED_EDGE('',*,*,#358,.T.);
#202=ORIENTED_EDGE('',*,*,#307,.F.);
#203=ORIENTED_EDGE('',*,*,#304,.F.);
#204=ORIENTED_EDGE('',*,*,#370,.F.);
#205=ORIENTED_EDGE('',*,*,#338,.F.);
#206=ORIENTED_EDGE('',*,*,#378,.F.);
#207=ORIENTED_EDGE('',*,*,#342,.F.);
#208=ORIENTED_EDGE('',*,*,#369,.F.);
#209=ORIENTED_EDGE('',*,*,#334,.F.);
#210=ORIENTED_EDGE('',*,*,#379,.F.);
#211=ORIENTED_EDGE('',*,*,#340,.F.);
#212=ORIENTED_EDGE('',*,*,#368,.F.);
#213=ORIENTED_EDGE('',*,*,#330,.F.);
#214=ORIENTED_EDGE('',*,*,#380,.F.);
#215=ORIENTED_EDGE('',*,*,#336,.F.);
#216=ORIENTED_EDGE('',*,*,#367,.F.);
#217=ORIENTED_EDGE('',*,*,#326,.F.);
#218=ORIENTED_EDGE('',*,*,#381,.F.);
#219=ORIENTED_EDGE('',*,*,#332,.F.);
#220=ORIENTED_EDGE('',*,*,#366,.F.);
#221=ORIENTED_EDGE('',*,*,#322,.F.);
#222=ORIENTED_EDGE('',*,*,#382,.F.);
#223=ORIENTED_EDGE('',*,*,#328,.F.);
#224=ORIENTED_EDGE('',*,*,#365,.F.);
#225=ORIENTED_EDGE('',*,*,#318,.F.);
#226=ORIENTED_EDGE('',*,*,#383,.F.);
#227=ORIENTED_EDGE('',*,*,#324,.F.);
#228=ORIENTED_EDGE('',*,*,#364,.F.);
#229=ORIENTED_EDGE('',*,*,#355,.F.);
#230=ORIENTED_EDGE('',*,*,#376,.F.);
#231=ORIENTED_EDGE('',*,*,#320,.F.);
#232=ORIENTED_EDGE('',*,*,#371,.F.);
#233=ORIENTED_EDGE('',*,*,#344,.F.);
#234=ORIENTED_EDGE('',*,*,#377,.F.);
#235=ORIENTED_EDGE('',*,*,#357,.F.);
#236=ORIENTED_EDGE('',*,*,#373,.F.);
#237=ORIENTED_EDGE('',*,*,#384,.F.);
#238=ORIENTED_EDGE('',*,*,#385,.T.);
#239=ORIENTED_EDGE('',*,*,#386,.T.);
#240=ORIENTED_EDGE('',*,*,#372,.F.);
#241=ORIENTED_EDGE('',*,*,#387,.F.);
#242=ORIENTED_EDGE('',*,*,#388,.T.);
#243=ORIENTED_EDGE('',*,*,#384,.T.);
#244=ORIENTED_EDGE('',*,*,#375,.T.);
#245=ORIENTED_EDGE('',*,*,#389,.F.);
#246=ORIENTED_EDGE('',*,*,#390,.F.);
#247=ORIENTED_EDGE('',*,*,#387,.T.);
#248=ORIENTED_EDGE('',*,*,#293,.F.);
#249=ORIENTED_EDGE('',*,*,#391,.F.);
#250=ORIENTED_EDGE('',*,*,#392,.T.);
#251=ORIENTED_EDGE('',*,*,#393,.T.);
#252=ORIENTED_EDGE('',*,*,#292,.T.);
#253=ORIENTED_EDGE('',*,*,#394,.F.);
#254=ORIENTED_EDGE('',*,*,#395,.F.);
#255=ORIENTED_EDGE('',*,*,#391,.T.);
#256=ORIENTED_EDGE('',*,*,#295,.T.);
#257=ORIENTED_EDGE('',*,*,#396,.F.);
#258=ORIENTED_EDGE('',*,*,#397,.F.);
#259=ORIENTED_EDGE('',*,*,#394,.T.);
#260=ORIENTED_EDGE('',*,*,#294,.F.);
#261=ORIENTED_EDGE('',*,*,#393,.F.);
#262=ORIENTED_EDGE('',*,*,#398,.T.);
#263=ORIENTED_EDGE('',*,*,#396,.T.);
#264=ORIENTED_EDGE('',*,*,#374,.T.);
#265=ORIENTED_EDGE('',*,*,#386,.F.);
#266=ORIENTED_EDGE('',*,*,#399,.F.);
#267=ORIENTED_EDGE('',*,*,#389,.T.);
#268=ORIENTED_EDGE('',*,*,#392,.F.);
#269=ORIENTED_EDGE('',*,*,#395,.T.);
#270=ORIENTED_EDGE('',*,*,#397,.T.);
#271=ORIENTED_EDGE('',*,*,#398,.F.);
#272=ORIENTED_EDGE('',*,*,#385,.F.);
#273=ORIENTED_EDGE('',*,*,#388,.F.);
#274=ORIENTED_EDGE('',*,*,#390,.T.);
#275=ORIENTED_EDGE('',*,*,#399,.T.);
#276=ORIENTED_EDGE('',*,*,#400,.F.);
#277=ORIENTED_EDGE('',*,*,#363,.F.);
#278=ORIENTED_EDGE('',*,*,#401,.F.);
#279=ORIENTED_EDGE('',*,*,#345,.F.);
#280=ORIENTED_EDGE('',*,*,#401,.T.);
#281=ORIENTED_EDGE('',*,*,#362,.F.);
#282=ORIENTED_EDGE('',*,*,#402,.F.);
#283=ORIENTED_EDGE('',*,*,#316,.F.);
#284=ORIENTED_EDGE('',*,*,#400,.T.);
#285=ORIENTED_EDGE('',*,*,#311,.F.);
#286=ORIENTED_EDGE('',*,*,#403,.F.);
#287=ORIENTED_EDGE('',*,*,#360,.F.);
#288=ORIENTED_EDGE('',*,*,#402,.T.);
#289=ORIENTED_EDGE('',*,*,#361,.F.);
#290=ORIENTED_EDGE('',*,*,#403,.T.);
#291=ORIENTED_EDGE('',*,*,#314,.F.);
#292=EDGE_CURVE('',#404,#405,#480,.T.);
#293=EDGE_CURVE('',#404,#406,#481,.T.);
#294=EDGE_CURVE('',#406,#407,#482,.T.);
#295=EDGE_CURVE('',#405,#407,#483,.T.);
#296=EDGE_CURVE('',#408,#409,#484,.T.);
#297=EDGE_CURVE('',#409,#410,#485,.T.);
#298=EDGE_CURVE('',#410,#411,#486,.T.);
#299=EDGE_CURVE('',#411,#408,#487,.T.);
#300=EDGE_CURVE('',#412,#413,#488,.T.);
#301=EDGE_CURVE('',#414,#412,#489,.T.);
#302=EDGE_CURVE('',#414,#415,#490,.T.);
#303=EDGE_CURVE('',#415,#413,#491,.T.);
#304=EDGE_CURVE('',#412,#416,#492,.T.);
#305=EDGE_CURVE('',#417,#416,#493,.T.);
#306=EDGE_CURVE('',#414,#417,#494,.T.);
#307=EDGE_CURVE('',#416,#418,#495,.T.);
#308=EDGE_CURVE('',#419,#418,#496,.T.);
#309=EDGE_CURVE('',#417,#419,#497,.T.);
#310=EDGE_CURVE('',#420,#408,#498,.T.);
#311=EDGE_CURVE('',#420,#421,#499,.T.);
#312=EDGE_CURVE('',#421,#409,#500,.T.);
#313=EDGE_CURVE('',#422,#411,#501,.T.);
#314=EDGE_CURVE('',#422,#420,#502,.T.);
#315=EDGE_CURVE('',#423,#410,#503,.T.);
#316=EDGE_CURVE('',#423,#422,#504,.T.);
#317=EDGE_CURVE('',#424,#425,#505,.T.);
#318=EDGE_CURVE('',#425,#426,#506,.T.);
#319=EDGE_CURVE('',#427,#426,#507,.T.);
#320=EDGE_CURVE('',#427,#424,#508,.F.);
#321=EDGE_CURVE('',#428,#429,#16,.T.);
#322=EDGE_CURVE('',#429,#430,#509,.F.);
#323=EDGE_CURVE('',#431,#430,#17,.T.);
#324=EDGE_CURVE('',#431,#428,#510,.T.);
#325=EDGE_CURVE('',#432,#433,#511,.T.);
#326=EDGE_CURVE('',#433,#434,#512,.T.);
#327=EDGE_CURVE('',#435,#434,#513,.T.);
#328=EDGE_CURVE('',#435,#432,#514,.F.);
#329=EDGE_CURVE('',#436,#437,#18,.T.);
#330=EDGE_CURVE('',#437,#438,#515,.F.);
#331=EDGE_CURVE('',#439,#438,#19,.T.);
#332=EDGE_CURVE('',#439,#436,#516,.T.);
#333=EDGE_CURVE('',#440,#441,#517,.T.);
#334=EDGE_CURVE('',#440,#442,#518,.F.);
#335=EDGE_CURVE('',#442,#443,#519,.T.);
#336=EDGE_CURVE('',#443,#441,#520,.T.);
#337=EDGE_CURVE('',#444,#445,#20,.T.);
#338=EDGE_CURVE('',#445,#446,#521,.F.);
#339=EDGE_CURVE('',#447,#446,#21,.T.);
#340=EDGE_CURVE('',#447,#444,#522,.T.);
#341=EDGE_CURVE('',#448,#449,#523,.T.);
#342=EDGE_CURVE('',#449,#450,#524,.T.);
#343=EDGE_CURVE('',#451,#450,#525,.T.);
#344=EDGE_CURVE('',#451,#448,#526,.F.);
#345=EDGE_CURVE('',#421,#423,#527,.T.);
#346=EDGE_CURVE('',#452,#452,#22,.T.);
#347=EDGE_CURVE('',#453,#453,#23,.T.);
#348=EDGE_CURVE('',#454,#454,#24,.T.);
#349=EDGE_CURVE('',#455,#455,#25,.T.);
#350=EDGE_CURVE('',#456,#456,#26,.T.);
#351=EDGE_CURVE('',#457,#457,#27,.T.);
#352=EDGE_CURVE('',#458,#458,#28,.T.);
#353=EDGE_CURVE('',#459,#459,#29,.T.);
#354=EDGE_CURVE('',#460,#461,#30,.T.);
#355=EDGE_CURVE('',#461,#462,#528,.F.);
#356=EDGE_CURVE('',#463,#462,#31,.T.);
#357=EDGE_CURVE('',#463,#460,#529,.T.);
#358=EDGE_CURVE('',#413,#418,#530,.T.);
#359=EDGE_CURVE('',#415,#419,#531,.T.);
#360=EDGE_CURVE('',#464,#465,#532,.F.);
#361=EDGE_CURVE('',#465,#466,#533,.F.);
#362=EDGE_CURVE('',#466,#467,#534,.F.);
#363=EDGE_CURVE('',#467,#464,#535,.F.);
#364=EDGE_CURVE('',#462,#427,#32,.F.);
#365=EDGE_CURVE('',#426,#431,#33,.F.);
#366=EDGE_CURVE('',#430,#435,#34,.F.);
#367=EDGE_CURVE('',#434,#439,#35,.F.);
#368=EDGE_CURVE('',#438,#443,#36,.F.);
#369=EDGE_CURVE('',#442,#447,#37,.F.);
#370=EDGE_CURVE('',#446,#449,#38,.F.);
#371=EDGE_CURVE('',#448,#463,#39,.F.);
#372=EDGE_CURVE('',#468,#469,#536,.T.);
#373=EDGE_CURVE('',#469,#470,#537,.T.);
#374=EDGE_CURVE('',#471,#470,#538,.T.);
#375=EDGE_CURVE('',#468,#471,#539,.T.);
#376=EDGE_CURVE('',#424,#461,#40,.T.);
#377=EDGE_CURVE('',#460,#451,#41,.T.);
#378=EDGE_CURVE('',#450,#445,#42,.T.);
#379=EDGE_CURVE('',#444,#440,#43,.T.);
#380=EDGE_CURVE('',#441,#437,#44,.T.);
#381=EDGE_CURVE('',#436,#433,#45,.T.);
#382=EDGE_CURVE('',#432,#429,#46,.T.);
#383=EDGE_CURVE('',#428,#425,#47,.T.);
#384=EDGE_CURVE('',#472,#469,#540,.T.);
#385=EDGE_CURVE('',#472,#473,#541,.T.);
#386=EDGE_CURVE('',#473,#470,#542,.T.);
#387=EDGE_CURVE('',#474,#468,#543,.T.);
#388=EDGE_CURVE('',#474,#472,#544,.T.);
#389=EDGE_CURVE('',#475,#471,#545,.T.);
#390=EDGE_CURVE('',#474,#475,#546,.T.);
#391=EDGE_CURVE('',#476,#404,#547,.T.);
#392=EDGE_CURVE('',#476,#477,#548,.T.);
#393=EDGE_CURVE('',#477,#406,#549,.T.);
#394=EDGE_CURVE('',#478,#405,#550,.T.);
#395=EDGE_CURVE('',#476,#478,#551,.T.);
#396=EDGE_CURVE('',#479,#407,#552,.T.);
#397=EDGE_CURVE('',#478,#479,#553,.T.);
#398=EDGE_CURVE('',#477,#479,#554,.T.);
#399=EDGE_CURVE('',#475,#473,#555,.T.);
#400=EDGE_CURVE('',#464,#421,#12,.F.);
#401=EDGE_CURVE('',#423,#467,#13,.T.);
#402=EDGE_CURVE('',#422,#466,#14,.T.);
#403=EDGE_CURVE('',#465,#420,#15,.F.);
#404=VERTEX_POINT('',#1158);
#405=VERTEX_POINT('',#1159);
#406=VERTEX_POINT('',#1161);
#407=VERTEX_POINT('',#1163);
#408=VERTEX_POINT('',#1166);
#409=VERTEX_POINT('',#1167);
#410=VERTEX_POINT('',#1169);
#411=VERTEX_POINT('',#1171);
#412=VERTEX_POINT('',#1175);
#413=VERTEX_POINT('',#1176);
#414=VERTEX_POINT('',#1178);
#415=VERTEX_POINT('',#1180);
#416=VERTEX_POINT('',#1184);
#417=VERTEX_POINT('',#1186);
#418=VERTEX_POINT('',#1190);
#419=VERTEX_POINT('',#1192);
#420=VERTEX_POINT('',#1196);
#421=VERTEX_POINT('',#1198);
#422=VERTEX_POINT('',#1202);
#423=VERTEX_POINT('',#1206);
#424=VERTEX_POINT('',#1210);
#425=VERTEX_POINT('',#1211);
#426=VERTEX_POINT('',#1213);
#427=VERTEX_POINT('',#1215);
#428=VERTEX_POINT('',#1219);
#429=VERTEX_POINT('',#1220);
#430=VERTEX_POINT('',#1222);
#431=VERTEX_POINT('',#1224);
#432=VERTEX_POINT('',#1228);
#433=VERTEX_POINT('',#1229);
#434=VERTEX_POINT('',#1231);
#435=VERTEX_POINT('',#1233);
#436=VERTEX_POINT('',#1237);
#437=VERTEX_POINT('',#1238);
#438=VERTEX_POINT('',#1240);
#439=VERTEX_POINT('',#1242);
#440=VERTEX_POINT('',#1246);
#441=VERTEX_POINT('',#1247);
#442=VERTEX_POINT('',#1249);
#443=VERTEX_POINT('',#1251);
#444=VERTEX_POINT('',#1255);
#445=VERTEX_POINT('',#1256);
#446=VERTEX_POINT('',#1258);
#447=VERTEX_POINT('',#1260);
#448=VERTEX_POINT('',#1264);
#449=VERTEX_POINT('',#1265);
#450=VERTEX_POINT('',#1267);
#451=VERTEX_POINT('',#1269);
#452=VERTEX_POINT('',#1275);
#453=VERTEX_POINT('',#1277);
#454=VERTEX_POINT('',#1280);
#455=VERTEX_POINT('',#1282);
#456=VERTEX_POINT('',#1285);
#457=VERTEX_POINT('',#1287);
#458=VERTEX_POINT('',#1290);
#459=VERTEX_POINT('',#1292);
#460=VERTEX_POINT('',#1295);
#461=VERTEX_POINT('',#1296);
#462=VERTEX_POINT('',#1298);
#463=VERTEX_POINT('',#1300);
#464=VERTEX_POINT('',#1307);
#465=VERTEX_POINT('',#1308);
#466=VERTEX_POINT('',#1310);
#467=VERTEX_POINT('',#1312);
#468=VERTEX_POINT('',#1324);
#469=VERTEX_POINT('',#1325);
#470=VERTEX_POINT('',#1327);
#471=VERTEX_POINT('',#1329);
#472=VERTEX_POINT('',#1349);
#473=VERTEX_POINT('',#1351);
#474=VERTEX_POINT('',#1355);
#475=VERTEX_POINT('',#1359);
#476=VERTEX_POINT('',#1363);
#477=VERTEX_POINT('',#1365);
#478=VERTEX_POINT('',#1369);
#479=VERTEX_POINT('',#1373);
#480=LINE('',#1157,#556);
#481=LINE('',#1160,#557);
#482=LINE('',#1162,#558);
#483=LINE('',#1164,#559);
#484=LINE('',#1165,#560);
#485=LINE('',#1168,#561);
#486=LINE('',#1170,#562);
#487=LINE('',#1172,#563);
#488=LINE('',#1174,#564);
#489=LINE('',#1177,#565);
#490=LINE('',#1179,#566);
#491=LINE('',#1181,#567);
#492=LINE('',#1183,#568);
#493=LINE('',#1185,#569);
#494=LINE('',#1187,#570);
#495=LINE('',#1189,#571);
#496=LINE('',#1191,#572);
#497=LINE('',#1193,#573);
#498=LINE('',#1195,#574);
#499=LINE('',#1197,#575);
#500=LINE('',#1199,#576);
#501=LINE('',#1201,#577);
#502=LINE('',#1203,#578);
#503=LINE('',#1205,#579);
#504=LINE('',#1207,#580);
#505=LINE('',#1209,#581);
#506=LINE('',#1212,#582);
#507=LINE('',#1214,#583);
#508=LINE('',#1216,#584);
#509=LINE('',#1221,#585);
#510=LINE('',#1225,#586);
#511=LINE('',#1227,#587);
#512=LINE('',#1230,#588);
#513=LINE('',#1232,#589);
#514=LINE('',#1234,#590);
#515=LINE('',#1239,#591);
#516=LINE('',#1243,#592);
#517=LINE('',#1245,#593);
#518=LINE('',#1248,#594);
#519=LINE('',#1250,#595);
#520=LINE('',#1252,#596);
#521=LINE('',#1257,#597);
#522=LINE('',#1261,#598);
#523=LINE('',#1263,#599);
#524=LINE('',#1266,#600);
#525=LINE('',#1268,#601);
#526=LINE('',#1270,#602);
#527=LINE('',#1272,#603);
#528=LINE('',#1297,#604);
#529=LINE('',#1301,#605);
#530=LINE('',#1303,#606);
#531=LINE('',#1304,#607);
#532=LINE('',#1306,#608);
#533=LINE('',#1309,#609);
#534=LINE('',#1311,#610);
#535=LINE('',#1313,#611);
#536=LINE('',#1323,#612);
#537=LINE('',#1326,#613);
#538=LINE('',#1328,#614);
#539=LINE('',#1330,#615);
#540=LINE('',#1348,#616);
#541=LINE('',#1350,#617);
#542=LINE('',#1352,#618);
#543=LINE('',#1354,#619);
#544=LINE('',#1356,#620);
#545=LINE('',#1358,#621);
#546=LINE('',#1360,#622);
#547=LINE('',#1362,#623);
#548=LINE('',#1364,#624);
#549=LINE('',#1366,#625);
#550=LINE('',#1368,#626);
#551=LINE('',#1370,#627);
#552=LINE('',#1372,#628);
#553=LINE('',#1374,#629);
#554=LINE('',#1376,#630);
#555=LINE('',#1378,#631);
#556=VECTOR('',#921,1.);
#557=VECTOR('',#922,1.);
#558=VECTOR('',#923,1.);
#559=VECTOR('',#924,1.);
#560=VECTOR('',#925,1.);
#561=VECTOR('',#926,1.);
#562=VECTOR('',#927,1.);
#563=VECTOR('',#928,1.);
#564=VECTOR('',#931,1.);
#565=VECTOR('',#932,1.);
#566=VECTOR('',#933,1.);
#567=VECTOR('',#934,1.);
#568=VECTOR('',#937,1.);
#569=VECTOR('',#938,1.);
#570=VECTOR('',#939,1.);
#571=VECTOR('',#942,1.);
#572=VECTOR('',#943,1.);
#573=VECTOR('',#944,1.);
#574=VECTOR('',#947,1.);
#575=VECTOR('',#948,1.);
#576=VECTOR('',#949,1.);
#577=VECTOR('',#952,1.);
#578=VECTOR('',#953,1.);
#579=VECTOR('',#956,1.);
#580=VECTOR('',#957,1.);
#581=VECTOR('',#960,1.);
#582=VECTOR('',#961,1.);
#583=VECTOR('',#962,1.);
#584=VECTOR('',#963,1.);
#585=VECTOR('',#968,1.);
#586=VECTOR('',#971,1.);
#587=VECTOR('',#974,1.);
#588=VECTOR('',#975,1.);
#589=VECTOR('',#976,1.);
#590=VECTOR('',#977,1.);
#591=VECTOR('',#982,1.);
#592=VECTOR('',#985,1.);
#593=VECTOR('',#988,1.);
#594=VECTOR('',#989,1.);
#595=VECTOR('',#990,1.);
#596=VECTOR('',#991,1.);
#597=VECTOR('',#996,1.);
#598=VECTOR('',#999,1.);
#599=VECTOR('',#1002,1.);
#600=VECTOR('',#1003,1.);
#601=VECTOR('',#1004,1.);
#602=VECTOR('',#1005,1.);
#603=VECTOR('',#1008,1.);
#604=VECTOR('',#1037,1.);
#605=VECTOR('',#1040,1.);
#606=VECTOR('',#1043,1.);
#607=VECTOR('',#1044,1.);
#608=VECTOR('',#1047,1.);
#609=VECTOR('',#1048,1.);
#610=VECTOR('',#1049,1.);
#611=VECTOR('',#1050,1.);
#612=VECTOR('',#1069,1.);
#613=VECTOR('',#1070,1.);
#614=VECTOR('',#1071,1.);
#615=VECTOR('',#1072,1.);
#616=VECTOR('',#1107,1.);
#617=VECTOR('',#1108,1.);
#618=VECTOR('',#1109,1.);
#619=VECTOR('',#1112,1.);
#620=VECTOR('',#1113,1.);
#621=VECTOR('',#1116,1.);
#622=VECTOR('',#1117,1.);
#623=VECTOR('',#1120,1.);
#624=VECTOR('',#1121,1.);
#625=VECTOR('',#1122,1.);
#626=VECTOR('',#1125,1.);
#627=VECTOR('',#1126,1.);
#628=VECTOR('',#1129,1.);
#629=VECTOR('',#1130,1.);
#630=VECTOR('',#1133,1.);
#631=VECTOR('',#1136,1.);
#632=EDGE_LOOP('',(#68,#69,#70,#71));
#633=EDGE_LOOP('',(#72,#73,#74,#75));
#634=EDGE_LOOP('',(#76,#77,#78,#79));
#635=EDGE_LOOP('',(#80,#81,#82,#83));
#636=EDGE_LOOP('',(#84,#85,#86,#87));
#637=EDGE_LOOP('',(#88,#89,#90,#91));
#638=EDGE_LOOP('',(#92,#93,#94,#95));
#639=EDGE_LOOP('',(#96,#97,#98,#99));
#640=EDGE_LOOP('',(#100,#101,#102,#103));
#641=EDGE_LOOP('',(#104,#105,#106,#107));
#642=EDGE_LOOP('',(#108,#109,#110,#111));
#643=EDGE_LOOP('',(#112,#113,#114,#115));
#644=EDGE_LOOP('',(#116,#117,#118,#119));
#645=EDGE_LOOP('',(#120,#121,#122,#123));
#646=EDGE_LOOP('',(#124,#125,#126,#127));
#647=EDGE_LOOP('',(#128,#129,#130,#131));
#648=EDGE_LOOP('',(#132));
#649=EDGE_LOOP('',(#133));
#650=EDGE_LOOP('',(#134));
#651=EDGE_LOOP('',(#135));
#652=EDGE_LOOP('',(#136));
#653=EDGE_LOOP('',(#137));
#654=EDGE_LOOP('',(#138));
#655=EDGE_LOOP('',(#139));
#656=EDGE_LOOP('',(#140,#141,#142,#143));
#657=EDGE_LOOP('',(#144,#145,#146,#147));
#658=EDGE_LOOP('',(#148,#149,#150,#151));
#659=EDGE_LOOP('',(#152,#153,#154,#155,#156,#157,#158,#159,#160,#161,#162,
#163,#164,#165,#166,#167));
#660=EDGE_LOOP('',(#168));
#661=EDGE_LOOP('',(#169));
#662=EDGE_LOOP('',(#170));
#663=EDGE_LOOP('',(#171));
#664=EDGE_LOOP('',(#172,#173,#174,#175));
#665=EDGE_LOOP('',(#176,#177,#178,#179));
#666=EDGE_LOOP('',(#180,#181,#182,#183,#184,#185,#186,#187,#188,#189,#190,
#191,#192,#193,#194,#195));
#667=EDGE_LOOP('',(#196));
#668=EDGE_LOOP('',(#197));
#669=EDGE_LOOP('',(#198));
#670=EDGE_LOOP('',(#199));
#671=EDGE_LOOP('',(#200,#201,#202,#203));
#672=EDGE_LOOP('',(#204,#205,#206,#207));
#673=EDGE_LOOP('',(#208,#209,#210,#211));
#674=EDGE_LOOP('',(#212,#213,#214,#215));
#675=EDGE_LOOP('',(#216,#217,#218,#219));
#676=EDGE_LOOP('',(#220,#221,#222,#223));
#677=EDGE_LOOP('',(#224,#225,#226,#227));
#678=EDGE_LOOP('',(#228,#229,#230,#231));
#679=EDGE_LOOP('',(#232,#233,#234,#235));
#680=EDGE_LOOP('',(#236,#237,#238,#239));
#681=EDGE_LOOP('',(#240,#241,#242,#243));
#682=EDGE_LOOP('',(#244,#245,#246,#247));
#683=EDGE_LOOP('',(#248,#249,#250,#251));
#684=EDGE_LOOP('',(#252,#253,#254,#255));
#685=EDGE_LOOP('',(#256,#257,#258,#259));
#686=EDGE_LOOP('',(#260,#261,#262,#263));
#687=EDGE_LOOP('',(#264,#265,#266,#267));
#688=EDGE_LOOP('',(#268,#269,#270,#271));
#689=EDGE_LOOP('',(#272,#273,#274,#275));
#690=EDGE_LOOP('',(#276,#277,#278,#279));
#691=EDGE_LOOP('',(#280,#281,#282,#283));
#692=EDGE_LOOP('',(#284,#285,#286,#287));
#693=EDGE_LOOP('',(#288,#289,#290,#291));
#694=FACE_BOUND('',#632,.T.);
#695=FACE_BOUND('',#633,.T.);
#696=FACE_BOUND('',#634,.T.);
#697=FACE_BOUND('',#635,.T.);
#698=FACE_BOUND('',#636,.T.);
#699=FACE_BOUND('',#637,.T.);
#700=FACE_BOUND('',#638,.T.);
#701=FACE_BOUND('',#639,.T.);
#702=FACE_BOUND('',#640,.T.);
#703=FACE_BOUND('',#641,.T.);
#704=FACE_BOUND('',#642,.T.);
#705=FACE_BOUND('',#643,.T.);
#706=FACE_BOUND('',#644,.T.);
#707=FACE_BOUND('',#645,.T.);
#708=FACE_BOUND('',#646,.T.);
#709=FACE_BOUND('',#647,.T.);
#710=FACE_BOUND('',#648,.T.);
#711=FACE_BOUND('',#649,.T.);
#712=FACE_BOUND('',#650,.T.);
#713=FACE_BOUND('',#651,.T.);
#714=FACE_BOUND('',#652,.T.);
#715=FACE_BOUND('',#653,.T.);
#716=FACE_BOUND('',#654,.T.);
#717=FACE_BOUND('',#655,.T.);
#718=FACE_BOUND('',#656,.T.);
#719=FACE_BOUND('',#657,.T.);
#720=FACE_BOUND('',#658,.T.);
#721=FACE_BOUND('',#659,.T.);
#722=FACE_BOUND('',#660,.T.);
#723=FACE_BOUND('',#661,.T.);
#724=FACE_BOUND('',#662,.T.);
#725=FACE_BOUND('',#663,.T.);
#726=FACE_BOUND('',#664,.T.);
#727=FACE_BOUND('',#665,.T.);
#728=FACE_BOUND('',#666,.T.);
#729=FACE_BOUND('',#667,.T.);
#730=FACE_BOUND('',#668,.T.);
#731=FACE_BOUND('',#669,.T.);
#732=FACE_BOUND('',#670,.T.);
#733=FACE_BOUND('',#671,.T.);
#734=FACE_BOUND('',#672,.T.);
#735=FACE_BOUND('',#673,.T.);
#736=FACE_BOUND('',#674,.T.);
#737=FACE_BOUND('',#675,.T.);
#738=FACE_BOUND('',#676,.T.);
#739=FACE_BOUND('',#677,.T.);
#740=FACE_BOUND('',#678,.T.);
#741=FACE_BOUND('',#679,.T.);
#742=FACE_BOUND('',#680,.T.);
#743=FACE_BOUND('',#681,.T.);
#744=FACE_BOUND('',#682,.T.);
#745=FACE_BOUND('',#683,.T.);
#746=FACE_BOUND('',#684,.T.);
#747=FACE_BOUND('',#685,.T.);
#748=FACE_BOUND('',#686,.T.);
#749=FACE_BOUND('',#687,.T.);
#750=FACE_BOUND('',#688,.T.);
#751=FACE_BOUND('',#689,.T.);
#752=FACE_BOUND('',#690,.T.);
#753=FACE_BOUND('',#691,.T.);
#754=FACE_BOUND('',#692,.T.);
#755=FACE_BOUND('',#693,.T.);
#756=PLANE('',#837);
#757=PLANE('',#838);
#758=PLANE('',#839);
#759=PLANE('',#840);
#760=PLANE('',#841);
#761=PLANE('',#842);
#762=PLANE('',#843);
#763=PLANE('',#844);
#764=PLANE('',#848);
#765=PLANE('',#852);
#766=PLANE('',#856);
#767=PLANE('',#857);
#768=PLANE('',#873);
#769=PLANE('',#874);
#770=PLANE('',#883);
#771=PLANE('',#900);
#772=PLANE('',#901);
#773=PLANE('',#902);
#774=PLANE('',#903);
#775=PLANE('',#904);
#776=PLANE('',#905);
#777=PLANE('',#906);
#778=PLANE('',#907);
#779=PLANE('',#908);
#780=ADVANCED_FACE('',(#694,#695),#756,.F.);
#781=ADVANCED_FACE('',(#696),#757,.T.);
#782=ADVANCED_FACE('',(#697),#758,.F.);
#783=ADVANCED_FACE('',(#698),#759,.F.);
#784=ADVANCED_FACE('',(#699),#760,.T.);
#785=ADVANCED_FACE('',(#700),#761,.T.);
#786=ADVANCED_FACE('',(#701),#762,.T.);
#787=ADVANCED_FACE('',(#702),#763,.F.);
#788=ADVANCED_FACE('',(#703),#48,.T.);
#789=ADVANCED_FACE('',(#704),#764,.F.);
#790=ADVANCED_FACE('',(#705),#49,.T.);
#791=ADVANCED_FACE('',(#706),#765,.T.);
#792=ADVANCED_FACE('',(#707),#50,.T.);
#793=ADVANCED_FACE('',(#708),#766,.T.);
#794=ADVANCED_FACE('',(#709),#767,.T.);
#795=ADVANCED_FACE('',(#710,#711),#51,.F.);
#796=ADVANCED_FACE('',(#712,#713),#52,.F.);
#797=ADVANCED_FACE('',(#714,#715),#53,.F.);
#798=ADVANCED_FACE('',(#716,#717),#54,.F.);
#799=ADVANCED_FACE('',(#718),#55,.T.);
#800=ADVANCED_FACE('',(#719),#768,.T.);
#801=ADVANCED_FACE('',(#720,#721,#722,#723,#724,#725,#726),#769,.T.);
#802=ADVANCED_FACE('',(#727,#728,#729,#730,#731,#732,#733),#770,.F.);
#803=ADVANCED_FACE('',(#734),#56,.F.);
#804=ADVANCED_FACE('',(#735),#57,.F.);
#805=ADVANCED_FACE('',(#736),#58,.F.);
#806=ADVANCED_FACE('',(#737),#59,.F.);
#807=ADVANCED_FACE('',(#738),#60,.F.);
#808=ADVANCED_FACE('',(#739),#61,.F.);
#809=ADVANCED_FACE('',(#740),#62,.F.);
#810=ADVANCED_FACE('',(#741),#63,.F.);
#811=ADVANCED_FACE('',(#742),#771,.T.);
#812=ADVANCED_FACE('',(#743),#772,.T.);
#813=ADVANCED_FACE('',(#744),#773,.F.);
#814=ADVANCED_FACE('',(#745),#774,.T.);
#815=ADVANCED_FACE('',(#746),#775,.F.);
#816=ADVANCED_FACE('',(#747),#776,.F.);
#817=ADVANCED_FACE('',(#748),#777,.T.);
#818=ADVANCED_FACE('',(#749),#778,.F.);
#819=ADVANCED_FACE('',(#750,#751),#779,.T.);
#820=ADVANCED_FACE('',(#752),#64,.T.);
#821=ADVANCED_FACE('',(#753),#65,.T.);
#822=ADVANCED_FACE('',(#754),#66,.T.);
#823=ADVANCED_FACE('',(#755),#67,.T.);
#824=CLOSED_SHELL('',(#780,#781,#782,#783,#784,#785,#786,#787,#788,#789,
#790,#791,#792,#793,#794,#795,#796,#797,#798,#799,#800,#801,#802,#803,#804,
#805,#806,#807,#808,#809,#810,#811,#812,#813,#814,#815,#816,#817,#818,#819,
#820,#821,#822,#823));
#825=STYLED_ITEM('',(#826),#833);
#826=PRESENTATION_STYLE_ASSIGNMENT((#827));
#827=SURFACE_STYLE_USAGE(.BOTH.,#828);
#828=SURFACE_SIDE_STYLE('',(#829));
#829=SURFACE_STYLE_FILL_AREA(#830);
#830=FILL_AREA_STYLE('',(#831));
#831=FILL_AREA_STYLE_COLOUR('',#832);
#832=COLOUR_RGB('',0.917647058823529,0.917647058823529,0.917647058823529);
#833=MANIFOLD_SOLID_BREP('top frame',#824);
#834=SHAPE_DEFINITION_REPRESENTATION(#1394,#835);
#835=SHAPE_REPRESENTATION('top frame',(#836),#1389);
#836=AXIS2_PLACEMENT_3D('',#1155,#917,#918);
#837=AXIS2_PLACEMENT_3D('',#1156,#919,#920);
#838=AXIS2_PLACEMENT_3D('',#1173,#929,#930);
#839=AXIS2_PLACEMENT_3D('',#1182,#935,#936);
#840=AXIS2_PLACEMENT_3D('',#1188,#940,#941);
#841=AXIS2_PLACEMENT_3D('',#1194,#945,#946);
#842=AXIS2_PLACEMENT_3D('',#1200,#950,#951);
#843=AXIS2_PLACEMENT_3D('',#1204,#954,#955);
#844=AXIS2_PLACEMENT_3D('',#1208,#958,#959);
#845=AXIS2_PLACEMENT_3D('',#1217,#964,#965);
#846=AXIS2_PLACEMENT_3D('',#1218,#966,#967);
#847=AXIS2_PLACEMENT_3D('',#1223,#969,#970);
#848=AXIS2_PLACEMENT_3D('',#1226,#972,#973);
#849=AXIS2_PLACEMENT_3D('',#1235,#978,#979);
#850=AXIS2_PLACEMENT_3D('',#1236,#980,#981);
#851=AXIS2_PLACEMENT_3D('',#1241,#983,#984);
#852=AXIS2_PLACEMENT_3D('',#1244,#986,#987);
#853=AXIS2_PLACEMENT_3D('',#1253,#992,#993);
#854=AXIS2_PLACEMENT_3D('',#1254,#994,#995);
#855=AXIS2_PLACEMENT_3D('',#1259,#997,#998);
#856=AXIS2_PLACEMENT_3D('',#1262,#1000,#1001);
#857=AXIS2_PLACEMENT_3D('',#1271,#1006,#1007);
#858=AXIS2_PLACEMENT_3D('',#1273,#1009,#1010);
#859=AXIS2_PLACEMENT_3D('',#1274,#1011,#1012);
#860=AXIS2_PLACEMENT_3D('',#1276,#1013,#1014);
#861=AXIS2_PLACEMENT_3D('',#1278,#1015,#1016);
#862=AXIS2_PLACEMENT_3D('',#1279,#1017,#1018);
#863=AXIS2_PLACEMENT_3D('',#1281,#1019,#1020);
#864=AXIS2_PLACEMENT_3D('',#1283,#1021,#1022);
#865=AXIS2_PLACEMENT_3D('',#1284,#1023,#1024);
#866=AXIS2_PLACEMENT_3D('',#1286,#1025,#1026);
#867=AXIS2_PLACEMENT_3D('',#1288,#1027,#1028);
#868=AXIS2_PLACEMENT_3D('',#1289,#1029,#1030);
#869=AXIS2_PLACEMENT_3D('',#1291,#1031,#1032);
#870=AXIS2_PLACEMENT_3D('',#1293,#1033,#1034);
#871=AXIS2_PLACEMENT_3D('',#1294,#1035,#1036);
#872=AXIS2_PLACEMENT_3D('',#1299,#1038,#1039);
#873=AXIS2_PLACEMENT_3D('',#1302,#1041,#1042);
#874=AXIS2_PLACEMENT_3D('',#1305,#1045,#1046);
#875=AXIS2_PLACEMENT_3D('',#1314,#1051,#1052);
#876=AXIS2_PLACEMENT_3D('',#1315,#1053,#1054);
#877=AXIS2_PLACEMENT_3D('',#1316,#1055,#1056);
#878=AXIS2_PLACEMENT_3D('',#1317,#1057,#1058);
#879=AXIS2_PLACEMENT_3D('',#1318,#1059,#1060);
#880=AXIS2_PLACEMENT_3D('',#1319,#1061,#1062);
#881=AXIS2_PLACEMENT_3D('',#1320,#1063,#1064);
#882=AXIS2_PLACEMENT_3D('',#1321,#1065,#1066);
#883=AXIS2_PLACEMENT_3D('',#1322,#1067,#1068);
#884=AXIS2_PLACEMENT_3D('',#1331,#1073,#1074);
#885=AXIS2_PLACEMENT_3D('',#1332,#1075,#1076);
#886=AXIS2_PLACEMENT_3D('',#1333,#1077,#1078);
#887=AXIS2_PLACEMENT_3D('',#1334,#1079,#1080);
#888=AXIS2_PLACEMENT_3D('',#1335,#1081,#1082);
#889=AXIS2_PLACEMENT_3D('',#1336,#1083,#1084);
#890=AXIS2_PLACEMENT_3D('',#1337,#1085,#1086);
#891=AXIS2_PLACEMENT_3D('',#1338,#1087,#1088);
#892=AXIS2_PLACEMENT_3D('',#1339,#1089,#1090);
#893=AXIS2_PLACEMENT_3D('',#1340,#1091,#1092);
#894=AXIS2_PLACEMENT_3D('',#1341,#1093,#1094);
#895=AXIS2_PLACEMENT_3D('',#1342,#1095,#1096);
#896=AXIS2_PLACEMENT_3D('',#1343,#1097,#1098);
#897=AXIS2_PLACEMENT_3D('',#1344,#1099,#1100);
#898=AXIS2_PLACEMENT_3D('',#1345,#1101,#1102);
#899=AXIS2_PLACEMENT_3D('',#1346,#1103,#1104);
#900=AXIS2_PLACEMENT_3D('',#1347,#1105,#1106);
#901=AXIS2_PLACEMENT_3D('',#1353,#1110,#1111);
#902=AXIS2_PLACEMENT_3D('',#1357,#1114,#1115);
#903=AXIS2_PLACEMENT_3D('',#1361,#1118,#1119);
#904=AXIS2_PLACEMENT_3D('',#1367,#1123,#1124);
#905=AXIS2_PLACEMENT_3D('',#1371,#1127,#1128);
#906=AXIS2_PLACEMENT_3D('',#1375,#1131,#1132);
#907=AXIS2_PLACEMENT_3D('',#1377,#1134,#1135);
#908=AXIS2_PLACEMENT_3D('',#1379,#1137,#1138);
#909=AXIS2_PLACEMENT_3D('',#1380,#1139,#1140);
#910=AXIS2_PLACEMENT_3D('',#1381,#1141,#1142);
#911=AXIS2_PLACEMENT_3D('',#1382,#1143,#1144);
#912=AXIS2_PLACEMENT_3D('',#1383,#1145,#1146);
#913=AXIS2_PLACEMENT_3D('',#1384,#1147,#1148);
#914=AXIS2_PLACEMENT_3D('',#1385,#1149,#1150);
#915=AXIS2_PLACEMENT_3D('',#1386,#1151,#1152);
#916=AXIS2_PLACEMENT_3D('',#1387,#1153,#1154);
#917=DIRECTION('',(0.,0.,1.));
#918=DIRECTION('',(1.,0.,0.));
#919=DIRECTION('',(0.,0.,1.));
#920=DIRECTION('',(1.,0.,0.));
#921=DIRECTION('',(-1.,0.,0.));
#922=DIRECTION('',(6.75866289341613E-17,-1.,0.));
#923=DIRECTION('',(-1.,0.,0.));
#924=DIRECTION('',(6.75866289341613E-17,-1.,0.));
#925=DIRECTION('',(-1.99250363356991E-16,-1.,0.));
#926=DIRECTION('',(1.,0.,0.));
#927=DIRECTION('',(1.99250363356991E-16,1.,0.));
#928=DIRECTION('',(-1.,0.,0.));
#929=DIRECTION('',(0.,-1.,0.));
#930=DIRECTION('',(0.,0.,-1.));
#931=DIRECTION('',(-1.,0.,0.));
#932=DIRECTION('',(0.,0.,-1.));
#933=DIRECTION('',(-1.,0.,0.));
#934=DIRECTION('',(0.,0.,-1.));
#935=DIRECTION('',(1.,0.,0.));
#936=DIRECTION('',(0.,0.,-1.));
#937=DIRECTION('',(0.,-1.,0.));
#938=DIRECTION('',(0.,0.,-1.));
#939=DIRECTION('',(0.,-1.,0.));
#940=DIRECTION('',(0.,-1.,0.));
#941=DIRECTION('',(0.,0.,-1.));
#942=DIRECTION('',(-1.,0.,0.));
#943=DIRECTION('',(0.,0.,-1.));
#944=DIRECTION('',(-1.,0.,0.));
#945=DIRECTION('',(1.,-1.99250363356991E-16,0.));
#946=DIRECTION('',(1.99250363356991E-16,1.,0.));
#947=DIRECTION('',(0.,0.,-1.));
#948=DIRECTION('',(-1.99250363356991E-16,-1.,0.));
#949=DIRECTION('',(0.,0.,-1.));
#950=DIRECTION('',(0.,-1.,0.));
#951=DIRECTION('',(0.,0.,-1.));
#952=DIRECTION('',(0.,0.,-1.));
#953=DIRECTION('',(-1.,0.,0.));
#954=DIRECTION('',(-1.,1.99250363356991E-16,0.));
#955=DIRECTION('',(-1.99250363356991E-16,-1.,0.));
#956=DIRECTION('',(0.,0.,-1.));
#957=DIRECTION('',(1.99250363356991E-16,1.,0.));
#958=DIRECTION('',(0.,-1.,0.));
#959=DIRECTION('',(0.,0.,-1.));
#960=DIRECTION('',(-1.,0.,0.));
#961=DIRECTION('',(0.,0.,1.));
#962=DIRECTION('',(-1.,0.,0.));
#963=DIRECTION('',(0.,0.,1.));
#964=DIRECTION('',(0.,0.,-1.));
#965=DIRECTION('',(-1.,0.,0.));
#966=DIRECTION('',(0.,0.,1.));
#967=DIRECTION('',(1.,0.,0.));
#968=DIRECTION('',(0.,0.,-1.));
#969=DIRECTION('',(0.,0.,1.));
#970=DIRECTION('',(1.,0.,0.));
#971=DIRECTION('',(0.,0.,-1.));
#972=DIRECTION('',(1.,0.,0.));
#973=DIRECTION('',(0.,0.,-1.));
#974=DIRECTION('',(0.,-1.,0.));
#975=DIRECTION('',(0.,0.,1.));
#976=DIRECTION('',(0.,-1.,0.));
#977=DIRECTION('',(0.,0.,1.));
#978=DIRECTION('',(0.,0.,-1.));
#979=DIRECTION('',(-1.,0.,0.));
#980=DIRECTION('',(0.,0.,1.));
#981=DIRECTION('',(1.,0.,0.));
#982=DIRECTION('',(0.,0.,-1.));
#983=DIRECTION('',(0.,0.,1.));
#984=DIRECTION('',(1.,0.,0.));
#985=DIRECTION('',(0.,0.,-1.));
#986=DIRECTION('',(0.,-1.,0.));
#987=DIRECTION('',(0.,0.,-1.));
#988=DIRECTION('',(-1.,0.,0.));
#989=DIRECTION('',(0.,0.,-1.));
#990=DIRECTION('',(-1.,0.,0.));
#991=DIRECTION('',(0.,0.,-1.));
#992=DIRECTION('',(0.,0.,-1.));
#993=DIRECTION('',(-1.,0.,0.));
#994=DIRECTION('',(0.,0.,1.));
#995=DIRECTION('',(1.,0.,0.));
#996=DIRECTION('',(0.,0.,-1.));
#997=DIRECTION('',(0.,0.,1.));
#998=DIRECTION('',(1.,0.,0.));
#999=DIRECTION('',(0.,0.,-1.));
#1000=DIRECTION('',(1.,0.,0.));
#1001=DIRECTION('',(0.,0.,-1.));
#1002=DIRECTION('',(0.,-1.,0.));
#1003=DIRECTION('',(0.,0.,-1.));
#1004=DIRECTION('',(0.,-1.,0.));
#1005=DIRECTION('',(0.,0.,-1.));
#1006=DIRECTION('',(0.,1.,0.));
#1007=DIRECTION('',(0.,0.,1.));
#1008=DIRECTION('',(1.,0.,0.));
#1009=DIRECTION('',(0.,0.,-1.));
#1010=DIRECTION('',(-1.,0.,0.));
#1011=DIRECTION('',(0.,0.,1.));
#1012=DIRECTION('',(1.,0.,0.));
#1013=DIRECTION('',(0.,0.,1.));
#1014=DIRECTION('',(1.,0.,0.));
#1015=DIRECTION('',(0.,0.,-1.));
#1016=DIRECTION('',(-1.,0.,0.));
#1017=DIRECTION('',(0.,0.,1.));
#1018=DIRECTION('',(1.,0.,0.));
#1019=DIRECTION('',(0.,0.,1.));
#1020=DIRECTION('',(1.,0.,0.));
#1021=DIRECTION('',(0.,0.,-1.));
#1022=DIRECTION('',(-1.,0.,0.));
#1023=DIRECTION('',(0.,0.,1.));
#1024=DIRECTION('',(1.,0.,0.));
#1025=DIRECTION('',(0.,0.,1.));
#1026=DIRECTION('',(1.,0.,0.));
#1027=DIRECTION('',(0.,0.,-1.));
#1028=DIRECTION('',(-1.,0.,0.));
#1029=DIRECTION('',(0.,0.,1.));
#1030=DIRECTION('',(1.,0.,0.));
#1031=DIRECTION('',(0.,0.,1.));
#1032=DIRECTION('',(1.,0.,0.));
#1033=DIRECTION('',(0.,0.,-1.));
#1034=DIRECTION('',(-1.,0.,0.));
#1035=DIRECTION('',(0.,0.,1.));
#1036=DIRECTION('',(1.,0.,0.));
#1037=DIRECTION('',(0.,0.,-1.));
#1038=DIRECTION('',(0.,0.,1.));
#1039=DIRECTION('',(1.,0.,0.));
#1040=DIRECTION('',(0.,0.,-1.));
#1041=DIRECTION('',(1.,0.,0.));
#1042=DIRECTION('',(0.,0.,-1.));
#1043=DIRECTION('',(0.,-1.,0.));
#1044=DIRECTION('',(0.,-1.,0.));
#1045=DIRECTION('',(0.,0.,1.));
#1046=DIRECTION('',(1.,0.,0.));
#1047=DIRECTION('',(-1.99250363356991E-16,-1.,0.));
#1048=DIRECTION('',(-1.,0.,0.));
#1049=DIRECTION('',(1.99250363356991E-16,1.,0.));
#1050=DIRECTION('',(1.,0.,0.));
#1051=DIRECTION('',(0.,0.,1.));
#1052=DIRECTION('',(1.,0.,0.));
#1053=DIRECTION('',(0.,0.,1.));
#1054=DIRECTION('',(1.,0.,0.));
#1055=DIRECTION('',(0.,0.,1.));
#1056=DIRECTION('',(1.,0.,0.));
#1057=DIRECTION('',(0.,0.,1.));
#1058=DIRECTION('',(1.,0.,0.));
#1059=DIRECTION('',(0.,0.,1.));
#1060=DIRECTION('',(1.,0.,0.));
#1061=DIRECTION('',(0.,0.,1.));
#1062=DIRECTION('',(1.,0.,0.));
#1063=DIRECTION('',(0.,0.,1.));
#1064=DIRECTION('',(1.,0.,0.));
#1065=DIRECTION('',(0.,0.,1.));
#1066=DIRECTION('',(1.,0.,0.));
#1067=DIRECTION('',(0.,0.,1.));
#1068=DIRECTION('',(1.,0.,0.));
#1069=DIRECTION('',(-1.,0.,0.));
#1070=DIRECTION('',(4.39170500247293E-17,-1.,0.));
#1071=DIRECTION('',(-1.,0.,0.));
#1072=DIRECTION('',(4.39170500247293E-17,-1.,0.));
#1073=DIRECTION('',(0.,0.,1.));
#1074=DIRECTION('',(1.,0.,0.));
#1075=DIRECTION('',(0.,0.,1.));
#1076=DIRECTION('',(1.,0.,0.));
#1077=DIRECTION('',(0.,0.,1.));
#1078=DIRECTION('',(1.,0.,0.));
#1079=DIRECTION('',(0.,0.,1.));
#1080=DIRECTION('',(1.,0.,0.));
#1081=DIRECTION('',(0.,0.,1.));
#1082=DIRECTION('',(1.,0.,0.));
#1083=DIRECTION('',(0.,0.,1.));
#1084=DIRECTION('',(1.,0.,0.));
#1085=DIRECTION('',(0.,0.,1.));
#1086=DIRECTION('',(1.,0.,0.));
#1087=DIRECTION('',(0.,0.,1.));
#1088=DIRECTION('',(1.,0.,0.));
#1089=DIRECTION('',(0.,0.,-1.));
#1090=DIRECTION('',(-1.,0.,0.));
#1091=DIRECTION('',(0.,0.,-1.));
#1092=DIRECTION('',(-1.,0.,0.));
#1093=DIRECTION('',(0.,0.,-1.));
#1094=DIRECTION('',(-1.,0.,0.));
#1095=DIRECTION('',(0.,0.,-1.));
#1096=DIRECTION('',(-1.,0.,0.));
#1097=DIRECTION('',(0.,0.,-1.));
#1098=DIRECTION('',(-1.,0.,0.));
#1099=DIRECTION('',(0.,0.,-1.));
#1100=DIRECTION('',(-1.,0.,0.));
#1101=DIRECTION('',(0.,0.,-1.));
#1102=DIRECTION('',(-1.,0.,0.));
#1103=DIRECTION('',(0.,0.,-1.));
#1104=DIRECTION('',(-1.,0.,0.));
#1105=DIRECTION('',(-1.,-4.39170500247293E-17,0.));
#1106=DIRECTION('',(4.39170500247293E-17,-1.,0.));
#1107=DIRECTION('',(0.,0.,1.));
#1108=DIRECTION('',(4.39170500247293E-17,-1.,0.));
#1109=DIRECTION('',(0.,0.,1.));
#1110=DIRECTION('',(0.,1.,0.));
#1111=DIRECTION('',(0.,0.,1.));
#1112=DIRECTION('',(0.,0.,1.));
#1113=DIRECTION('',(-1.,0.,0.));
#1114=DIRECTION('',(-1.,-4.39170500247293E-17,0.));
#1115=DIRECTION('',(4.39170500247293E-17,-1.,0.));
#1116=DIRECTION('',(0.,0.,1.));
#1117=DIRECTION('',(4.39170500247293E-17,-1.,0.));
#1118=DIRECTION('',(-1.,-6.75866289341613E-17,0.));
#1119=DIRECTION('',(6.75866289341613E-17,-1.,0.));
#1120=DIRECTION('',(0.,0.,1.));
#1121=DIRECTION('',(6.75866289341613E-17,-1.,0.));
#1122=DIRECTION('',(0.,0.,1.));
#1123=DIRECTION('',(0.,1.,0.));
#1124=DIRECTION('',(0.,0.,1.));
#1125=DIRECTION('',(0.,0.,1.));
#1126=DIRECTION('',(-1.,0.,0.));
#1127=DIRECTION('',(-1.,-6.75866289341613E-17,0.));
#1128=DIRECTION('',(6.75866289341613E-17,-1.,0.));
#1129=DIRECTION('',(0.,0.,1.));
#1130=DIRECTION('',(6.75866289341613E-17,-1.,0.));
#1131=DIRECTION('',(0.,1.,0.));
#1132=DIRECTION('',(0.,0.,1.));
#1133=DIRECTION('',(-1.,0.,0.));
#1134=DIRECTION('',(0.,1.,0.));
#1135=DIRECTION('',(0.,0.,1.));
#1136=DIRECTION('',(-1.,0.,0.));
#1137=DIRECTION('',(0.,0.,-1.));
#1138=DIRECTION('',(1.,0.,0.));
#1139=DIRECTION('',(1.,0.,0.));
#1140=DIRECTION('',(0.,0.,-1.));
#1141=DIRECTION('',(0.707106781186548,-0.707106781186548,0.));
#1142=DIRECTION('',(-0.707106781186548,-0.707106781186548,0.));
#1143=DIRECTION('',(0.707106781186548,0.707106781186548,0.));
#1144=DIRECTION('',(0.707106781186548,-0.707106781186548,0.));
#1145=DIRECTION('',(1.99250363356991E-16,1.,0.));
#1146=DIRECTION('',(-1.,1.99250363356991E-16,0.));
#1147=DIRECTION('',(-0.707106781186548,0.707106781186548,0.));
#1148=DIRECTION('',(-0.707106781186548,-0.707106781186548,0.));
#1149=DIRECTION('',(-1.99250363356991E-16,-1.,0.));
#1150=DIRECTION('',(1.,-1.99250363356991E-16,0.));
#1151=DIRECTION('',(-0.707106781186548,-0.707106781186548,0.));
#1152=DIRECTION('',(-0.707106781186548,0.707106781186548,0.));
#1153=DIRECTION('',(-1.,0.,0.));
#1154=DIRECTION('',(0.,0.,1.));
#1155=CARTESIAN_POINT('',(0.,0.,0.));
#1156=CARTESIAN_POINT('',(-1.38777878078145E-17,-0.00775,0.));
#1157=CARTESIAN_POINT('',(-5.20417042793042E-18,0.0385,0.));
#1158=CARTESIAN_POINT('',(0.0155,0.0385,0.));
#1159=CARTESIAN_POINT('',(-0.0155,0.0385,0.));
#1160=CARTESIAN_POINT('',(0.0155,1.38777878078145E-17,0.));
#1161=CARTESIAN_POINT('',(0.0155,-0.0385,0.));
#1162=CARTESIAN_POINT('',(0.,-0.0385,0.));
#1163=CARTESIAN_POINT('',(-0.0155,-0.0385,0.));
#1164=CARTESIAN_POINT('',(-0.0155,1.38777878078145E-17,0.));
#1165=CARTESIAN_POINT('',(-0.0142,-0.001875,0.));
#1166=CARTESIAN_POINT('',(-0.0142,0.03295,0.));
#1167=CARTESIAN_POINT('',(-0.0142,-0.0367,0.));
#1168=CARTESIAN_POINT('',(-1.04083408558608E-17,-0.0367,0.));
#1169=CARTESIAN_POINT('',(0.0142,-0.0367,0.));
#1170=CARTESIAN_POINT('',(0.0142,-0.001875,0.));
#1171=CARTESIAN_POINT('',(0.0142,0.03295,0.));
#1172=CARTESIAN_POINT('',(3.46944695195361E-18,0.03295,0.));
#1173=CARTESIAN_POINT('',(0.007,-0.040425,0.0016));
#1174=CARTESIAN_POINT('',(0.007,-0.040425,0.));
#1175=CARTESIAN_POINT('',(0.014,-0.040425,0.));
#1176=CARTESIAN_POINT('',(-0.014,-0.040425,0.));
#1177=CARTESIAN_POINT('',(0.014,-0.040425,0.0016));
#1178=CARTESIAN_POINT('',(0.014,-0.040425,0.0016));
#1179=CARTESIAN_POINT('',(0.007,-0.040425,0.0016));
#1180=CARTESIAN_POINT('',(-0.014,-0.040425,0.0016));
#1181=CARTESIAN_POINT('',(-0.014,-0.040425,0.0016));
#1182=CARTESIAN_POINT('',(0.014,-0.045925,0.0016));
#1183=CARTESIAN_POINT('',(0.014,-0.045925,0.));
#1184=CARTESIAN_POINT('',(0.014,-0.051425,0.));
#1185=CARTESIAN_POINT('',(0.014,-0.051425,0.0016));
#1186=CARTESIAN_POINT('',(0.014,-0.051425,0.0016));
#1187=CARTESIAN_POINT('',(0.014,-0.045925,0.0016));
#1188=CARTESIAN_POINT('',(0.007,-0.051425,0.0016));
#1189=CARTESIAN_POINT('',(0.007,-0.051425,0.));
#1190=CARTESIAN_POINT('',(-0.014,-0.051425,0.));
#1191=CARTESIAN_POINT('',(-0.014,-0.051425,0.0016));
#1192=CARTESIAN_POINT('',(-0.014,-0.051425,0.0016));
#1193=CARTESIAN_POINT('',(0.007,-0.051425,0.0016));
#1194=CARTESIAN_POINT('',(-0.0142,-0.001875,0.0016));
#1195=CARTESIAN_POINT('',(-0.0142,0.03295,0.0016));
#1196=CARTESIAN_POINT('',(-0.0142,0.03295,0.001));
#1197=CARTESIAN_POINT('',(-0.0142,-0.001875,0.001));
#1198=CARTESIAN_POINT('',(-0.0142,-0.0367,0.001));
#1199=CARTESIAN_POINT('',(-0.0142,-0.0367,0.0016));
#1200=CARTESIAN_POINT('',(3.46944695195361E-18,0.03295,0.0016));
#1201=CARTESIAN_POINT('',(0.0142,0.03295,0.0016));
#1202=CARTESIAN_POINT('',(0.0142,0.03295,0.001));
#1203=CARTESIAN_POINT('',(3.46944695195361E-18,0.03295,0.001));
#1204=CARTESIAN_POINT('',(0.0142,-0.001875,0.0016));
#1205=CARTESIAN_POINT('',(0.0142,-0.0367,0.0016));
#1206=CARTESIAN_POINT('',(0.0142,-0.0367,0.001));
#1207=CARTESIAN_POINT('',(0.0142,-0.001875,0.001));
#1208=CARTESIAN_POINT('',(-2.77555756156289E-17,0.040925,0.0016));
#1209=CARTESIAN_POINT('',(-2.77555756156289E-17,0.040925,0.));
#1210=CARTESIAN_POINT('',(0.00973996625977137,0.040925,0.));
#1211=CARTESIAN_POINT('',(-0.00973996625977142,0.040925,0.));
#1212=CARTESIAN_POINT('',(-0.00973996625977142,0.040925,0.0016));
#1213=CARTESIAN_POINT('',(-0.00973996625977142,0.040925,0.0016));
#1214=CARTESIAN_POINT('',(-2.77555756156289E-17,0.040925,0.0016));
#1215=CARTESIAN_POINT('',(0.00973996625977137,0.040925,0.0016));
#1216=CARTESIAN_POINT('',(0.00973996625977137,0.040925,0.));
#1217=CARTESIAN_POINT('',(-0.0184958961218186,0.0404581790484346,0.0016));
#1218=CARTESIAN_POINT('',(-0.0184958961218186,0.0404581790484346,0.));
#1219=CARTESIAN_POINT('',(-0.0172517559537529,0.042797968620641,0.));
#1220=CARTESIAN_POINT('',(-0.0207948036433833,0.0391400272334704,0.));
#1221=CARTESIAN_POINT('',(-0.0207948036433833,0.0391400272334704,0.0016));
#1222=CARTESIAN_POINT('',(-0.0207948036433833,0.0391400272334704,0.0016));
#1223=CARTESIAN_POINT('',(-0.0184958961218186,0.0404581790484346,0.0016));
#1224=CARTESIAN_POINT('',(-0.0172517559537529,0.042797968620641,0.0016));
#1225=CARTESIAN_POINT('',(-0.0172517559537529,0.042797968620641,0.0016));
#1226=CARTESIAN_POINT('',(-0.018675,-0.00775,0.0016));
#1227=CARTESIAN_POINT('',(-0.018675,-0.00775,0.));
#1228=CARTESIAN_POINT('',(-0.018675,0.031181374765762,0.));
#1229=CARTESIAN_POINT('',(-0.018675,-0.0466813747657621,0.));
#1230=CARTESIAN_POINT('',(-0.018675,-0.0466813747657621,0.0016));
#1231=CARTESIAN_POINT('',(-0.018675,-0.0466813747657621,0.0016));
#1232=CARTESIAN_POINT('',(-0.018675,-0.00775,0.0016));
#1233=CARTESIAN_POINT('',(-0.018675,0.031181374765762,0.0016));
#1234=CARTESIAN_POINT('',(-0.018675,0.031181374765762,0.));
#1235=CARTESIAN_POINT('',(-0.0184958961218185,-0.0559581790484347,0.0016));
#1236=CARTESIAN_POINT('',(-0.0184958961218185,-0.0559581790484347,0.));
#1237=CARTESIAN_POINT('',(-0.0207948036433832,-0.0546400272334705,0.));
#1238=CARTESIAN_POINT('',(-0.0172517559537528,-0.058297968620641,0.));
#1239=CARTESIAN_POINT('',(-0.0172517559537528,-0.058297968620641,0.0016));
#1240=CARTESIAN_POINT('',(-0.0172517559537528,-0.058297968620641,0.0016));
#1241=CARTESIAN_POINT('',(-0.0184958961218185,-0.0559581790484347,0.0016));
#1242=CARTESIAN_POINT('',(-0.0207948036433832,-0.0546400272334705,0.0016));
#1243=CARTESIAN_POINT('',(-0.0207948036433832,-0.0546400272334705,0.0016));
#1244=CARTESIAN_POINT('',(6.93889390390723E-18,-0.056425,0.0016));
#1245=CARTESIAN_POINT('',(6.93889390390723E-18,-0.056425,0.));
#1246=CARTESIAN_POINT('',(0.00973996625977138,-0.056425,0.));
#1247=CARTESIAN_POINT('',(-0.00973996625977134,-0.056425,0.));
#1248=CARTESIAN_POINT('',(0.00973996625977138,-0.056425,0.0016));
#1249=CARTESIAN_POINT('',(0.00973996625977138,-0.056425,0.0016));
#1250=CARTESIAN_POINT('',(6.93889390390723E-18,-0.056425,0.0016));
#1251=CARTESIAN_POINT('',(-0.00973996625977134,-0.056425,0.0016));
#1252=CARTESIAN_POINT('',(-0.00973996625977134,-0.056425,0.0016));
#1253=CARTESIAN_POINT('',(0.0184958961218185,-0.0559581790484347,0.0016));
#1254=CARTESIAN_POINT('',(0.0184958961218185,-0.0559581790484347,0.));
#1255=CARTESIAN_POINT('',(0.0172517559537528,-0.058297968620641,0.));
#1256=CARTESIAN_POINT('',(0.0207948036433832,-0.0546400272334705,0.));
#1257=CARTESIAN_POINT('',(0.0207948036433832,-0.0546400272334705,0.0016));
#1258=CARTESIAN_POINT('',(0.0207948036433832,-0.0546400272334705,0.0016));
#1259=CARTESIAN_POINT('',(0.0184958961218185,-0.0559581790484347,0.0016));
#1260=CARTESIAN_POINT('',(0.0172517559537528,-0.058297968620641,0.0016));
#1261=CARTESIAN_POINT('',(0.0172517559537528,-0.058297968620641,0.0016));
#1262=CARTESIAN_POINT('',(0.018675,-0.00775,0.0016));
#1263=CARTESIAN_POINT('',(0.018675,-0.00775,0.0016));
#1264=CARTESIAN_POINT('',(0.018675,0.031181374765762,0.0016));
#1265=CARTESIAN_POINT('',(0.018675,-0.046681374765762,0.0016));
#1266=CARTESIAN_POINT('',(0.018675,-0.046681374765762,0.0016));
#1267=CARTESIAN_POINT('',(0.018675,-0.046681374765762,0.));
#1268=CARTESIAN_POINT('',(0.018675,-0.00775,0.));
#1269=CARTESIAN_POINT('',(0.018675,0.031181374765762,0.));
#1270=CARTESIAN_POINT('',(0.018675,0.031181374765762,0.0016));
#1271=CARTESIAN_POINT('',(-1.04083408558608E-17,-0.0367,0.0016));
#1272=CARTESIAN_POINT('',(-1.04083408558608E-17,-0.0367,0.001));
#1273=CARTESIAN_POINT('',(0.0184958961218185,-0.0559581790484347,0.0016));
#1274=CARTESIAN_POINT('',(0.0184958961218185,-0.0559581790484347,0.0016));
#1275=CARTESIAN_POINT('',(0.0201458961218185,-0.0559581790484347,0.0016));
#1276=CARTESIAN_POINT('',(0.0184958961218185,-0.0559581790484347,0.));
#1277=CARTESIAN_POINT('',(0.0201458961218185,-0.0559581790484347,0.));
#1278=CARTESIAN_POINT('',(-0.0184958961218185,-0.0559581790484347,0.0016));
#1279=CARTESIAN_POINT('',(-0.0184958961218185,-0.0559581790484347,0.0016));
#1280=CARTESIAN_POINT('',(-0.0168458961218186,-0.0559581790484347,0.0016));
#1281=CARTESIAN_POINT('',(-0.0184958961218185,-0.0559581790484347,0.));
#1282=CARTESIAN_POINT('',(-0.0168458961218186,-0.0559581790484347,0.));
#1283=CARTESIAN_POINT('',(0.0184958961218185,0.0404581790484346,0.0016));
#1284=CARTESIAN_POINT('',(0.0184958961218185,0.0404581790484346,0.0016));
#1285=CARTESIAN_POINT('',(0.0201458961218185,0.0404581790484346,0.0016));
#1286=CARTESIAN_POINT('',(0.0184958961218185,0.0404581790484346,0.));
#1287=CARTESIAN_POINT('',(0.0201458961218185,0.0404581790484346,0.));
#1288=CARTESIAN_POINT('',(-0.0184958961218185,0.0404581790484346,0.0016));
#1289=CARTESIAN_POINT('',(-0.0184958961218185,0.0404581790484346,0.0016));
#1290=CARTESIAN_POINT('',(-0.0168458961218186,0.0404581790484346,0.0016));
#1291=CARTESIAN_POINT('',(-0.0184958961218185,0.0404581790484346,0.));
#1292=CARTESIAN_POINT('',(-0.0168458961218186,0.0404581790484346,0.));
#1293=CARTESIAN_POINT('',(0.0184958961218185,0.0404581790484346,0.0016));
#1294=CARTESIAN_POINT('',(0.0184958961218185,0.0404581790484346,0.));
#1295=CARTESIAN_POINT('',(0.0207948036433832,0.0391400272334704,0.));
#1296=CARTESIAN_POINT('',(0.0172517559537528,0.042797968620641,0.));
#1297=CARTESIAN_POINT('',(0.0172517559537528,0.042797968620641,0.0016));
#1298=CARTESIAN_POINT('',(0.0172517559537528,0.042797968620641,0.0016));
#1299=CARTESIAN_POINT('',(0.0184958961218185,0.0404581790484346,0.0016));
#1300=CARTESIAN_POINT('',(0.0207948036433832,0.0391400272334704,0.0016));
#1301=CARTESIAN_POINT('',(0.0207948036433832,0.0391400272334704,0.0016));
#1302=CARTESIAN_POINT('',(-0.014,-0.045925,0.0016));
#1303=CARTESIAN_POINT('',(-0.014,-0.045925,0.));
#1304=CARTESIAN_POINT('',(-0.014,-0.045925,0.0016));
#1305=CARTESIAN_POINT('',(-1.38777878078145E-17,-0.00775,0.0016));
#1306=CARTESIAN_POINT('',(-0.0148,-0.00775,0.0016));
#1307=CARTESIAN_POINT('',(-0.0148,-0.0373,0.0016));
#1308=CARTESIAN_POINT('',(-0.0148,0.03355,0.0016));
#1309=CARTESIAN_POINT('',(-1.38777878078145E-17,0.03355,0.0016));
#1310=CARTESIAN_POINT('',(0.0148,0.03355,0.0016));
#1311=CARTESIAN_POINT('',(0.0148,-0.00775,0.0016));
#1312=CARTESIAN_POINT('',(0.0148,-0.0373,0.0016));
#1313=CARTESIAN_POINT('',(-1.38777878078145E-17,-0.0373,0.0016));
#1314=CARTESIAN_POINT('',(0.00973996625977137,0.056925,0.0016));
#1315=CARTESIAN_POINT('',(-0.00973996625977142,0.056925,0.0016));
#1316=CARTESIAN_POINT('',(-0.034675,0.031181374765762,0.0016));
#1317=CARTESIAN_POINT('',(-0.034675,-0.0466813747657621,0.0016));
#1318=CARTESIAN_POINT('',(-0.00973996625977134,-0.072425,0.0016));
#1319=CARTESIAN_POINT('',(0.00973996625977138,-0.072425,0.0016));
#1320=CARTESIAN_POINT('',(0.034675,-0.046681374765762,0.0016));
#1321=CARTESIAN_POINT('',(0.034675,0.031181374765762,0.0016));
#1322=CARTESIAN_POINT('',(-1.38777878078145E-17,-0.00775,0.));
#1323=CARTESIAN_POINT('',(-3.46944695195361E-18,0.0395,0.));
#1324=CARTESIAN_POINT('',(0.0165,0.0395,0.));
#1325=CARTESIAN_POINT('',(-0.0165,0.0395,0.));
#1326=CARTESIAN_POINT('',(-0.0165,1.38777878078145E-17,0.));
#1327=CARTESIAN_POINT('',(-0.0165,-0.0395,0.));
#1328=CARTESIAN_POINT('',(0.,-0.0395,0.));
#1329=CARTESIAN_POINT('',(0.0165,-0.0395,0.));
#1330=CARTESIAN_POINT('',(0.0165,1.38777878078145E-17,0.));
#1331=CARTESIAN_POINT('',(0.00973996625977137,0.056925,0.));
#1332=CARTESIAN_POINT('',(0.034675,0.031181374765762,0.));
#1333=CARTESIAN_POINT('',(0.034675,-0.046681374765762,0.));
#1334=CARTESIAN_POINT('',(0.00973996625977138,-0.072425,0.));
#1335=CARTESIAN_POINT('',(-0.00973996625977134,-0.072425,0.));
#1336=CARTESIAN_POINT('',(-0.034675,-0.0466813747657621,0.));
#1337=CARTESIAN_POINT('',(-0.034675,0.031181374765762,0.));
#1338=CARTESIAN_POINT('',(-0.00973996625977142,0.056925,0.));
#1339=CARTESIAN_POINT('',(0.034675,-0.046681374765762,0.0016));
#1340=CARTESIAN_POINT('',(0.00973996625977138,-0.072425,0.0016));
#1341=CARTESIAN_POINT('',(-0.00973996625977134,-0.072425,0.0016));
#1342=CARTESIAN_POINT('',(-0.034675,-0.0466813747657621,0.0016));
#1343=CARTESIAN_POINT('',(-0.034675,0.031181374765762,0.0016));
#1344=CARTESIAN_POINT('',(-0.00973996625977142,0.056925,0.0016));
#1345=CARTESIAN_POINT('',(0.00973996625977137,0.056925,0.0016));
#1346=CARTESIAN_POINT('',(0.034675,0.031181374765762,0.0016));
#1347=CARTESIAN_POINT('',(-0.0165,1.38777878078145E-17,-0.002));
#1348=CARTESIAN_POINT('',(-0.0165,0.0395,-0.002));
#1349=CARTESIAN_POINT('',(-0.0165,0.0395,-0.002));
#1350=CARTESIAN_POINT('',(-0.0165,1.38777878078145E-17,-0.002));
#1351=CARTESIAN_POINT('',(-0.0165,-0.0395,-0.002));
#1352=CARTESIAN_POINT('',(-0.0165,-0.0395,-0.002));
#1353=CARTESIAN_POINT('',(-3.46944695195361E-18,0.0395,-0.002));
#1354=CARTESIAN_POINT('',(0.0165,0.0395,-0.002));
#1355=CARTESIAN_POINT('',(0.0165,0.0395,-0.002));
#1356=CARTESIAN_POINT('',(-3.46944695195361E-18,0.0395,-0.002));
#1357=CARTESIAN_POINT('',(0.0165,1.38777878078145E-17,-0.002));
#1358=CARTESIAN_POINT('',(0.0165,-0.0395,-0.002));
#1359=CARTESIAN_POINT('',(0.0165,-0.0395,-0.002));
#1360=CARTESIAN_POINT('',(0.0165,1.38777878078145E-17,-0.002));
#1361=CARTESIAN_POINT('',(0.0155,1.38777878078145E-17,-0.002));
#1362=CARTESIAN_POINT('',(0.0155,0.0385,-0.002));
#1363=CARTESIAN_POINT('',(0.0155,0.0385,-0.002));
#1364=CARTESIAN_POINT('',(0.0155,1.38777878078145E-17,-0.002));
#1365=CARTESIAN_POINT('',(0.0155,-0.0385,-0.002));
#1366=CARTESIAN_POINT('',(0.0155,-0.0385,-0.002));
#1367=CARTESIAN_POINT('',(-5.20417042793042E-18,0.0385,-0.002));
#1368=CARTESIAN_POINT('',(-0.0155,0.0385,-0.002));
#1369=CARTESIAN_POINT('',(-0.0155,0.0385,-0.002));
#1370=CARTESIAN_POINT('',(-5.20417042793042E-18,0.0385,-0.002));
#1371=CARTESIAN_POINT('',(-0.0155,1.38777878078145E-17,-0.002));
#1372=CARTESIAN_POINT('',(-0.0155,-0.0385,-0.002));
#1373=CARTESIAN_POINT('',(-0.0155,-0.0385,-0.002));
#1374=CARTESIAN_POINT('',(-0.0155,1.38777878078145E-17,-0.002));
#1375=CARTESIAN_POINT('',(0.,-0.0385,-0.002));
#1376=CARTESIAN_POINT('',(0.,-0.0385,-0.002));
#1377=CARTESIAN_POINT('',(0.,-0.0395,-0.002));
#1378=CARTESIAN_POINT('',(0.,-0.0395,-0.002));
#1379=CARTESIAN_POINT('',(-1.04083408558608E-17,-0.00775,-0.002));
#1380=CARTESIAN_POINT('',(-1.04083408558608E-17,-0.0373,0.001));
#1381=CARTESIAN_POINT('',(-0.0148,-0.0373,0.001));
#1382=CARTESIAN_POINT('',(0.0148,-0.0373,0.001));
#1383=CARTESIAN_POINT('',(0.0148,-0.001875,0.001));
#1384=CARTESIAN_POINT('',(0.0148,0.03355,0.001));
#1385=CARTESIAN_POINT('',(-0.0148,-0.001875,0.001));
#1386=CARTESIAN_POINT('',(-0.0148,0.03355,0.001));
#1387=CARTESIAN_POINT('',(3.46944695195361E-18,0.03355,0.001));
#1388=MECHANICAL_DESIGN_GEOMETRIC_PRESENTATION_REPRESENTATION('',(#825),
#1389);
#1389=(
GEOMETRIC_REPRESENTATION_CONTEXT(3)
GLOBAL_UNCERTAINTY_ASSIGNED_CONTEXT((#1390))
GLOBAL_UNIT_ASSIGNED_CONTEXT((#1393,#1392,#1391))
REPRESENTATION_CONTEXT('top frame','TOP_LEVEL_ASSEMBLY_PART')
);
#1390=UNCERTAINTY_MEASURE_WITH_UNIT(LENGTH_MEASURE(1.E-8),#1393,
'DISTANCE_ACCURACY_VALUE','Maximum Tolerance applied to model');
#1391=(
NAMED_UNIT(*)
SI_UNIT($,.STERADIAN.)
SOLID_ANGLE_UNIT()
);
#1392=(
NAMED_UNIT(*)
PLANE_ANGLE_UNIT()
SI_UNIT($,.RADIAN.)
);
#1393=(
LENGTH_UNIT()
NAMED_UNIT(*)
SI_UNIT($,.METRE.)
);
#1394=PRODUCT_DEFINITION_SHAPE('','',#1395);
#1395=PRODUCT_DEFINITION('','',#1397,#1396);
#1396=PRODUCT_DEFINITION_CONTEXT('',#1403,'design');
#1397=PRODUCT_DEFINITION_FORMATION_WITH_SPECIFIED_SOURCE('','',#1399,
 .NOT_KNOWN.);
#1398=PRODUCT_RELATED_PRODUCT_CATEGORY('','',(#1399));
#1399=PRODUCT('top frame','top frame','top frame',(#1401));
#1400=PRODUCT_CATEGORY('','');
#1401=PRODUCT_CONTEXT('',#1403,'mechanical');
#1402=APPLICATION_PROTOCOL_DEFINITION('international standard',
'ap242_managed_model_based_3d_engineering',2020,#1403);
#1403=APPLICATION_CONTEXT('managed model based 3d engineering');
ENDSEC;
END-ISO-10303-21;
