ISO-10303-21;
HEADER;
/* Generated by software containing ST-Developer
 * from STEP Tools, Inc. (www.steptools.com) 
 */
/* OPTION: using custom renumber hook */

FILE_DESCRIPTION(
/* description */ ('STEP AP242 Edition 2',
'CAx-IF Rec.Pracs.---Representation and Presentation of Product Manufa
cturing Information (PMI)---4.0---2014-10-13',
'CAx-IF Rec.Pracs.---3D Tessellated Geometry---0.4---2014-09-14','2;1',
'CAx-IF Rec.Pracs.---User Defined Attributes---1.5---2016-08-15'),
/* implementation_level */ '2;1');

FILE_NAME(
/* name */ 'Part Studio 1 - bottom case',
/* time_stamp */ '2026-10-03T21:28:32Z',
/* author */ (''),
/* organization */ (''),
/* preprocessor_version */ 'ST-DEVELOPER v20',
/* originating_system */ 'ONSHAPE BY PTC INC, 1.221',
/* authorisation */ '  ');

FILE_SCHEMA (('AP242_MANAGED_MODEL_BASED_3D_ENGINEERING_MIM_LF { 1 0 10303 442 3 1 4 }'));
ENDSEC;

DATA;
#10=SHAPE_REPRESENTATION_RELATIONSHIP('','',#1365,#11);
#11=ADVANCED_BREP_SHAPE_REPRESENTATION('',(#1363),#2339);
#12=CYLINDRICAL_SURFACE('',#1449,0.00265);
#13=CYLINDRICAL_SURFACE('',#1451,0.00265);
#14=CYLINDRICAL_SURFACE('',#1453,0.00265);
#15=CYLINDRICAL_SURFACE('',#1455,0.00265);
#16=CYLINDRICAL_SURFACE('',#1470,0.00165);
#17=CYLINDRICAL_SURFACE('',#1471,0.00165);
#18=CYLINDRICAL_SURFACE('',#1472,0.00165);
#19=CYLINDRICAL_SURFACE('',#1473,0.00165);
#20=CYLINDRICAL_SURFACE('',#1474,0.0025);
#21=CYLINDRICAL_SURFACE('',#1475,0.0025);
#22=CYLINDRICAL_SURFACE('',#1476,0.0025);
#23=CYLINDRICAL_SURFACE('',#1477,0.0025);
#24=CYLINDRICAL_SURFACE('',#1478,0.0012);
#25=CYLINDRICAL_SURFACE('',#1480,0.0012);
#26=CYLINDRICAL_SURFACE('',#1482,0.0012);
#27=CYLINDRICAL_SURFACE('',#1484,0.0012);
#28=CYLINDRICAL_SURFACE('',#1487,0.001);
#29=CYLINDRICAL_SURFACE('',#1489,0.001);
#30=CYLINDRICAL_SURFACE('',#1491,0.001);
#31=CYLINDRICAL_SURFACE('',#1493,0.001);
#32=CYLINDRICAL_SURFACE('',#1494,0.0015);
#33=CYLINDRICAL_SURFACE('',#1495,0.0015);
#34=CYLINDRICAL_SURFACE('',#1496,0.001);
#35=CYLINDRICAL_SURFACE('',#1497,0.001);
#36=CYLINDRICAL_SURFACE('',#1498,0.001);
#37=CYLINDRICAL_SURFACE('',#1499,0.001);
#38=CYLINDRICAL_SURFACE('',#1500,0.002);
#39=CYLINDRICAL_SURFACE('',#1503,0.002);
#40=CYLINDRICAL_SURFACE('',#1506,0.002);
#41=CYLINDRICAL_SURFACE('',#1509,0.002);
#42=CYLINDRICAL_SURFACE('',#1512,0.001);
#43=CYLINDRICAL_SURFACE('',#1515,0.001);
#44=CYLINDRICAL_SURFACE('',#1517,0.001);
#45=CYLINDRICAL_SURFACE('',#1519,0.001);
#46=CYLINDRICAL_SURFACE('',#1520,0.016);
#47=CYLINDRICAL_SURFACE('',#1521,0.016);
#48=CYLINDRICAL_SURFACE('',#1522,0.016);
#49=CYLINDRICAL_SURFACE('',#1523,0.016);
#50=CYLINDRICAL_SURFACE('',#1524,0.016);
#51=CYLINDRICAL_SURFACE('',#1525,0.016);
#52=CYLINDRICAL_SURFACE('',#1526,0.016);
#53=CYLINDRICAL_SURFACE('',#1527,0.016);
#54=CIRCLE('',#1368,0.001);
#55=CIRCLE('',#1369,0.001);
#56=CIRCLE('',#1370,0.001);
#57=CIRCLE('',#1371,0.001);
#58=CIRCLE('',#1373,0.001);
#59=CIRCLE('',#1374,0.001);
#60=CIRCLE('',#1375,0.001);
#61=CIRCLE('',#1376,0.001);
#62=CIRCLE('',#1377,0.0015);
#63=CIRCLE('',#1378,0.0015);
#64=CIRCLE('',#1379,0.0025);
#65=CIRCLE('',#1380,0.0025);
#66=CIRCLE('',#1381,0.0025);
#67=CIRCLE('',#1382,0.0025);
#68=CIRCLE('',#1383,0.0012);
#69=CIRCLE('',#1384,0.0012);
#70=CIRCLE('',#1385,0.0012);
#71=CIRCLE('',#1386,0.0012);
#72=CIRCLE('',#1387,0.001);
#73=CIRCLE('',#1388,0.001);
#74=CIRCLE('',#1389,0.001);
#75=CIRCLE('',#1390,0.001);
#76=CIRCLE('',#1392,0.002);
#77=CIRCLE('',#1393,0.002);
#78=CIRCLE('',#1394,0.002);
#79=CIRCLE('',#1395,0.002);
#80=CIRCLE('',#1396,0.001);
#81=CIRCLE('',#1397,0.001);
#82=CIRCLE('',#1398,0.001);
#83=CIRCLE('',#1399,0.001);
#84=CIRCLE('',#1400,0.0015);
#85=CIRCLE('',#1401,0.0015);
#86=CIRCLE('',#1402,0.0025);
#87=CIRCLE('',#1403,0.0025);
#88=CIRCLE('',#1404,0.0025);
#89=CIRCLE('',#1405,0.0025);
#90=CIRCLE('',#1406,0.001);
#91=CIRCLE('',#1407,0.001);
#92=CIRCLE('',#1408,0.001);
#93=CIRCLE('',#1409,0.001);
#94=CIRCLE('',#1411,0.001);
#95=CIRCLE('',#1412,0.001);
#96=CIRCLE('',#1413,0.001);
#97=CIRCLE('',#1414,0.001);
#98=CIRCLE('',#1419,0.00165);
#99=CIRCLE('',#1420,0.0025);
#100=CIRCLE('',#1421,0.016);
#101=CIRCLE('',#1422,0.00265);
#102=CIRCLE('',#1423,0.016);
#103=CIRCLE('',#1424,0.0025);
#104=CIRCLE('',#1426,0.0025);
#105=CIRCLE('',#1427,0.00165);
#106=CIRCLE('',#1428,0.0025);
#107=CIRCLE('',#1429,0.016);
#108=CIRCLE('',#1430,0.00265);
#109=CIRCLE('',#1431,0.016);
#110=CIRCLE('',#1433,0.00165);
#111=CIRCLE('',#1434,0.0025);
#112=CIRCLE('',#1435,0.016);
#113=CIRCLE('',#1436,0.00265);
#114=CIRCLE('',#1437,0.016);
#115=CIRCLE('',#1438,0.0025);
#116=CIRCLE('',#1443,0.0025);
#117=CIRCLE('',#1444,0.00165);
#118=CIRCLE('',#1445,0.0025);
#119=CIRCLE('',#1446,0.016);
#120=CIRCLE('',#1447,0.00265);
#121=CIRCLE('',#1448,0.016);
#122=CIRCLE('',#1450,0.00265);
#123=CIRCLE('',#1452,0.00265);
#124=CIRCLE('',#1454,0.00265);
#125=CIRCLE('',#1456,0.00265);
#126=CIRCLE('',#1458,0.016);
#127=CIRCLE('',#1459,0.016);
#128=CIRCLE('',#1460,0.016);
#129=CIRCLE('',#1461,0.016);
#130=CIRCLE('',#1462,0.016);
#131=CIRCLE('',#1463,0.016);
#132=CIRCLE('',#1464,0.016);
#133=CIRCLE('',#1465,0.016);
#134=CIRCLE('',#1466,0.00165);
#135=CIRCLE('',#1467,0.00165);
#136=CIRCLE('',#1468,0.00165);
#137=CIRCLE('',#1469,0.00165);
#138=CIRCLE('',#1479,0.0012);
#139=CIRCLE('',#1481,0.0012);
#140=CIRCLE('',#1483,0.0012);
#141=CIRCLE('',#1485,0.0012);
#142=CIRCLE('',#1501,0.002);
#143=CIRCLE('',#1504,0.002);
#144=CIRCLE('',#1507,0.002);
#145=CIRCLE('',#1510,0.002);
#146=ORIENTED_EDGE('',*,*,#522,.T.);
#147=ORIENTED_EDGE('',*,*,#523,.T.);
#148=ORIENTED_EDGE('',*,*,#524,.F.);
#149=ORIENTED_EDGE('',*,*,#525,.F.);
#150=ORIENTED_EDGE('',*,*,#526,.F.);
#151=ORIENTED_EDGE('',*,*,#527,.T.);
#152=ORIENTED_EDGE('',*,*,#528,.F.);
#153=ORIENTED_EDGE('',*,*,#529,.T.);
#154=ORIENTED_EDGE('',*,*,#530,.T.);
#155=ORIENTED_EDGE('',*,*,#531,.T.);
#156=ORIENTED_EDGE('',*,*,#532,.T.);
#157=ORIENTED_EDGE('',*,*,#533,.T.);
#158=ORIENTED_EDGE('',*,*,#534,.F.);
#159=ORIENTED_EDGE('',*,*,#535,.T.);
#160=ORIENTED_EDGE('',*,*,#536,.F.);
#161=ORIENTED_EDGE('',*,*,#537,.F.);
#162=ORIENTED_EDGE('',*,*,#538,.F.);
#163=ORIENTED_EDGE('',*,*,#539,.F.);
#164=ORIENTED_EDGE('',*,*,#540,.F.);
#165=ORIENTED_EDGE('',*,*,#541,.T.);
#166=ORIENTED_EDGE('',*,*,#542,.T.);
#167=ORIENTED_EDGE('',*,*,#543,.T.);
#168=ORIENTED_EDGE('',*,*,#544,.T.);
#169=ORIENTED_EDGE('',*,*,#545,.T.);
#170=ORIENTED_EDGE('',*,*,#546,.T.);
#171=ORIENTED_EDGE('',*,*,#547,.T.);
#172=ORIENTED_EDGE('',*,*,#548,.T.);
#173=ORIENTED_EDGE('',*,*,#549,.T.);
#174=ORIENTED_EDGE('',*,*,#550,.F.);
#175=ORIENTED_EDGE('',*,*,#551,.F.);
#176=ORIENTED_EDGE('',*,*,#552,.F.);
#177=ORIENTED_EDGE('',*,*,#553,.F.);
#178=ORIENTED_EDGE('',*,*,#554,.T.);
#179=ORIENTED_EDGE('',*,*,#555,.F.);
#180=ORIENTED_EDGE('',*,*,#556,.T.);
#181=ORIENTED_EDGE('',*,*,#557,.F.);
#182=ORIENTED_EDGE('',*,*,#558,.F.);
#183=ORIENTED_EDGE('',*,*,#559,.F.);
#184=ORIENTED_EDGE('',*,*,#560,.F.);
#185=ORIENTED_EDGE('',*,*,#561,.F.);
#186=ORIENTED_EDGE('',*,*,#562,.F.);
#187=ORIENTED_EDGE('',*,*,#563,.F.);
#188=ORIENTED_EDGE('',*,*,#564,.F.);
#189=ORIENTED_EDGE('',*,*,#565,.F.);
#190=ORIENTED_EDGE('',*,*,#566,.F.);
#191=ORIENTED_EDGE('',*,*,#567,.F.);
#192=ORIENTED_EDGE('',*,*,#568,.F.);
#193=ORIENTED_EDGE('',*,*,#569,.F.);
#194=ORIENTED_EDGE('',*,*,#570,.F.);
#195=ORIENTED_EDGE('',*,*,#571,.F.);
#196=ORIENTED_EDGE('',*,*,#572,.F.);
#197=ORIENTED_EDGE('',*,*,#525,.T.);
#198=ORIENTED_EDGE('',*,*,#573,.F.);
#199=ORIENTED_EDGE('',*,*,#574,.T.);
#200=ORIENTED_EDGE('',*,*,#575,.F.);
#201=ORIENTED_EDGE('',*,*,#576,.F.);
#202=ORIENTED_EDGE('',*,*,#577,.F.);
#203=ORIENTED_EDGE('',*,*,#578,.T.);
#204=ORIENTED_EDGE('',*,*,#579,.F.);
#205=ORIENTED_EDGE('',*,*,#580,.T.);
#206=ORIENTED_EDGE('',*,*,#581,.F.);
#207=ORIENTED_EDGE('',*,*,#582,.F.);
#208=ORIENTED_EDGE('',*,*,#583,.F.);
#209=ORIENTED_EDGE('',*,*,#584,.F.);
#210=ORIENTED_EDGE('',*,*,#585,.F.);
#211=ORIENTED_EDGE('',*,*,#586,.T.);
#212=ORIENTED_EDGE('',*,*,#587,.F.);
#213=ORIENTED_EDGE('',*,*,#588,.T.);
#214=ORIENTED_EDGE('',*,*,#589,.F.);
#215=ORIENTED_EDGE('',*,*,#590,.T.);
#216=ORIENTED_EDGE('',*,*,#591,.F.);
#217=ORIENTED_EDGE('',*,*,#592,.F.);
#218=ORIENTED_EDGE('',*,*,#593,.F.);
#219=ORIENTED_EDGE('',*,*,#594,.F.);
#220=ORIENTED_EDGE('',*,*,#595,.T.);
#221=ORIENTED_EDGE('',*,*,#596,.T.);
#222=ORIENTED_EDGE('',*,*,#597,.T.);
#223=ORIENTED_EDGE('',*,*,#598,.F.);
#224=ORIENTED_EDGE('',*,*,#542,.F.);
#225=ORIENTED_EDGE('',*,*,#599,.T.);
#226=ORIENTED_EDGE('',*,*,#600,.T.);
#227=ORIENTED_EDGE('',*,*,#601,.T.);
#228=ORIENTED_EDGE('',*,*,#602,.T.);
#229=ORIENTED_EDGE('',*,*,#603,.T.);
#230=ORIENTED_EDGE('',*,*,#604,.T.);
#231=ORIENTED_EDGE('',*,*,#605,.F.);
#232=ORIENTED_EDGE('',*,*,#548,.F.);
#233=ORIENTED_EDGE('',*,*,#606,.T.);
#234=ORIENTED_EDGE('',*,*,#607,.T.);
#235=ORIENTED_EDGE('',*,*,#608,.T.);
#236=ORIENTED_EDGE('',*,*,#609,.T.);
#237=ORIENTED_EDGE('',*,*,#610,.T.);
#238=ORIENTED_EDGE('',*,*,#611,.T.);
#239=ORIENTED_EDGE('',*,*,#612,.F.);
#240=ORIENTED_EDGE('',*,*,#546,.F.);
#241=ORIENTED_EDGE('',*,*,#613,.T.);
#242=ORIENTED_EDGE('',*,*,#614,.T.);
#243=ORIENTED_EDGE('',*,*,#615,.T.);
#244=ORIENTED_EDGE('',*,*,#616,.T.);
#245=ORIENTED_EDGE('',*,*,#617,.T.);
#246=ORIENTED_EDGE('',*,*,#618,.T.);
#247=ORIENTED_EDGE('',*,*,#619,.T.);
#248=ORIENTED_EDGE('',*,*,#620,.T.);
#249=ORIENTED_EDGE('',*,*,#621,.F.);
#250=ORIENTED_EDGE('',*,*,#544,.F.);
#251=ORIENTED_EDGE('',*,*,#622,.T.);
#252=ORIENTED_EDGE('',*,*,#623,.T.);
#253=ORIENTED_EDGE('',*,*,#624,.T.);
#254=ORIENTED_EDGE('',*,*,#625,.F.);
#255=ORIENTED_EDGE('',*,*,#604,.F.);
#256=ORIENTED_EDGE('',*,*,#626,.T.);
#257=ORIENTED_EDGE('',*,*,#627,.F.);
#258=ORIENTED_EDGE('',*,*,#628,.T.);
#259=ORIENTED_EDGE('',*,*,#600,.F.);
#260=ORIENTED_EDGE('',*,*,#629,.F.);
#261=ORIENTED_EDGE('',*,*,#524,.T.);
#262=ORIENTED_EDGE('',*,*,#607,.F.);
#263=ORIENTED_EDGE('',*,*,#630,.F.);
#264=ORIENTED_EDGE('',*,*,#631,.T.);
#265=ORIENTED_EDGE('',*,*,#632,.T.);
#266=ORIENTED_EDGE('',*,*,#633,.F.);
#267=ORIENTED_EDGE('',*,*,#634,.F.);
#268=ORIENTED_EDGE('',*,*,#611,.F.);
#269=ORIENTED_EDGE('',*,*,#635,.T.);
#270=ORIENTED_EDGE('',*,*,#636,.F.);
#271=ORIENTED_EDGE('',*,*,#637,.T.);
#272=ORIENTED_EDGE('',*,*,#638,.F.);
#273=ORIENTED_EDGE('',*,*,#639,.T.);
#274=ORIENTED_EDGE('',*,*,#640,.T.);
#275=ORIENTED_EDGE('',*,*,#641,.F.);
#276=ORIENTED_EDGE('',*,*,#620,.F.);
#277=ORIENTED_EDGE('',*,*,#642,.T.);
#278=ORIENTED_EDGE('',*,*,#643,.F.);
#279=ORIENTED_EDGE('',*,*,#644,.T.);
#280=ORIENTED_EDGE('',*,*,#614,.F.);
#281=ORIENTED_EDGE('',*,*,#645,.F.);
#282=ORIENTED_EDGE('',*,*,#646,.T.);
#283=ORIENTED_EDGE('',*,*,#647,.T.);
#284=ORIENTED_EDGE('',*,*,#648,.F.);
#285=ORIENTED_EDGE('',*,*,#578,.F.);
#286=ORIENTED_EDGE('',*,*,#640,.F.);
#287=ORIENTED_EDGE('',*,*,#649,.T.);
#288=ORIENTED_EDGE('',*,*,#650,.F.);
#289=ORIENTED_EDGE('',*,*,#638,.T.);
#290=ORIENTED_EDGE('',*,*,#576,.T.);
#291=ORIENTED_EDGE('',*,*,#633,.T.);
#292=ORIENTED_EDGE('',*,*,#651,.F.);
#293=ORIENTED_EDGE('',*,*,#652,.F.);
#294=ORIENTED_EDGE('',*,*,#624,.F.);
#295=ORIENTED_EDGE('',*,*,#653,.T.);
#296=ORIENTED_EDGE('',*,*,#654,.T.);
#297=ORIENTED_EDGE('',*,*,#655,.T.);
#298=ORIENTED_EDGE('',*,*,#631,.F.);
#299=ORIENTED_EDGE('',*,*,#574,.F.);
#300=ORIENTED_EDGE('',*,*,#616,.F.);
#301=ORIENTED_EDGE('',*,*,#656,.F.);
#302=ORIENTED_EDGE('',*,*,#648,.T.);
#303=ORIENTED_EDGE('',*,*,#657,.T.);
#304=ORIENTED_EDGE('',*,*,#526,.T.);
#305=ORIENTED_EDGE('',*,*,#658,.F.);
#306=ORIENTED_EDGE('',*,*,#597,.F.);
#307=ORIENTED_EDGE('',*,*,#659,.T.);
#308=ORIENTED_EDGE('',*,*,#660,.F.);
#309=ORIENTED_EDGE('',*,*,#661,.T.);
#310=ORIENTED_EDGE('',*,*,#662,.F.);
#311=ORIENTED_EDGE('',*,*,#663,.T.);
#312=ORIENTED_EDGE('',*,*,#627,.T.);
#313=ORIENTED_EDGE('',*,*,#664,.T.);
#314=ORIENTED_EDGE('',*,*,#665,.F.);
#315=ORIENTED_EDGE('',*,*,#666,.T.);
#316=ORIENTED_EDGE('',*,*,#636,.T.);
#317=ORIENTED_EDGE('',*,*,#667,.T.);
#318=ORIENTED_EDGE('',*,*,#668,.F.);
#319=ORIENTED_EDGE('',*,*,#669,.T.);
#320=ORIENTED_EDGE('',*,*,#643,.T.);
#321=ORIENTED_EDGE('',*,*,#670,.T.);
#322=ORIENTED_EDGE('',*,*,#660,.T.);
#323=ORIENTED_EDGE('',*,*,#671,.T.);
#324=ORIENTED_EDGE('',*,*,#672,.F.);
#325=ORIENTED_EDGE('',*,*,#673,.T.);
#326=ORIENTED_EDGE('',*,*,#595,.F.);
#327=ORIENTED_EDGE('',*,*,#674,.T.);
#328=ORIENTED_EDGE('',*,*,#662,.T.);
#329=ORIENTED_EDGE('',*,*,#675,.T.);
#330=ORIENTED_EDGE('',*,*,#602,.F.);
#331=ORIENTED_EDGE('',*,*,#676,.T.);
#332=ORIENTED_EDGE('',*,*,#665,.T.);
#333=ORIENTED_EDGE('',*,*,#677,.T.);
#334=ORIENTED_EDGE('',*,*,#609,.F.);
#335=ORIENTED_EDGE('',*,*,#678,.T.);
#336=ORIENTED_EDGE('',*,*,#668,.T.);
#337=ORIENTED_EDGE('',*,*,#679,.T.);
#338=ORIENTED_EDGE('',*,*,#618,.F.);
#339=ORIENTED_EDGE('',*,*,#680,.T.);
#340=ORIENTED_EDGE('',*,*,#672,.T.);
#341=ORIENTED_EDGE('',*,*,#681,.T.);
#342=ORIENTED_EDGE('',*,*,#654,.F.);
#343=ORIENTED_EDGE('',*,*,#682,.T.);
#344=ORIENTED_EDGE('',*,*,#522,.F.);
#345=ORIENTED_EDGE('',*,*,#683,.T.);
#346=ORIENTED_EDGE('',*,*,#646,.F.);
#347=ORIENTED_EDGE('',*,*,#684,.T.);
#348=ORIENTED_EDGE('',*,*,#652,.T.);
#349=ORIENTED_EDGE('',*,*,#685,.T.);
#350=ORIENTED_EDGE('',*,*,#651,.T.);
#351=ORIENTED_EDGE('',*,*,#632,.F.);
#352=ORIENTED_EDGE('',*,*,#655,.F.);
#353=ORIENTED_EDGE('',*,*,#685,.F.);
#354=ORIENTED_EDGE('',*,*,#639,.F.);
#355=ORIENTED_EDGE('',*,*,#650,.T.);
#356=ORIENTED_EDGE('',*,*,#684,.F.);
#357=ORIENTED_EDGE('',*,*,#649,.F.);
#358=ORIENTED_EDGE('',*,*,#657,.F.);
#359=ORIENTED_EDGE('',*,*,#647,.F.);
#360=ORIENTED_EDGE('',*,*,#683,.F.);
#361=ORIENTED_EDGE('',*,*,#527,.F.);
#362=ORIENTED_EDGE('',*,*,#682,.F.);
#363=ORIENTED_EDGE('',*,*,#653,.F.);
#364=ORIENTED_EDGE('',*,*,#623,.F.);
#365=ORIENTED_EDGE('',*,*,#523,.F.);
#366=ORIENTED_EDGE('',*,*,#605,.T.);
#367=ORIENTED_EDGE('',*,*,#625,.T.);
#368=ORIENTED_EDGE('',*,*,#573,.T.);
#369=ORIENTED_EDGE('',*,*,#629,.T.);
#370=ORIENTED_EDGE('',*,*,#599,.F.);
#371=ORIENTED_EDGE('',*,*,#549,.F.);
#372=ORIENTED_EDGE('',*,*,#621,.T.);
#373=ORIENTED_EDGE('',*,*,#641,.T.);
#374=ORIENTED_EDGE('',*,*,#577,.T.);
#375=ORIENTED_EDGE('',*,*,#645,.T.);
#376=ORIENTED_EDGE('',*,*,#613,.F.);
#377=ORIENTED_EDGE('',*,*,#545,.F.);
#378=ORIENTED_EDGE('',*,*,#612,.T.);
#379=ORIENTED_EDGE('',*,*,#634,.T.);
#380=ORIENTED_EDGE('',*,*,#575,.T.);
#381=ORIENTED_EDGE('',*,*,#630,.T.);
#382=ORIENTED_EDGE('',*,*,#606,.F.);
#383=ORIENTED_EDGE('',*,*,#547,.F.);
#384=ORIENTED_EDGE('',*,*,#598,.T.);
#385=ORIENTED_EDGE('',*,*,#658,.T.);
#386=ORIENTED_EDGE('',*,*,#572,.T.);
#387=ORIENTED_EDGE('',*,*,#656,.T.);
#388=ORIENTED_EDGE('',*,*,#622,.F.);
#389=ORIENTED_EDGE('',*,*,#543,.F.);
#390=ORIENTED_EDGE('',*,*,#550,.T.);
#391=ORIENTED_EDGE('',*,*,#686,.T.);
#392=ORIENTED_EDGE('',*,*,#551,.T.);
#393=ORIENTED_EDGE('',*,*,#687,.T.);
#394=ORIENTED_EDGE('',*,*,#552,.T.);
#395=ORIENTED_EDGE('',*,*,#688,.T.);
#396=ORIENTED_EDGE('',*,*,#553,.T.);
#397=ORIENTED_EDGE('',*,*,#689,.T.);
#398=ORIENTED_EDGE('',*,*,#690,.T.);
#399=ORIENTED_EDGE('',*,*,#554,.F.);
#400=ORIENTED_EDGE('',*,*,#691,.F.);
#401=ORIENTED_EDGE('',*,*,#580,.F.);
#402=ORIENTED_EDGE('',*,*,#581,.T.);
#403=ORIENTED_EDGE('',*,*,#691,.T.);
#404=ORIENTED_EDGE('',*,*,#561,.T.);
#405=ORIENTED_EDGE('',*,*,#692,.F.);
#406=ORIENTED_EDGE('',*,*,#582,.T.);
#407=ORIENTED_EDGE('',*,*,#692,.T.);
#408=ORIENTED_EDGE('',*,*,#560,.T.);
#409=ORIENTED_EDGE('',*,*,#693,.F.);
#410=ORIENTED_EDGE('',*,*,#583,.T.);
#411=ORIENTED_EDGE('',*,*,#693,.T.);
#412=ORIENTED_EDGE('',*,*,#559,.T.);
#413=ORIENTED_EDGE('',*,*,#694,.F.);
#414=ORIENTED_EDGE('',*,*,#584,.T.);
#415=ORIENTED_EDGE('',*,*,#694,.T.);
#416=ORIENTED_EDGE('',*,*,#558,.T.);
#417=ORIENTED_EDGE('',*,*,#695,.F.);
#418=ORIENTED_EDGE('',*,*,#585,.T.);
#419=ORIENTED_EDGE('',*,*,#695,.T.);
#420=ORIENTED_EDGE('',*,*,#557,.T.);
#421=ORIENTED_EDGE('',*,*,#696,.F.);
#422=ORIENTED_EDGE('',*,*,#696,.T.);
#423=ORIENTED_EDGE('',*,*,#556,.F.);
#424=ORIENTED_EDGE('',*,*,#697,.F.);
#425=ORIENTED_EDGE('',*,*,#586,.F.);
#426=ORIENTED_EDGE('',*,*,#579,.T.);
#427=ORIENTED_EDGE('',*,*,#697,.T.);
#428=ORIENTED_EDGE('',*,*,#555,.T.);
#429=ORIENTED_EDGE('',*,*,#690,.F.);
#430=ORIENTED_EDGE('',*,*,#571,.T.);
#431=ORIENTED_EDGE('',*,*,#541,.F.);
#432=ORIENTED_EDGE('',*,*,#570,.T.);
#433=ORIENTED_EDGE('',*,*,#540,.T.);
#434=ORIENTED_EDGE('',*,*,#569,.T.);
#435=ORIENTED_EDGE('',*,*,#539,.T.);
#436=ORIENTED_EDGE('',*,*,#568,.T.);
#437=ORIENTED_EDGE('',*,*,#538,.T.);
#438=ORIENTED_EDGE('',*,*,#567,.T.);
#439=ORIENTED_EDGE('',*,*,#537,.T.);
#440=ORIENTED_EDGE('',*,*,#566,.T.);
#441=ORIENTED_EDGE('',*,*,#536,.T.);
#442=ORIENTED_EDGE('',*,*,#698,.F.);
#443=ORIENTED_EDGE('',*,*,#565,.T.);
#444=ORIENTED_EDGE('',*,*,#689,.F.);
#445=ORIENTED_EDGE('',*,*,#698,.T.);
#446=ORIENTED_EDGE('',*,*,#699,.F.);
#447=ORIENTED_EDGE('',*,*,#562,.T.);
#448=ORIENTED_EDGE('',*,*,#688,.F.);
#449=ORIENTED_EDGE('',*,*,#699,.T.);
#450=ORIENTED_EDGE('',*,*,#700,.F.);
#451=ORIENTED_EDGE('',*,*,#564,.T.);
#452=ORIENTED_EDGE('',*,*,#687,.F.);
#453=ORIENTED_EDGE('',*,*,#700,.T.);
#454=ORIENTED_EDGE('',*,*,#701,.F.);
#455=ORIENTED_EDGE('',*,*,#563,.T.);
#456=ORIENTED_EDGE('',*,*,#686,.F.);
#457=ORIENTED_EDGE('',*,*,#701,.T.);
#458=ORIENTED_EDGE('',*,*,#702,.T.);
#459=ORIENTED_EDGE('',*,*,#589,.T.);
#460=ORIENTED_EDGE('',*,*,#703,.F.);
#461=ORIENTED_EDGE('',*,*,#535,.F.);
#462=ORIENTED_EDGE('',*,*,#534,.T.);
#463=ORIENTED_EDGE('',*,*,#704,.T.);
#464=ORIENTED_EDGE('',*,*,#590,.F.);
#465=ORIENTED_EDGE('',*,*,#702,.F.);
#466=ORIENTED_EDGE('',*,*,#528,.T.);
#467=ORIENTED_EDGE('',*,*,#703,.T.);
#468=ORIENTED_EDGE('',*,*,#588,.F.);
#469=ORIENTED_EDGE('',*,*,#705,.F.);
#470=ORIENTED_EDGE('',*,*,#706,.T.);
#471=ORIENTED_EDGE('',*,*,#591,.T.);
#472=ORIENTED_EDGE('',*,*,#704,.F.);
#473=ORIENTED_EDGE('',*,*,#533,.F.);
#474=ORIENTED_EDGE('',*,*,#707,.T.);
#475=ORIENTED_EDGE('',*,*,#592,.T.);
#476=ORIENTED_EDGE('',*,*,#706,.F.);
#477=ORIENTED_EDGE('',*,*,#532,.F.);
#478=ORIENTED_EDGE('',*,*,#708,.T.);
#479=ORIENTED_EDGE('',*,*,#593,.T.);
#480=ORIENTED_EDGE('',*,*,#707,.F.);
#481=ORIENTED_EDGE('',*,*,#531,.F.);
#482=ORIENTED_EDGE('',*,*,#709,.T.);
#483=ORIENTED_EDGE('',*,*,#594,.T.);
#484=ORIENTED_EDGE('',*,*,#708,.F.);
#485=ORIENTED_EDGE('',*,*,#530,.F.);
#486=ORIENTED_EDGE('',*,*,#705,.T.);
#487=ORIENTED_EDGE('',*,*,#587,.T.);
#488=ORIENTED_EDGE('',*,*,#709,.F.);
#489=ORIENTED_EDGE('',*,*,#529,.F.);
#490=ORIENTED_EDGE('',*,*,#681,.F.);
#491=ORIENTED_EDGE('',*,*,#671,.F.);
#492=ORIENTED_EDGE('',*,*,#659,.F.);
#493=ORIENTED_EDGE('',*,*,#596,.F.);
#494=ORIENTED_EDGE('',*,*,#674,.F.);
#495=ORIENTED_EDGE('',*,*,#601,.F.);
#496=ORIENTED_EDGE('',*,*,#628,.F.);
#497=ORIENTED_EDGE('',*,*,#663,.F.);
#498=ORIENTED_EDGE('',*,*,#675,.F.);
#499=ORIENTED_EDGE('',*,*,#664,.F.);
#500=ORIENTED_EDGE('',*,*,#626,.F.);
#501=ORIENTED_EDGE('',*,*,#603,.F.);
#502=ORIENTED_EDGE('',*,*,#676,.F.);
#503=ORIENTED_EDGE('',*,*,#608,.F.);
#504=ORIENTED_EDGE('',*,*,#637,.F.);
#505=ORIENTED_EDGE('',*,*,#666,.F.);
#506=ORIENTED_EDGE('',*,*,#677,.F.);
#507=ORIENTED_EDGE('',*,*,#667,.F.);
#508=ORIENTED_EDGE('',*,*,#635,.F.);
#509=ORIENTED_EDGE('',*,*,#610,.F.);
#510=ORIENTED_EDGE('',*,*,#678,.F.);
#511=ORIENTED_EDGE('',*,*,#615,.F.);
#512=ORIENTED_EDGE('',*,*,#644,.F.);
#513=ORIENTED_EDGE('',*,*,#669,.F.);
#514=ORIENTED_EDGE('',*,*,#680,.F.);
#515=ORIENTED_EDGE('',*,*,#617,.F.);
#516=ORIENTED_EDGE('',*,*,#661,.F.);
#517=ORIENTED_EDGE('',*,*,#673,.F.);
#518=ORIENTED_EDGE('',*,*,#679,.F.);
#519=ORIENTED_EDGE('',*,*,#670,.F.);
#520=ORIENTED_EDGE('',*,*,#642,.F.);
#521=ORIENTED_EDGE('',*,*,#619,.F.);
#522=EDGE_CURVE('',#710,#711,#842,.T.);
#523=EDGE_CURVE('',#711,#712,#843,.T.);
#524=EDGE_CURVE('',#713,#712,#844,.T.);
#525=EDGE_CURVE('',#714,#713,#845,.T.);
#526=EDGE_CURVE('',#715,#714,#846,.T.);
#527=EDGE_CURVE('',#715,#710,#847,.F.);
#528=EDGE_CURVE('',#716,#717,#848,.T.);
#529=EDGE_CURVE('',#716,#718,#54,.F.);
#530=EDGE_CURVE('',#718,#719,#849,.T.);
#531=EDGE_CURVE('',#719,#720,#55,.F.);
#532=EDGE_CURVE('',#720,#721,#850,.T.);
#533=EDGE_CURVE('',#721,#722,#56,.F.);
#534=EDGE_CURVE('',#723,#722,#851,.T.);
#535=EDGE_CURVE('',#723,#717,#57,.F.);
#536=EDGE_CURVE('',#724,#724,#58,.T.);
#537=EDGE_CURVE('',#725,#725,#59,.T.);
#538=EDGE_CURVE('',#726,#726,#60,.T.);
#539=EDGE_CURVE('',#727,#727,#61,.T.);
#540=EDGE_CURVE('',#728,#728,#62,.T.);
#541=EDGE_CURVE('',#729,#729,#63,.T.);
#542=EDGE_CURVE('',#730,#731,#852,.T.);
#543=EDGE_CURVE('',#731,#732,#64,.T.);
#544=EDGE_CURVE('',#732,#733,#853,.T.);
#545=EDGE_CURVE('',#733,#734,#65,.T.);
#546=EDGE_CURVE('',#734,#735,#854,.T.);
#547=EDGE_CURVE('',#735,#736,#66,.T.);
#548=EDGE_CURVE('',#736,#737,#855,.T.);
#549=EDGE_CURVE('',#737,#730,#67,.T.);
#550=EDGE_CURVE('',#738,#738,#68,.T.);
#551=EDGE_CURVE('',#739,#739,#69,.T.);
#552=EDGE_CURVE('',#740,#740,#70,.T.);
#553=EDGE_CURVE('',#741,#741,#71,.T.);
#554=EDGE_CURVE('',#742,#743,#856,.T.);
#555=EDGE_CURVE('',#744,#743,#72,.T.);
#556=EDGE_CURVE('',#744,#745,#857,.T.);
#557=EDGE_CURVE('',#746,#745,#73,.T.);
#558=EDGE_CURVE('',#747,#746,#858,.T.);
#559=EDGE_CURVE('',#748,#747,#74,.T.);
#560=EDGE_CURVE('',#749,#748,#859,.T.);
#561=EDGE_CURVE('',#742,#749,#75,.T.);
#562=EDGE_CURVE('',#750,#750,#76,.T.);
#563=EDGE_CURVE('',#751,#751,#77,.T.);
#564=EDGE_CURVE('',#752,#752,#78,.T.);
#565=EDGE_CURVE('',#753,#753,#79,.T.);
#566=EDGE_CURVE('',#754,#754,#80,.T.);
#567=EDGE_CURVE('',#755,#755,#81,.T.);
#568=EDGE_CURVE('',#756,#756,#82,.T.);
#569=EDGE_CURVE('',#757,#757,#83,.T.);
#570=EDGE_CURVE('',#758,#758,#84,.T.);
#571=EDGE_CURVE('',#759,#759,#85,.T.);
#572=EDGE_CURVE('',#714,#760,#86,.T.);
#573=EDGE_CURVE('',#761,#713,#87,.T.);
#574=EDGE_CURVE('',#761,#762,#860,.T.);
#575=EDGE_CURVE('',#763,#762,#88,.T.);
#576=EDGE_CURVE('',#764,#763,#861,.T.);
#577=EDGE_CURVE('',#765,#764,#89,.T.);
#578=EDGE_CURVE('',#765,#760,#862,.T.);
#579=EDGE_CURVE('',#766,#767,#90,.T.);
#580=EDGE_CURVE('',#766,#768,#863,.T.);
#581=EDGE_CURVE('',#769,#768,#91,.T.);
#582=EDGE_CURVE('',#770,#769,#864,.T.);
#583=EDGE_CURVE('',#771,#770,#92,.T.);
#584=EDGE_CURVE('',#772,#771,#865,.T.);
#585=EDGE_CURVE('',#773,#772,#93,.T.);
#586=EDGE_CURVE('',#773,#767,#866,.T.);
#587=EDGE_CURVE('',#774,#775,#94,.T.);
#588=EDGE_CURVE('',#774,#776,#867,.T.);
#589=EDGE_CURVE('',#777,#776,#95,.T.);
#590=EDGE_CURVE('',#777,#778,#868,.T.);
#591=EDGE_CURVE('',#779,#778,#96,.T.);
#592=EDGE_CURVE('',#780,#779,#869,.T.);
#593=EDGE_CURVE('',#781,#780,#97,.T.);
#594=EDGE_CURVE('',#775,#781,#870,.T.);
#595=EDGE_CURVE('',#782,#783,#871,.T.);
#596=EDGE_CURVE('',#783,#784,#872,.T.);
#597=EDGE_CURVE('',#784,#785,#873,.T.);
#598=EDGE_CURVE('',#731,#785,#874,.T.);
#599=EDGE_CURVE('',#730,#786,#875,.T.);
#600=EDGE_CURVE('',#786,#787,#876,.T.);
#601=EDGE_CURVE('',#787,#782,#877,.F.);
#602=EDGE_CURVE('',#788,#789,#878,.T.);
#603=EDGE_CURVE('',#789,#790,#879,.T.);
#604=EDGE_CURVE('',#790,#791,#880,.T.);
#605=EDGE_CURVE('',#737,#791,#881,.T.);
#606=EDGE_CURVE('',#736,#792,#882,.T.);
#607=EDGE_CURVE('',#792,#793,#883,.T.);
#608=EDGE_CURVE('',#793,#788,#884,.F.);
#609=EDGE_CURVE('',#794,#795,#885,.T.);
#610=EDGE_CURVE('',#795,#796,#886,.T.);
#611=EDGE_CURVE('',#796,#797,#887,.T.);
#612=EDGE_CURVE('',#735,#797,#888,.T.);
#613=EDGE_CURVE('',#734,#798,#889,.T.);
#614=EDGE_CURVE('',#798,#799,#890,.T.);
#615=EDGE_CURVE('',#799,#794,#891,.F.);
#616=EDGE_CURVE('',#800,#801,#892,.T.);
#617=EDGE_CURVE('',#801,#802,#893,.F.);
#618=EDGE_CURVE('',#802,#803,#894,.T.);
#619=EDGE_CURVE('',#803,#804,#895,.T.);
#620=EDGE_CURVE('',#804,#805,#896,.T.);
#621=EDGE_CURVE('',#733,#805,#897,.T.);
#622=EDGE_CURVE('',#732,#800,#898,.T.);
#623=EDGE_CURVE('',#712,#806,#98,.T.);
#624=EDGE_CURVE('',#806,#761,#899,.T.);
#625=EDGE_CURVE('',#791,#761,#99,.T.);
#626=EDGE_CURVE('',#790,#807,#100,.T.);
#627=EDGE_CURVE('',#808,#807,#101,.T.);
#628=EDGE_CURVE('',#808,#787,#102,.T.);
#629=EDGE_CURVE('',#713,#786,#103,.T.);
#630=EDGE_CURVE('',#762,#792,#104,.T.);
#631=EDGE_CURVE('',#762,#809,#900,.T.);
#632=EDGE_CURVE('',#809,#810,#105,.T.);
#633=EDGE_CURVE('',#763,#810,#901,.T.);
#634=EDGE_CURVE('',#797,#763,#106,.T.);
#635=EDGE_CURVE('',#796,#811,#107,.T.);
#636=EDGE_CURVE('',#812,#811,#108,.T.);
#637=EDGE_CURVE('',#812,#793,#109,.T.);
#638=EDGE_CURVE('',#813,#764,#902,.T.);
#639=EDGE_CURVE('',#813,#814,#110,.T.);
#640=EDGE_CURVE('',#814,#765,#903,.T.);
#641=EDGE_CURVE('',#805,#765,#111,.T.);
#642=EDGE_CURVE('',#804,#815,#112,.T.);
#643=EDGE_CURVE('',#816,#815,#113,.T.);
#644=EDGE_CURVE('',#816,#799,#114,.T.);
#645=EDGE_CURVE('',#764,#798,#115,.T.);
#646=EDGE_CURVE('',#817,#818,#904,.T.);
#647=EDGE_CURVE('',#818,#819,#905,.T.);
#648=EDGE_CURVE('',#760,#819,#906,.T.);
#649=EDGE_CURVE('',#814,#817,#907,.F.);
#650=EDGE_CURVE('',#813,#820,#908,.F.);
#651=EDGE_CURVE('',#821,#810,#909,.T.);
#652=EDGE_CURVE('',#820,#821,#910,.T.);
#653=EDGE_CURVE('',#806,#822,#911,.F.);
#654=EDGE_CURVE('',#822,#823,#912,.T.);
#655=EDGE_CURVE('',#823,#809,#913,.T.);
#656=EDGE_CURVE('',#760,#800,#116,.T.);
#657=EDGE_CURVE('',#819,#715,#117,.T.);
#658=EDGE_CURVE('',#785,#714,#118,.T.);
#659=EDGE_CURVE('',#784,#824,#119,.T.);
#660=EDGE_CURVE('',#825,#824,#120,.T.);
#661=EDGE_CURVE('',#825,#801,#121,.T.);
#662=EDGE_CURVE('',#826,#827,#122,.T.);
#663=EDGE_CURVE('',#826,#808,#914,.T.);
#664=EDGE_CURVE('',#807,#827,#915,.F.);
#665=EDGE_CURVE('',#828,#829,#123,.T.);
#666=EDGE_CURVE('',#828,#812,#916,.T.);
#667=EDGE_CURVE('',#811,#829,#917,.F.);
#668=EDGE_CURVE('',#830,#831,#124,.T.);
#669=EDGE_CURVE('',#830,#816,#918,.T.);
#670=EDGE_CURVE('',#815,#831,#919,.F.);
#671=EDGE_CURVE('',#824,#832,#920,.F.);
#672=EDGE_CURVE('',#833,#832,#125,.T.);
#673=EDGE_CURVE('',#833,#825,#921,.T.);
#674=EDGE_CURVE('',#782,#826,#126,.F.);
#675=EDGE_CURVE('',#827,#789,#127,.F.);
#676=EDGE_CURVE('',#788,#828,#128,.F.);
#677=EDGE_CURVE('',#829,#795,#129,.F.);
#678=EDGE_CURVE('',#794,#830,#130,.F.);
#679=EDGE_CURVE('',#831,#803,#131,.F.);
#680=EDGE_CURVE('',#802,#833,#132,.F.);
#681=EDGE_CURVE('',#832,#783,#133,.F.);
#682=EDGE_CURVE('',#822,#711,#134,.F.);
#683=EDGE_CURVE('',#710,#818,#135,.F.);
#684=EDGE_CURVE('',#817,#820,#136,.F.);
#685=EDGE_CURVE('',#821,#823,#137,.F.);
#686=EDGE_CURVE('',#834,#834,#138,.T.);
#687=EDGE_CURVE('',#835,#835,#139,.T.);
#688=EDGE_CURVE('',#836,#836,#140,.T.);
#689=EDGE_CURVE('',#837,#837,#141,.T.);
#690=EDGE_CURVE('',#766,#743,#922,.T.);
#691=EDGE_CURVE('',#768,#742,#923,.T.);
#692=EDGE_CURVE('',#769,#749,#924,.T.);
#693=EDGE_CURVE('',#770,#748,#925,.T.);
#694=EDGE_CURVE('',#771,#747,#926,.T.);
#695=EDGE_CURVE('',#772,#746,#927,.T.);
#696=EDGE_CURVE('',#773,#745,#928,.T.);
#697=EDGE_CURVE('',#767,#744,#929,.T.);
#698=EDGE_CURVE('',#838,#838,#142,.T.);
#699=EDGE_CURVE('',#839,#839,#143,.T.);
#700=EDGE_CURVE('',#840,#840,#144,.T.);
#701=EDGE_CURVE('',#841,#841,#145,.T.);
#702=EDGE_CURVE('',#723,#777,#930,.T.);
#703=EDGE_CURVE('',#717,#776,#931,.T.);
#704=EDGE_CURVE('',#722,#778,#932,.T.);
#705=EDGE_CURVE('',#716,#774,#933,.T.);
#706=EDGE_CURVE('',#721,#779,#934,.T.);
#707=EDGE_CURVE('',#720,#780,#935,.T.);
#708=EDGE_CURVE('',#719,#781,#936,.T.);
#709=EDGE_CURVE('',#718,#775,#937,.T.);
#710=VERTEX_POINT('',#1951);
#711=VERTEX_POINT('',#1952);
#712=VERTEX_POINT('',#1954);
#713=VERTEX_POINT('',#1956);
#714=VERTEX_POINT('',#1958);
#715=VERTEX_POINT('',#1960);
#716=VERTEX_POINT('',#1963);
#717=VERTEX_POINT('',#1964);
#718=VERTEX_POINT('',#1966);
#719=VERTEX_POINT('',#1968);
#720=VERTEX_POINT('',#1970);
#721=VERTEX_POINT('',#1972);
#722=VERTEX_POINT('',#1974);
#723=VERTEX_POINT('',#1976);
#724=VERTEX_POINT('',#1980);
#725=VERTEX_POINT('',#1982);
#726=VERTEX_POINT('',#1984);
#727=VERTEX_POINT('',#1986);
#728=VERTEX_POINT('',#1988);
#729=VERTEX_POINT('',#1990);
#730=VERTEX_POINT('',#1992);
#731=VERTEX_POINT('',#1993);
#732=VERTEX_POINT('',#1995);
#733=VERTEX_POINT('',#1997);
#734=VERTEX_POINT('',#1999);
#735=VERTEX_POINT('',#2001);
#736=VERTEX_POINT('',#2003);
#737=VERTEX_POINT('',#2005);
#738=VERTEX_POINT('',#2008);
#739=VERTEX_POINT('',#2010);
#740=VERTEX_POINT('',#2012);
#741=VERTEX_POINT('',#2014);
#742=VERTEX_POINT('',#2016);
#743=VERTEX_POINT('',#2017);
#744=VERTEX_POINT('',#2019);
#745=VERTEX_POINT('',#2021);
#746=VERTEX_POINT('',#2023);
#747=VERTEX_POINT('',#2025);
#748=VERTEX_POINT('',#2027);
#749=VERTEX_POINT('',#2029);
#750=VERTEX_POINT('',#2033);
#751=VERTEX_POINT('',#2035);
#752=VERTEX_POINT('',#2037);
#753=VERTEX_POINT('',#2039);
#754=VERTEX_POINT('',#2041);
#755=VERTEX_POINT('',#2043);
#756=VERTEX_POINT('',#2045);
#757=VERTEX_POINT('',#2047);
#758=VERTEX_POINT('',#2049);
#759=VERTEX_POINT('',#2051);
#760=VERTEX_POINT('',#2053);
#761=VERTEX_POINT('',#2055);
#762=VERTEX_POINT('',#2057);
#763=VERTEX_POINT('',#2059);
#764=VERTEX_POINT('',#2061);
#765=VERTEX_POINT('',#2063);
#766=VERTEX_POINT('',#2066);
#767=VERTEX_POINT('',#2067);
#768=VERTEX_POINT('',#2069);
#769=VERTEX_POINT('',#2071);
#770=VERTEX_POINT('',#2073);
#771=VERTEX_POINT('',#2075);
#772=VERTEX_POINT('',#2077);
#773=VERTEX_POINT('',#2079);
#774=VERTEX_POINT('',#2083);
#775=VERTEX_POINT('',#2084);
#776=VERTEX_POINT('',#2086);
#777=VERTEX_POINT('',#2088);
#778=VERTEX_POINT('',#2090);
#779=VERTEX_POINT('',#2092);
#780=VERTEX_POINT('',#2094);
#781=VERTEX_POINT('',#2096);
#782=VERTEX_POINT('',#2099);
#783=VERTEX_POINT('',#2100);
#784=VERTEX_POINT('',#2102);
#785=VERTEX_POINT('',#2104);
#786=VERTEX_POINT('',#2107);
#787=VERTEX_POINT('',#2109);
#788=VERTEX_POINT('',#2113);
#789=VERTEX_POINT('',#2114);
#790=VERTEX_POINT('',#2116);
#791=VERTEX_POINT('',#2118);
#792=VERTEX_POINT('',#2121);
#793=VERTEX_POINT('',#2123);
#794=VERTEX_POINT('',#2127);
#795=VERTEX_POINT('',#2128);
#796=VERTEX_POINT('',#2130);
#797=VERTEX_POINT('',#2132);
#798=VERTEX_POINT('',#2135);
#799=VERTEX_POINT('',#2137);
#800=VERTEX_POINT('',#2141);
#801=VERTEX_POINT('',#2142);
#802=VERTEX_POINT('',#2144);
#803=VERTEX_POINT('',#2146);
#804=VERTEX_POINT('',#2148);
#805=VERTEX_POINT('',#2150);
#806=VERTEX_POINT('',#2155);
#807=VERTEX_POINT('',#2159);
#808=VERTEX_POINT('',#2161);
#809=VERTEX_POINT('',#2167);
#810=VERTEX_POINT('',#2169);
#811=VERTEX_POINT('',#2173);
#812=VERTEX_POINT('',#2175);
#813=VERTEX_POINT('',#2179);
#814=VERTEX_POINT('',#2181);
#815=VERTEX_POINT('',#2185);
#816=VERTEX_POINT('',#2187);
#817=VERTEX_POINT('',#2192);
#818=VERTEX_POINT('',#2193);
#819=VERTEX_POINT('',#2195);
#820=VERTEX_POINT('',#2200);
#821=VERTEX_POINT('',#2202);
#822=VERTEX_POINT('',#2206);
#823=VERTEX_POINT('',#2208);
#824=VERTEX_POINT('',#2215);
#825=VERTEX_POINT('',#2217);
#826=VERTEX_POINT('',#2221);
#827=VERTEX_POINT('',#2222);
#828=VERTEX_POINT('',#2227);
#829=VERTEX_POINT('',#2228);
#830=VERTEX_POINT('',#2233);
#831=VERTEX_POINT('',#2234);
#832=VERTEX_POINT('',#2239);
#833=VERTEX_POINT('',#2241);
#834=VERTEX_POINT('',#2266);
#835=VERTEX_POINT('',#2269);
#836=VERTEX_POINT('',#2272);
#837=VERTEX_POINT('',#2275);
#838=VERTEX_POINT('',#2300);
#839=VERTEX_POINT('',#2304);
#840=VERTEX_POINT('',#2308);
#841=VERTEX_POINT('',#2312);
#842=LINE('',#1950,#938);
#843=LINE('',#1953,#939);
#844=LINE('',#1955,#940);
#845=LINE('',#1957,#941);
#846=LINE('',#1959,#942);
#847=LINE('',#1961,#943);
#848=LINE('',#1962,#944);
#849=LINE('',#1967,#945);
#850=LINE('',#1971,#946);
#851=LINE('',#1975,#947);
#852=LINE('',#1991,#948);
#853=LINE('',#1996,#949);
#854=LINE('',#2000,#950);
#855=LINE('',#2004,#951);
#856=LINE('',#2015,#952);
#857=LINE('',#2020,#953);
#858=LINE('',#2024,#954);
#859=LINE('',#2028,#955);
#860=LINE('',#2056,#956);
#861=LINE('',#2060,#957);
#862=LINE('',#2064,#958);
#863=LINE('',#2068,#959);
#864=LINE('',#2072,#960);
#865=LINE('',#2076,#961);
#866=LINE('',#2080,#962);
#867=LINE('',#2085,#963);
#868=LINE('',#2089,#964);
#869=LINE('',#2093,#965);
#870=LINE('',#2097,#966);
#871=LINE('',#2098,#967);
#872=LINE('',#2101,#968);
#873=LINE('',#2103,#969);
#874=LINE('',#2105,#970);
#875=LINE('',#2106,#971);
#876=LINE('',#2108,#972);
#877=LINE('',#2110,#973);
#878=LINE('',#2112,#974);
#879=LINE('',#2115,#975);
#880=LINE('',#2117,#976);
#881=LINE('',#2119,#977);
#882=LINE('',#2120,#978);
#883=LINE('',#2122,#979);
#884=LINE('',#2124,#980);
#885=LINE('',#2126,#981);
#886=LINE('',#2129,#982);
#887=LINE('',#2131,#983);
#888=LINE('',#2133,#984);
#889=LINE('',#2134,#985);
#890=LINE('',#2136,#986);
#891=LINE('',#2138,#987);
#892=LINE('',#2140,#988);
#893=LINE('',#2143,#989);
#894=LINE('',#2145,#990);
#895=LINE('',#2147,#991);
#896=LINE('',#2149,#992);
#897=LINE('',#2151,#993);
#898=LINE('',#2152,#994);
#899=LINE('',#2156,#995);
#900=LINE('',#2166,#996);
#901=LINE('',#2170,#997);
#902=LINE('',#2178,#998);
#903=LINE('',#2182,#999);
#904=LINE('',#2191,#1000);
#905=LINE('',#2194,#1001);
#906=LINE('',#2196,#1002);
#907=LINE('',#2197,#1003);
#908=LINE('',#2199,#1004);
#909=LINE('',#2201,#1005);
#910=LINE('',#2203,#1006);
#911=LINE('',#2205,#1007);
#912=LINE('',#2207,#1008);
#913=LINE('',#2209,#1009);
#914=LINE('',#2223,#1010);
#915=LINE('',#2224,#1011);
#916=LINE('',#2229,#1012);
#917=LINE('',#2230,#1013);
#918=LINE('',#2235,#1014);
#919=LINE('',#2236,#1015);
#920=LINE('',#2238,#1016);
#921=LINE('',#2242,#1017);
#922=LINE('',#2277,#1018);
#923=LINE('',#2278,#1019);
#924=LINE('',#2280,#1020);
#925=LINE('',#2282,#1021);
#926=LINE('',#2284,#1022);
#927=LINE('',#2286,#1023);
#928=LINE('',#2288,#1024);
#929=LINE('',#2290,#1025);
#930=LINE('',#2315,#1026);
#931=LINE('',#2316,#1027);
#932=LINE('',#2318,#1028);
#933=LINE('',#2320,#1029);
#934=LINE('',#2322,#1030);
#935=LINE('',#2324,#1031);
#936=LINE('',#2326,#1032);
#937=LINE('',#2328,#1033);
#938=VECTOR('',#1532,1.);
#939=VECTOR('',#1533,1.);
#940=VECTOR('',#1534,1.);
#941=VECTOR('',#1535,1.);
#942=VECTOR('',#1536,1.);
#943=VECTOR('',#1537,1.);
#944=VECTOR('',#1538,1.);
#945=VECTOR('',#1541,1.);
#946=VECTOR('',#1544,1.);
#947=VECTOR('',#1547,1.);
#948=VECTOR('',#1564,1.);
#949=VECTOR('',#1567,1.);
#950=VECTOR('',#1570,1.);
#951=VECTOR('',#1573,1.);
#952=VECTOR('',#1584,1.);
#953=VECTOR('',#1587,1.);
#954=VECTOR('',#1590,1.);
#955=VECTOR('',#1593,1.);
#956=VECTOR('',#1622,1.);
#957=VECTOR('',#1625,1.);
#958=VECTOR('',#1628,1.);
#959=VECTOR('',#1631,1.);
#960=VECTOR('',#1634,1.);
#961=VECTOR('',#1637,1.);
#962=VECTOR('',#1640,1.);
#963=VECTOR('',#1645,1.);
#964=VECTOR('',#1648,1.);
#965=VECTOR('',#1651,1.);
#966=VECTOR('',#1654,1.);
#967=VECTOR('',#1655,1.);
#968=VECTOR('',#1656,1.);
#969=VECTOR('',#1657,1.);
#970=VECTOR('',#1658,1.);
#971=VECTOR('',#1659,1.);
#972=VECTOR('',#1660,1.);
#973=VECTOR('',#1661,1.);
#974=VECTOR('',#1664,1.);
#975=VECTOR('',#1665,1.);
#976=VECTOR('',#1666,1.);
#977=VECTOR('',#1667,1.);
#978=VECTOR('',#1668,1.);
#979=VECTOR('',#1669,1.);
#980=VECTOR('',#1670,1.);
#981=VECTOR('',#1673,1.);
#982=VECTOR('',#1674,1.);
#983=VECTOR('',#1675,1.);
#984=VECTOR('',#1676,1.);
#985=VECTOR('',#1677,1.);
#986=VECTOR('',#1678,1.);
#987=VECTOR('',#1679,1.);
#988=VECTOR('',#1682,1.);
#989=VECTOR('',#1683,1.);
#990=VECTOR('',#1684,1.);
#991=VECTOR('',#1685,1.);
#992=VECTOR('',#1686,1.);
#993=VECTOR('',#1687,1.);
#994=VECTOR('',#1688,1.);
#995=VECTOR('',#1693,1.);
#996=VECTOR('',#1708,1.);
#997=VECTOR('',#1711,1.);
#998=VECTOR('',#1722,1.);
#999=VECTOR('',#1725,1.);
#1000=VECTOR('',#1738,1.);
#1001=VECTOR('',#1739,1.);
#1002=VECTOR('',#1740,1.);
#1003=VECTOR('',#1741,1.);
#1004=VECTOR('',#1744,1.);
#1005=VECTOR('',#1745,1.);
#1006=VECTOR('',#1746,1.);
#1007=VECTOR('',#1749,1.);
#1008=VECTOR('',#1750,1.);
#1009=VECTOR('',#1751,1.);
#1010=VECTOR('',#1770,1.);
#1011=VECTOR('',#1771,1.);
#1012=VECTOR('',#1776,1.);
#1013=VECTOR('',#1777,1.);
#1014=VECTOR('',#1782,1.);
#1015=VECTOR('',#1783,1.);
#1016=VECTOR('',#1786,1.);
#1017=VECTOR('',#1789,1.);
#1018=VECTOR('',#1850,1.);
#1019=VECTOR('',#1851,1.);
#1020=VECTOR('',#1854,1.);
#1021=VECTOR('',#1857,1.);
#1022=VECTOR('',#1860,1.);
#1023=VECTOR('',#1863,1.);
#1024=VECTOR('',#1866,1.);
#1025=VECTOR('',#1869,1.);
#1026=VECTOR('',#1910,1.);
#1027=VECTOR('',#1911,1.);
#1028=VECTOR('',#1914,1.);
#1029=VECTOR('',#1917,1.);
#1030=VECTOR('',#1920,1.);
#1031=VECTOR('',#1923,1.);
#1032=VECTOR('',#1926,1.);
#1033=VECTOR('',#1929,1.);
#1034=EDGE_LOOP('',(#146,#147,#148,#149,#150,#151));
#1035=EDGE_LOOP('',(#152,#153,#154,#155,#156,#157,#158,#159));
#1036=EDGE_LOOP('',(#160));
#1037=EDGE_LOOP('',(#161));
#1038=EDGE_LOOP('',(#162));
#1039=EDGE_LOOP('',(#163));
#1040=EDGE_LOOP('',(#164));
#1041=EDGE_LOOP('',(#165));
#1042=EDGE_LOOP('',(#166,#167,#168,#169,#170,#171,#172,#173));
#1043=EDGE_LOOP('',(#174));
#1044=EDGE_LOOP('',(#175));
#1045=EDGE_LOOP('',(#176));
#1046=EDGE_LOOP('',(#177));
#1047=EDGE_LOOP('',(#178,#179,#180,#181,#182,#183,#184,#185));
#1048=EDGE_LOOP('',(#186));
#1049=EDGE_LOOP('',(#187));
#1050=EDGE_LOOP('',(#188));
#1051=EDGE_LOOP('',(#189));
#1052=EDGE_LOOP('',(#190));
#1053=EDGE_LOOP('',(#191));
#1054=EDGE_LOOP('',(#192));
#1055=EDGE_LOOP('',(#193));
#1056=EDGE_LOOP('',(#194));
#1057=EDGE_LOOP('',(#195));
#1058=EDGE_LOOP('',(#196,#197,#198,#199,#200,#201,#202,#203));
#1059=EDGE_LOOP('',(#204,#205,#206,#207,#208,#209,#210,#211));
#1060=EDGE_LOOP('',(#212,#213,#214,#215,#216,#217,#218,#219));
#1061=EDGE_LOOP('',(#220,#221,#222,#223,#224,#225,#226,#227));
#1062=EDGE_LOOP('',(#228,#229,#230,#231,#232,#233,#234,#235));
#1063=EDGE_LOOP('',(#236,#237,#238,#239,#240,#241,#242,#243));
#1064=EDGE_LOOP('',(#244,#245,#246,#247,#248,#249,#250,#251));
#1065=EDGE_LOOP('',(#252,#253,#254,#255,#256,#257,#258,#259,#260,#261));
#1066=EDGE_LOOP('',(#262,#263,#264,#265,#266,#267,#268,#269,#270,#271));
#1067=EDGE_LOOP('',(#272,#273,#274,#275,#276,#277,#278,#279,#280,#281));
#1068=EDGE_LOOP('',(#282,#283,#284,#285,#286,#287));
#1069=EDGE_LOOP('',(#288,#289,#290,#291,#292,#293));
#1070=EDGE_LOOP('',(#294,#295,#296,#297,#298,#299));
#1071=EDGE_LOOP('',(#300,#301,#302,#303,#304,#305,#306,#307,#308,#309));
#1072=EDGE_LOOP('',(#310,#311,#312,#313));
#1073=EDGE_LOOP('',(#314,#315,#316,#317));
#1074=EDGE_LOOP('',(#318,#319,#320,#321));
#1075=EDGE_LOOP('',(#322,#323,#324,#325));
#1076=EDGE_LOOP('',(#326,#327,#328,#329,#330,#331,#332,#333,#334,#335,#336,
#337,#338,#339,#340,#341));
#1077=EDGE_LOOP('',(#342,#343,#344,#345,#346,#347,#348,#349));
#1078=EDGE_LOOP('',(#350,#351,#352,#353));
#1079=EDGE_LOOP('',(#354,#355,#356,#357));
#1080=EDGE_LOOP('',(#358,#359,#360,#361));
#1081=EDGE_LOOP('',(#362,#363,#364,#365));
#1082=EDGE_LOOP('',(#366,#367,#368,#369,#370,#371));
#1083=EDGE_LOOP('',(#372,#373,#374,#375,#376,#377));
#1084=EDGE_LOOP('',(#378,#379,#380,#381,#382,#383));
#1085=EDGE_LOOP('',(#384,#385,#386,#387,#388,#389));
#1086=EDGE_LOOP('',(#390));
#1087=EDGE_LOOP('',(#391));
#1088=EDGE_LOOP('',(#392));
#1089=EDGE_LOOP('',(#393));
#1090=EDGE_LOOP('',(#394));
#1091=EDGE_LOOP('',(#395));
#1092=EDGE_LOOP('',(#396));
#1093=EDGE_LOOP('',(#397));
#1094=EDGE_LOOP('',(#398,#399,#400,#401));
#1095=EDGE_LOOP('',(#402,#403,#404,#405));
#1096=EDGE_LOOP('',(#406,#407,#408,#409));
#1097=EDGE_LOOP('',(#410,#411,#412,#413));
#1098=EDGE_LOOP('',(#414,#415,#416,#417));
#1099=EDGE_LOOP('',(#418,#419,#420,#421));
#1100=EDGE_LOOP('',(#422,#423,#424,#425));
#1101=EDGE_LOOP('',(#426,#427,#428,#429));
#1102=EDGE_LOOP('',(#430));
#1103=EDGE_LOOP('',(#431));
#1104=EDGE_LOOP('',(#432));
#1105=EDGE_LOOP('',(#433));
#1106=EDGE_LOOP('',(#434));
#1107=EDGE_LOOP('',(#435));
#1108=EDGE_LOOP('',(#436));
#1109=EDGE_LOOP('',(#437));
#1110=EDGE_LOOP('',(#438));
#1111=EDGE_LOOP('',(#439));
#1112=EDGE_LOOP('',(#440));
#1113=EDGE_LOOP('',(#441));
#1114=EDGE_LOOP('',(#442));
#1115=EDGE_LOOP('',(#443));
#1116=EDGE_LOOP('',(#444));
#1117=EDGE_LOOP('',(#445));
#1118=EDGE_LOOP('',(#446));
#1119=EDGE_LOOP('',(#447));
#1120=EDGE_LOOP('',(#448));
#1121=EDGE_LOOP('',(#449));
#1122=EDGE_LOOP('',(#450));
#1123=EDGE_LOOP('',(#451));
#1124=EDGE_LOOP('',(#452));
#1125=EDGE_LOOP('',(#453));
#1126=EDGE_LOOP('',(#454));
#1127=EDGE_LOOP('',(#455));
#1128=EDGE_LOOP('',(#456));
#1129=EDGE_LOOP('',(#457));
#1130=EDGE_LOOP('',(#458,#459,#460,#461));
#1131=EDGE_LOOP('',(#462,#463,#464,#465));
#1132=EDGE_LOOP('',(#466,#467,#468,#469));
#1133=EDGE_LOOP('',(#470,#471,#472,#473));
#1134=EDGE_LOOP('',(#474,#475,#476,#477));
#1135=EDGE_LOOP('',(#478,#479,#480,#481));
#1136=EDGE_LOOP('',(#482,#483,#484,#485));
#1137=EDGE_LOOP('',(#486,#487,#488,#489));
#1138=EDGE_LOOP('',(#490,#491,#492,#493));
#1139=EDGE_LOOP('',(#494,#495,#496,#497));
#1140=EDGE_LOOP('',(#498,#499,#500,#501));
#1141=EDGE_LOOP('',(#502,#503,#504,#505));
#1142=EDGE_LOOP('',(#506,#507,#508,#509));
#1143=EDGE_LOOP('',(#510,#511,#512,#513));
#1144=EDGE_LOOP('',(#514,#515,#516,#517));
#1145=EDGE_LOOP('',(#518,#519,#520,#521));
#1146=FACE_BOUND('',#1034,.T.);
#1147=FACE_BOUND('',#1035,.T.);
#1148=FACE_BOUND('',#1036,.T.);
#1149=FACE_BOUND('',#1037,.T.);
#1150=FACE_BOUND('',#1038,.T.);
#1151=FACE_BOUND('',#1039,.T.);
#1152=FACE_BOUND('',#1040,.T.);
#1153=FACE_BOUND('',#1041,.T.);
#1154=FACE_BOUND('',#1042,.T.);
#1155=FACE_BOUND('',#1043,.T.);
#1156=FACE_BOUND('',#1044,.T.);
#1157=FACE_BOUND('',#1045,.T.);
#1158=FACE_BOUND('',#1046,.T.);
#1159=FACE_BOUND('',#1047,.T.);
#1160=FACE_BOUND('',#1048,.T.);
#1161=FACE_BOUND('',#1049,.T.);
#1162=FACE_BOUND('',#1050,.T.);
#1163=FACE_BOUND('',#1051,.T.);
#1164=FACE_BOUND('',#1052,.T.);
#1165=FACE_BOUND('',#1053,.T.);
#1166=FACE_BOUND('',#1054,.T.);
#1167=FACE_BOUND('',#1055,.T.);
#1168=FACE_BOUND('',#1056,.T.);
#1169=FACE_BOUND('',#1057,.T.);
#1170=FACE_BOUND('',#1058,.T.);
#1171=FACE_BOUND('',#1059,.T.);
#1172=FACE_BOUND('',#1060,.T.);
#1173=FACE_BOUND('',#1061,.T.);
#1174=FACE_BOUND('',#1062,.T.);
#1175=FACE_BOUND('',#1063,.T.);
#1176=FACE_BOUND('',#1064,.T.);
#1177=FACE_BOUND('',#1065,.T.);
#1178=FACE_BOUND('',#1066,.T.);
#1179=FACE_BOUND('',#1067,.T.);
#1180=FACE_BOUND('',#1068,.T.);
#1181=FACE_BOUND('',#1069,.T.);
#1182=FACE_BOUND('',#1070,.T.);
#1183=FACE_BOUND('',#1071,.T.);
#1184=FACE_BOUND('',#1072,.T.);
#1185=FACE_BOUND('',#1073,.T.);
#1186=FACE_BOUND('',#1074,.T.);
#1187=FACE_BOUND('',#1075,.T.);
#1188=FACE_BOUND('',#1076,.T.);
#1189=FACE_BOUND('',#1077,.T.);
#1190=FACE_BOUND('',#1078,.T.);
#1191=FACE_BOUND('',#1079,.T.);
#1192=FACE_BOUND('',#1080,.T.);
#1193=FACE_BOUND('',#1081,.T.);
#1194=FACE_BOUND('',#1082,.T.);
#1195=FACE_BOUND('',#1083,.T.);
#1196=FACE_BOUND('',#1084,.T.);
#1197=FACE_BOUND('',#1085,.T.);
#1198=FACE_BOUND('',#1086,.T.);
#1199=FACE_BOUND('',#1087,.T.);
#1200=FACE_BOUND('',#1088,.T.);
#1201=FACE_BOUND('',#1089,.T.);
#1202=FACE_BOUND('',#1090,.T.);
#1203=FACE_BOUND('',#1091,.T.);
#1204=FACE_BOUND('',#1092,.T.);
#1205=FACE_BOUND('',#1093,.T.);
#1206=FACE_BOUND('',#1094,.T.);
#1207=FACE_BOUND('',#1095,.T.);
#1208=FACE_BOUND('',#1096,.T.);
#1209=FACE_BOUND('',#1097,.T.);
#1210=FACE_BOUND('',#1098,.T.);
#1211=FACE_BOUND('',#1099,.T.);
#1212=FACE_BOUND('',#1100,.T.);
#1213=FACE_BOUND('',#1101,.T.);
#1214=FACE_BOUND('',#1102,.T.);
#1215=FACE_BOUND('',#1103,.T.);
#1216=FACE_BOUND('',#1104,.T.);
#1217=FACE_BOUND('',#1105,.T.);
#1218=FACE_BOUND('',#1106,.T.);
#1219=FACE_BOUND('',#1107,.T.);
#1220=FACE_BOUND('',#1108,.T.);
#1221=FACE_BOUND('',#1109,.T.);
#1222=FACE_BOUND('',#1110,.T.);
#1223=FACE_BOUND('',#1111,.T.);
#1224=FACE_BOUND('',#1112,.T.);
#1225=FACE_BOUND('',#1113,.T.);
#1226=FACE_BOUND('',#1114,.T.);
#1227=FACE_BOUND('',#1115,.T.);
#1228=FACE_BOUND('',#1116,.T.);
#1229=FACE_BOUND('',#1117,.T.);
#1230=FACE_BOUND('',#1118,.T.);
#1231=FACE_BOUND('',#1119,.T.);
#1232=FACE_BOUND('',#1120,.T.);
#1233=FACE_BOUND('',#1121,.T.);
#1234=FACE_BOUND('',#1122,.T.);
#1235=FACE_BOUND('',#1123,.T.);
#1236=FACE_BOUND('',#1124,.T.);
#1237=FACE_BOUND('',#1125,.T.);
#1238=FACE_BOUND('',#1126,.T.);
#1239=FACE_BOUND('',#1127,.T.);
#1240=FACE_BOUND('',#1128,.T.);
#1241=FACE_BOUND('',#1129,.T.);
#1242=FACE_BOUND('',#1130,.T.);
#1243=FACE_BOUND('',#1131,.T.);
#1244=FACE_BOUND('',#1132,.T.);
#1245=FACE_BOUND('',#1133,.T.);
#1246=FACE_BOUND('',#1134,.T.);
#1247=FACE_BOUND('',#1135,.T.);
#1248=FACE_BOUND('',#1136,.T.);
#1249=FACE_BOUND('',#1137,.T.);
#1250=FACE_BOUND('',#1138,.T.);
#1251=FACE_BOUND('',#1139,.T.);
#1252=FACE_BOUND('',#1140,.T.);
#1253=FACE_BOUND('',#1141,.T.);
#1254=FACE_BOUND('',#1142,.T.);
#1255=FACE_BOUND('',#1143,.T.);
#1256=FACE_BOUND('',#1144,.T.);
#1257=FACE_BOUND('',#1145,.T.);
#1258=PLANE('',#1367);
#1259=PLANE('',#1372);
#1260=PLANE('',#1391);
#1261=PLANE('',#1410);
#1262=PLANE('',#1415);
#1263=PLANE('',#1416);
#1264=PLANE('',#1417);
#1265=PLANE('',#1418);
#1266=PLANE('',#1425);
#1267=PLANE('',#1432);
#1268=PLANE('',#1439);
#1269=PLANE('',#1440);
#1270=PLANE('',#1441);
#1271=PLANE('',#1442);
#1272=PLANE('',#1457);
#1273=PLANE('',#1486);
#1274=PLANE('',#1488);
#1275=PLANE('',#1490);
#1276=PLANE('',#1492);
#1277=PLANE('',#1502);
#1278=PLANE('',#1505);
#1279=PLANE('',#1508);
#1280=PLANE('',#1511);
#1281=PLANE('',#1513);
#1282=PLANE('',#1514);
#1283=PLANE('',#1516);
#1284=PLANE('',#1518);
#1285=ADVANCED_FACE('',(#1146,#1147),#1258,.T.);
#1286=ADVANCED_FACE('',(#1148,#1149,#1150,#1151,#1152,#1153,#1154,#1155,
#1156,#1157,#1158,#1159),#1259,.F.);
#1287=ADVANCED_FACE('',(#1160,#1161,#1162,#1163,#1164,#1165,#1166,#1167,
#1168,#1169,#1170,#1171),#1260,.T.);
#1288=ADVANCED_FACE('',(#1172,#1173),#1261,.T.);
#1289=ADVANCED_FACE('',(#1174),#1262,.T.);
#1290=ADVANCED_FACE('',(#1175),#1263,.T.);
#1291=ADVANCED_FACE('',(#1176),#1264,.T.);
#1292=ADVANCED_FACE('',(#1177),#1265,.F.);
#1293=ADVANCED_FACE('',(#1178),#1266,.F.);
#1294=ADVANCED_FACE('',(#1179),#1267,.F.);
#1295=ADVANCED_FACE('',(#1180),#1268,.T.);
#1296=ADVANCED_FACE('',(#1181),#1269,.F.);
#1297=ADVANCED_FACE('',(#1182),#1270,.T.);
#1298=ADVANCED_FACE('',(#1183),#1271,.F.);
#1299=ADVANCED_FACE('',(#1184),#12,.T.);
#1300=ADVANCED_FACE('',(#1185),#13,.T.);
#1301=ADVANCED_FACE('',(#1186),#14,.T.);
#1302=ADVANCED_FACE('',(#1187),#15,.T.);
#1303=ADVANCED_FACE('',(#1188,#1189),#1272,.T.);
#1304=ADVANCED_FACE('',(#1190),#16,.F.);
#1305=ADVANCED_FACE('',(#1191),#17,.F.);
#1306=ADVANCED_FACE('',(#1192),#18,.F.);
#1307=ADVANCED_FACE('',(#1193),#19,.F.);
#1308=ADVANCED_FACE('',(#1194),#20,.F.);
#1309=ADVANCED_FACE('',(#1195),#21,.F.);
#1310=ADVANCED_FACE('',(#1196),#22,.F.);
#1311=ADVANCED_FACE('',(#1197),#23,.F.);
#1312=ADVANCED_FACE('',(#1198,#1199),#24,.F.);
#1313=ADVANCED_FACE('',(#1200,#1201),#25,.F.);
#1314=ADVANCED_FACE('',(#1202,#1203),#26,.F.);
#1315=ADVANCED_FACE('',(#1204,#1205),#27,.F.);
#1316=ADVANCED_FACE('',(#1206),#1273,.T.);
#1317=ADVANCED_FACE('',(#1207),#28,.F.);
#1318=ADVANCED_FACE('',(#1208),#1274,.F.);
#1319=ADVANCED_FACE('',(#1209),#29,.F.);
#1320=ADVANCED_FACE('',(#1210),#1275,.F.);
#1321=ADVANCED_FACE('',(#1211),#30,.F.);
#1322=ADVANCED_FACE('',(#1212),#1276,.T.);
#1323=ADVANCED_FACE('',(#1213),#31,.F.);
#1324=ADVANCED_FACE('',(#1214,#1215),#32,.F.);
#1325=ADVANCED_FACE('',(#1216,#1217),#33,.F.);
#1326=ADVANCED_FACE('',(#1218,#1219),#34,.F.);
#1327=ADVANCED_FACE('',(#1220,#1221),#35,.F.);
#1328=ADVANCED_FACE('',(#1222,#1223),#36,.F.);
#1329=ADVANCED_FACE('',(#1224,#1225),#37,.F.);
#1330=ADVANCED_FACE('',(#1226,#1227),#38,.T.);
#1331=ADVANCED_FACE('',(#1228,#1229),#1277,.T.);
#1332=ADVANCED_FACE('',(#1230,#1231),#39,.T.);
#1333=ADVANCED_FACE('',(#1232,#1233),#1278,.T.);
#1334=ADVANCED_FACE('',(#1234,#1235),#40,.T.);
#1335=ADVANCED_FACE('',(#1236,#1237),#1279,.T.);
#1336=ADVANCED_FACE('',(#1238,#1239),#41,.T.);
#1337=ADVANCED_FACE('',(#1240,#1241),#1280,.T.);
#1338=ADVANCED_FACE('',(#1242),#42,.F.);
#1339=ADVANCED_FACE('',(#1243),#1281,.T.);
#1340=ADVANCED_FACE('',(#1244),#1282,.T.);
#1341=ADVANCED_FACE('',(#1245),#43,.F.);
#1342=ADVANCED_FACE('',(#1246),#1283,.F.);
#1343=ADVANCED_FACE('',(#1247),#44,.F.);
#1344=ADVANCED_FACE('',(#1248),#1284,.F.);
#1345=ADVANCED_FACE('',(#1249),#45,.F.);
#1346=ADVANCED_FACE('',(#1250),#46,.F.);
#1347=ADVANCED_FACE('',(#1251),#47,.F.);
#1348=ADVANCED_FACE('',(#1252),#48,.F.);
#1349=ADVANCED_FACE('',(#1253),#49,.F.);
#1350=ADVANCED_FACE('',(#1254),#50,.F.);
#1351=ADVANCED_FACE('',(#1255),#51,.F.);
#1352=ADVANCED_FACE('',(#1256),#52,.F.);
#1353=ADVANCED_FACE('',(#1257),#53,.F.);
#1354=CLOSED_SHELL('',(#1285,#1286,#1287,#1288,#1289,#1290,#1291,#1292,
#1293,#1294,#1295,#1296,#1297,#1298,#1299,#1300,#1301,#1302,#1303,#1304,
#1305,#1306,#1307,#1308,#1309,#1310,#1311,#1312,#1313,#1314,#1315,#1316,
#1317,#1318,#1319,#1320,#1321,#1322,#1323,#1324,#1325,#1326,#1327,#1328,
#1329,#1330,#1331,#1332,#1333,#1334,#1335,#1336,#1337,#1338,#1339,#1340,
#1341,#1342,#1343,#1344,#1345,#1346,#1347,#1348,#1349,#1350,#1351,#1352,
#1353));
#1355=STYLED_ITEM('',(#1356),#1363);
#1356=PRESENTATION_STYLE_ASSIGNMENT((#1357));
#1357=SURFACE_STYLE_USAGE(.BOTH.,#1358);
#1358=SURFACE_SIDE_STYLE('',(#1359));
#1359=SURFACE_STYLE_FILL_AREA(#1360);
#1360=FILL_AREA_STYLE('',(#1361));
#1361=FILL_AREA_STYLE_COLOUR('',#1362);
#1362=COLOUR_RGB('',0.768627450980392,0.886274509803922,0.952941176470588);
#1363=MANIFOLD_SOLID_BREP('bottom case',#1354);
#1364=SHAPE_DEFINITION_REPRESENTATION(#2344,#1365);
#1365=SHAPE_REPRESENTATION('bottom case',(#1366),#2339);
#1366=AXIS2_PLACEMENT_3D('',#1948,#1528,#1529);
#1367=AXIS2_PLACEMENT_3D('',#1949,#1530,#1531);
#1368=AXIS2_PLACEMENT_3D('',#1965,#1539,#1540);
#1369=AXIS2_PLACEMENT_3D('',#1969,#1542,#1543);
#1370=AXIS2_PLACEMENT_3D('',#1973,#1545,#1546);
#1371=AXIS2_PLACEMENT_3D('',#1977,#1548,#1549);
#1372=AXIS2_PLACEMENT_3D('',#1978,#1550,#1551);
#1373=AXIS2_PLACEMENT_3D('',#1979,#1552,#1553);
#1374=AXIS2_PLACEMENT_3D('',#1981,#1554,#1555);
#1375=AXIS2_PLACEMENT_3D('',#1983,#1556,#1557);
#1376=AXIS2_PLACEMENT_3D('',#1985,#1558,#1559);
#1377=AXIS2_PLACEMENT_3D('',#1987,#1560,#1561);
#1378=AXIS2_PLACEMENT_3D('',#1989,#1562,#1563);
#1379=AXIS2_PLACEMENT_3D('',#1994,#1565,#1566);
#1380=AXIS2_PLACEMENT_3D('',#1998,#1568,#1569);
#1381=AXIS2_PLACEMENT_3D('',#2002,#1571,#1572);
#1382=AXIS2_PLACEMENT_3D('',#2006,#1574,#1575);
#1383=AXIS2_PLACEMENT_3D('',#2007,#1576,#1577);
#1384=AXIS2_PLACEMENT_3D('',#2009,#1578,#1579);
#1385=AXIS2_PLACEMENT_3D('',#2011,#1580,#1581);
#1386=AXIS2_PLACEMENT_3D('',#2013,#1582,#1583);
#1387=AXIS2_PLACEMENT_3D('',#2018,#1585,#1586);
#1388=AXIS2_PLACEMENT_3D('',#2022,#1588,#1589);
#1389=AXIS2_PLACEMENT_3D('',#2026,#1591,#1592);
#1390=AXIS2_PLACEMENT_3D('',#2030,#1594,#1595);
#1391=AXIS2_PLACEMENT_3D('',#2031,#1596,#1597);
#1392=AXIS2_PLACEMENT_3D('',#2032,#1598,#1599);
#1393=AXIS2_PLACEMENT_3D('',#2034,#1600,#1601);
#1394=AXIS2_PLACEMENT_3D('',#2036,#1602,#1603);
#1395=AXIS2_PLACEMENT_3D('',#2038,#1604,#1605);
#1396=AXIS2_PLACEMENT_3D('',#2040,#1606,#1607);
#1397=AXIS2_PLACEMENT_3D('',#2042,#1608,#1609);
#1398=AXIS2_PLACEMENT_3D('',#2044,#1610,#1611);
#1399=AXIS2_PLACEMENT_3D('',#2046,#1612,#1613);
#1400=AXIS2_PLACEMENT_3D('',#2048,#1614,#1615);
#1401=AXIS2_PLACEMENT_3D('',#2050,#1616,#1617);
#1402=AXIS2_PLACEMENT_3D('',#2052,#1618,#1619);
#1403=AXIS2_PLACEMENT_3D('',#2054,#1620,#1621);
#1404=AXIS2_PLACEMENT_3D('',#2058,#1623,#1624);
#1405=AXIS2_PLACEMENT_3D('',#2062,#1626,#1627);
#1406=AXIS2_PLACEMENT_3D('',#2065,#1629,#1630);
#1407=AXIS2_PLACEMENT_3D('',#2070,#1632,#1633);
#1408=AXIS2_PLACEMENT_3D('',#2074,#1635,#1636);
#1409=AXIS2_PLACEMENT_3D('',#2078,#1638,#1639);
#1410=AXIS2_PLACEMENT_3D('',#2081,#1641,#1642);
#1411=AXIS2_PLACEMENT_3D('',#2082,#1643,#1644);
#1412=AXIS2_PLACEMENT_3D('',#2087,#1646,#1647);
#1413=AXIS2_PLACEMENT_3D('',#2091,#1649,#1650);
#1414=AXIS2_PLACEMENT_3D('',#2095,#1652,#1653);
#1415=AXIS2_PLACEMENT_3D('',#2111,#1662,#1663);
#1416=AXIS2_PLACEMENT_3D('',#2125,#1671,#1672);
#1417=AXIS2_PLACEMENT_3D('',#2139,#1680,#1681);
#1418=AXIS2_PLACEMENT_3D('',#2153,#1689,#1690);
#1419=AXIS2_PLACEMENT_3D('',#2154,#1691,#1692);
#1420=AXIS2_PLACEMENT_3D('',#2157,#1694,#1695);
#1421=AXIS2_PLACEMENT_3D('',#2158,#1696,#1697);
#1422=AXIS2_PLACEMENT_3D('',#2160,#1698,#1699);
#1423=AXIS2_PLACEMENT_3D('',#2162,#1700,#1701);
#1424=AXIS2_PLACEMENT_3D('',#2163,#1702,#1703);
#1425=AXIS2_PLACEMENT_3D('',#2164,#1704,#1705);
#1426=AXIS2_PLACEMENT_3D('',#2165,#1706,#1707);
#1427=AXIS2_PLACEMENT_3D('',#2168,#1709,#1710);
#1428=AXIS2_PLACEMENT_3D('',#2171,#1712,#1713);
#1429=AXIS2_PLACEMENT_3D('',#2172,#1714,#1715);
#1430=AXIS2_PLACEMENT_3D('',#2174,#1716,#1717);
#1431=AXIS2_PLACEMENT_3D('',#2176,#1718,#1719);
#1432=AXIS2_PLACEMENT_3D('',#2177,#1720,#1721);
#1433=AXIS2_PLACEMENT_3D('',#2180,#1723,#1724);
#1434=AXIS2_PLACEMENT_3D('',#2183,#1726,#1727);
#1435=AXIS2_PLACEMENT_3D('',#2184,#1728,#1729);
#1436=AXIS2_PLACEMENT_3D('',#2186,#1730,#1731);
#1437=AXIS2_PLACEMENT_3D('',#2188,#1732,#1733);
#1438=AXIS2_PLACEMENT_3D('',#2189,#1734,#1735);
#1439=AXIS2_PLACEMENT_3D('',#2190,#1736,#1737);
#1440=AXIS2_PLACEMENT_3D('',#2198,#1742,#1743);
#1441=AXIS2_PLACEMENT_3D('',#2204,#1747,#1748);
#1442=AXIS2_PLACEMENT_3D('',#2210,#1752,#1753);
#1443=AXIS2_PLACEMENT_3D('',#2211,#1754,#1755);
#1444=AXIS2_PLACEMENT_3D('',#2212,#1756,#1757);
#1445=AXIS2_PLACEMENT_3D('',#2213,#1758,#1759);
#1446=AXIS2_PLACEMENT_3D('',#2214,#1760,#1761);
#1447=AXIS2_PLACEMENT_3D('',#2216,#1762,#1763);
#1448=AXIS2_PLACEMENT_3D('',#2218,#1764,#1765);
#1449=AXIS2_PLACEMENT_3D('',#2219,#1766,#1767);
#1450=AXIS2_PLACEMENT_3D('',#2220,#1768,#1769);
#1451=AXIS2_PLACEMENT_3D('',#2225,#1772,#1773);
#1452=AXIS2_PLACEMENT_3D('',#2226,#1774,#1775);
#1453=AXIS2_PLACEMENT_3D('',#2231,#1778,#1779);
#1454=AXIS2_PLACEMENT_3D('',#2232,#1780,#1781);
#1455=AXIS2_PLACEMENT_3D('',#2237,#1784,#1785);
#1456=AXIS2_PLACEMENT_3D('',#2240,#1787,#1788);
#1457=AXIS2_PLACEMENT_3D('',#2243,#1790,#1791);
#1458=AXIS2_PLACEMENT_3D('',#2244,#1792,#1793);
#1459=AXIS2_PLACEMENT_3D('',#2245,#1794,#1795);
#1460=AXIS2_PLACEMENT_3D('',#2246,#1796,#1797);
#1461=AXIS2_PLACEMENT_3D('',#2247,#1798,#1799);
#1462=AXIS2_PLACEMENT_3D('',#2248,#1800,#1801);
#1463=AXIS2_PLACEMENT_3D('',#2249,#1802,#1803);
#1464=AXIS2_PLACEMENT_3D('',#2250,#1804,#1805);
#1465=AXIS2_PLACEMENT_3D('',#2251,#1806,#1807);
#1466=AXIS2_PLACEMENT_3D('',#2252,#1808,#1809);
#1467=AXIS2_PLACEMENT_3D('',#2253,#1810,#1811);
#1468=AXIS2_PLACEMENT_3D('',#2254,#1812,#1813);
#1469=AXIS2_PLACEMENT_3D('',#2255,#1814,#1815);
#1470=AXIS2_PLACEMENT_3D('',#2256,#1816,#1817);
#1471=AXIS2_PLACEMENT_3D('',#2257,#1818,#1819);
#1472=AXIS2_PLACEMENT_3D('',#2258,#1820,#1821);
#1473=AXIS2_PLACEMENT_3D('',#2259,#1822,#1823);
#1474=AXIS2_PLACEMENT_3D('',#2260,#1824,#1825);
#1475=AXIS2_PLACEMENT_3D('',#2261,#1826,#1827);
#1476=AXIS2_PLACEMENT_3D('',#2262,#1828,#1829);
#1477=AXIS2_PLACEMENT_3D('',#2263,#1830,#1831);
#1478=AXIS2_PLACEMENT_3D('',#2264,#1832,#1833);
#1479=AXIS2_PLACEMENT_3D('',#2265,#1834,#1835);
#1480=AXIS2_PLACEMENT_3D('',#2267,#1836,#1837);
#1481=AXIS2_PLACEMENT_3D('',#2268,#1838,#1839);
#1482=AXIS2_PLACEMENT_3D('',#2270,#1840,#1841);
#1483=AXIS2_PLACEMENT_3D('',#2271,#1842,#1843);
#1484=AXIS2_PLACEMENT_3D('',#2273,#1844,#1845);
#1485=AXIS2_PLACEMENT_3D('',#2274,#1846,#1847);
#1486=AXIS2_PLACEMENT_3D('',#2276,#1848,#1849);
#1487=AXIS2_PLACEMENT_3D('',#2279,#1852,#1853);
#1488=AXIS2_PLACEMENT_3D('',#2281,#1855,#1856);
#1489=AXIS2_PLACEMENT_3D('',#2283,#1858,#1859);
#1490=AXIS2_PLACEMENT_3D('',#2285,#1861,#1862);
#1491=AXIS2_PLACEMENT_3D('',#2287,#1864,#1865);
#1492=AXIS2_PLACEMENT_3D('',#2289,#1867,#1868);
#1493=AXIS2_PLACEMENT_3D('',#2291,#1870,#1871);
#1494=AXIS2_PLACEMENT_3D('',#2292,#1872,#1873);
#1495=AXIS2_PLACEMENT_3D('',#2293,#1874,#1875);
#1496=AXIS2_PLACEMENT_3D('',#2294,#1876,#1877);
#1497=AXIS2_PLACEMENT_3D('',#2295,#1878,#1879);
#1498=AXIS2_PLACEMENT_3D('',#2296,#1880,#1881);
#1499=AXIS2_PLACEMENT_3D('',#2297,#1882,#1883);
#1500=AXIS2_PLACEMENT_3D('',#2298,#1884,#1885);
#1501=AXIS2_PLACEMENT_3D('',#2299,#1886,#1887);
#1502=AXIS2_PLACEMENT_3D('',#2301,#1888,#1889);
#1503=AXIS2_PLACEMENT_3D('',#2302,#1890,#1891);
#1504=AXIS2_PLACEMENT_3D('',#2303,#1892,#1893);
#1505=AXIS2_PLACEMENT_3D('',#2305,#1894,#1895);
#1506=AXIS2_PLACEMENT_3D('',#2306,#1896,#1897);
#1507=AXIS2_PLACEMENT_3D('',#2307,#1898,#1899);
#1508=AXIS2_PLACEMENT_3D('',#2309,#1900,#1901);
#1509=AXIS2_PLACEMENT_3D('',#2310,#1902,#1903);
#1510=AXIS2_PLACEMENT_3D('',#2311,#1904,#1905);
#1511=AXIS2_PLACEMENT_3D('',#2313,#1906,#1907);
#1512=AXIS2_PLACEMENT_3D('',#2314,#1908,#1909);
#1513=AXIS2_PLACEMENT_3D('',#2317,#1912,#1913);
#1514=AXIS2_PLACEMENT_3D('',#2319,#1915,#1916);
#1515=AXIS2_PLACEMENT_3D('',#2321,#1918,#1919);
#1516=AXIS2_PLACEMENT_3D('',#2323,#1921,#1922);
#1517=AXIS2_PLACEMENT_3D('',#2325,#1924,#1925);
#1518=AXIS2_PLACEMENT_3D('',#2327,#1927,#1928);
#1519=AXIS2_PLACEMENT_3D('',#2329,#1930,#1931);
#1520=AXIS2_PLACEMENT_3D('',#2330,#1932,#1933);
#1521=AXIS2_PLACEMENT_3D('',#2331,#1934,#1935);
#1522=AXIS2_PLACEMENT_3D('',#2332,#1936,#1937);
#1523=AXIS2_PLACEMENT_3D('',#2333,#1938,#1939);
#1524=AXIS2_PLACEMENT_3D('',#2334,#1940,#1941);
#1525=AXIS2_PLACEMENT_3D('',#2335,#1942,#1943);
#1526=AXIS2_PLACEMENT_3D('',#2336,#1944,#1945);
#1527=AXIS2_PLACEMENT_3D('',#2337,#1946,#1947);
#1528=DIRECTION('',(0.,0.,1.));
#1529=DIRECTION('',(1.,0.,0.));
#1530=DIRECTION('',(0.,-1.,0.));
#1531=DIRECTION('',(0.,0.,-1.));
#1532=DIRECTION('',(-1.,0.,0.));
#1533=DIRECTION('',(0.,0.,-1.));
#1534=DIRECTION('',(-1.,0.,0.));
#1535=DIRECTION('',(-1.,0.,0.));
#1536=DIRECTION('',(-1.,0.,0.));
#1537=DIRECTION('',(0.,0.,-1.));
#1538=DIRECTION('',(1.,0.,-1.92747052886312E-16));
#1539=DIRECTION('',(0.,-1.,0.));
#1540=DIRECTION('',(0.,0.,-1.));
#1541=DIRECTION('',(2.16840434497101E-16,0.,1.));
#1542=DIRECTION('',(0.,-1.,0.));
#1543=DIRECTION('',(0.,0.,-1.));
#1544=DIRECTION('',(1.,0.,0.));
#1545=DIRECTION('',(0.,-1.,0.));
#1546=DIRECTION('',(0.,0.,-1.));
#1547=DIRECTION('',(2.16840434497101E-16,0.,1.));
#1548=DIRECTION('',(0.,-1.,0.));
#1549=DIRECTION('',(0.,0.,-1.));
#1550=DIRECTION('',(0.,0.,1.));
#1551=DIRECTION('',(1.,0.,0.));
#1552=DIRECTION('',(0.,0.,-1.));
#1553=DIRECTION('',(-1.,0.,0.));
#1554=DIRECTION('',(0.,0.,-1.));
#1555=DIRECTION('',(-1.,0.,0.));
#1556=DIRECTION('',(0.,0.,-1.));
#1557=DIRECTION('',(-1.,0.,0.));
#1558=DIRECTION('',(0.,0.,-1.));
#1559=DIRECTION('',(-1.,0.,0.));
#1560=DIRECTION('',(0.,0.,-1.));
#1561=DIRECTION('',(-1.,0.,0.));
#1562=DIRECTION('',(0.,0.,1.));
#1563=DIRECTION('',(1.,0.,0.));
#1564=DIRECTION('',(1.,0.,0.));
#1565=DIRECTION('',(0.,0.,1.));
#1566=DIRECTION('',(1.,0.,0.));
#1567=DIRECTION('',(0.,-1.,0.));
#1568=DIRECTION('',(0.,0.,1.));
#1569=DIRECTION('',(1.,0.,0.));
#1570=DIRECTION('',(-1.,0.,0.));
#1571=DIRECTION('',(0.,0.,1.));
#1572=DIRECTION('',(1.,0.,0.));
#1573=DIRECTION('',(0.,1.,0.));
#1574=DIRECTION('',(0.,0.,1.));
#1575=DIRECTION('',(1.,0.,0.));
#1576=DIRECTION('',(0.,0.,-1.));
#1577=DIRECTION('',(-1.,0.,0.));
#1578=DIRECTION('',(0.,0.,-1.));
#1579=DIRECTION('',(-1.,0.,0.));
#1580=DIRECTION('',(0.,0.,-1.));
#1581=DIRECTION('',(-1.,0.,0.));
#1582=DIRECTION('',(0.,0.,-1.));
#1583=DIRECTION('',(-1.,0.,0.));
#1584=DIRECTION('',(-1.,0.,0.));
#1585=DIRECTION('',(0.,0.,-1.));
#1586=DIRECTION('',(-1.,0.,0.));
#1587=DIRECTION('',(-1.73472347597681E-16,-1.,0.));
#1588=DIRECTION('',(0.,0.,-1.));
#1589=DIRECTION('',(-1.,0.,0.));
#1590=DIRECTION('',(-1.,0.,0.));
#1591=DIRECTION('',(0.,0.,-1.));
#1592=DIRECTION('',(-1.,0.,0.));
#1593=DIRECTION('',(-1.73472347597681E-16,-1.,0.));
#1594=DIRECTION('',(0.,0.,-1.));
#1595=DIRECTION('',(-1.,0.,0.));
#1596=DIRECTION('',(0.,0.,1.));
#1597=DIRECTION('',(1.,0.,0.));
#1598=DIRECTION('',(0.,0.,1.));
#1599=DIRECTION('',(1.,0.,0.));
#1600=DIRECTION('',(0.,0.,1.));
#1601=DIRECTION('',(1.,0.,0.));
#1602=DIRECTION('',(0.,0.,1.));
#1603=DIRECTION('',(1.,0.,0.));
#1604=DIRECTION('',(0.,0.,1.));
#1605=DIRECTION('',(1.,0.,0.));
#1606=DIRECTION('',(0.,0.,1.));
#1607=DIRECTION('',(1.,0.,0.));
#1608=DIRECTION('',(0.,0.,1.));
#1609=DIRECTION('',(1.,0.,0.));
#1610=DIRECTION('',(0.,0.,1.));
#1611=DIRECTION('',(1.,0.,0.));
#1612=DIRECTION('',(0.,0.,1.));
#1613=DIRECTION('',(1.,0.,0.));
#1614=DIRECTION('',(0.,0.,1.));
#1615=DIRECTION('',(1.,0.,0.));
#1616=DIRECTION('',(0.,0.,1.));
#1617=DIRECTION('',(1.,0.,0.));
#1618=DIRECTION('',(0.,0.,1.));
#1619=DIRECTION('',(1.,0.,0.));
#1620=DIRECTION('',(0.,0.,1.));
#1621=DIRECTION('',(1.,0.,0.));
#1622=DIRECTION('',(0.,-1.,0.));
#1623=DIRECTION('',(0.,0.,1.));
#1624=DIRECTION('',(1.,0.,0.));
#1625=DIRECTION('',(-1.,0.,0.));
#1626=DIRECTION('',(0.,0.,1.));
#1627=DIRECTION('',(1.,0.,0.));
#1628=DIRECTION('',(0.,1.,0.));
#1629=DIRECTION('',(0.,0.,1.));
#1630=DIRECTION('',(1.,0.,0.));
#1631=DIRECTION('',(1.,0.,0.));
#1632=DIRECTION('',(0.,0.,1.));
#1633=DIRECTION('',(1.,0.,0.));
#1634=DIRECTION('',(1.73472347597681E-16,1.,0.));
#1635=DIRECTION('',(0.,0.,1.));
#1636=DIRECTION('',(1.,0.,0.));
#1637=DIRECTION('',(1.,0.,0.));
#1638=DIRECTION('',(0.,0.,1.));
#1639=DIRECTION('',(1.,0.,0.));
#1640=DIRECTION('',(1.73472347597681E-16,1.,0.));
#1641=DIRECTION('',(0.,1.,0.));
#1642=DIRECTION('',(0.,0.,1.));
#1643=DIRECTION('',(0.,1.,0.));
#1644=DIRECTION('',(0.,0.,1.));
#1645=DIRECTION('',(1.,0.,-1.92747052886312E-16));
#1646=DIRECTION('',(0.,1.,0.));
#1647=DIRECTION('',(0.,0.,1.));
#1648=DIRECTION('',(2.16840434497101E-16,0.,1.));
#1649=DIRECTION('',(0.,1.,0.));
#1650=DIRECTION('',(0.,0.,1.));
#1651=DIRECTION('',(1.,0.,0.));
#1652=DIRECTION('',(0.,1.,0.));
#1653=DIRECTION('',(0.,0.,1.));
#1654=DIRECTION('',(2.16840434497101E-16,0.,1.));
#1655=DIRECTION('',(1.,0.,0.));
#1656=DIRECTION('',(0.,0.,-1.));
#1657=DIRECTION('',(1.,0.,0.));
#1658=DIRECTION('',(0.,0.,1.));
#1659=DIRECTION('',(0.,0.,1.));
#1660=DIRECTION('',(1.,0.,0.));
#1661=DIRECTION('',(0.,0.,-1.));
#1662=DIRECTION('',(-1.,0.,0.));
#1663=DIRECTION('',(0.,0.,1.));
#1664=DIRECTION('',(0.,1.,0.));
#1665=DIRECTION('',(0.,0.,-1.));
#1666=DIRECTION('',(0.,1.,0.));
#1667=DIRECTION('',(0.,0.,1.));
#1668=DIRECTION('',(0.,0.,1.));
#1669=DIRECTION('',(0.,1.,0.));
#1670=DIRECTION('',(0.,0.,-1.));
#1671=DIRECTION('',(0.,-1.,0.));
#1672=DIRECTION('',(0.,0.,-1.));
#1673=DIRECTION('',(-1.,0.,0.));
#1674=DIRECTION('',(0.,0.,-1.));
#1675=DIRECTION('',(-1.,0.,0.));
#1676=DIRECTION('',(0.,0.,1.));
#1677=DIRECTION('',(0.,0.,1.));
#1678=DIRECTION('',(-1.,0.,0.));
#1679=DIRECTION('',(0.,0.,-1.));
#1680=DIRECTION('',(1.,0.,0.));
#1681=DIRECTION('',(0.,0.,-1.));
#1682=DIRECTION('',(0.,-1.,0.));
#1683=DIRECTION('',(0.,0.,-1.));
#1684=DIRECTION('',(0.,-1.,0.));
#1685=DIRECTION('',(0.,0.,-1.));
#1686=DIRECTION('',(0.,-1.,0.));
#1687=DIRECTION('',(0.,0.,1.));
#1688=DIRECTION('',(0.,0.,1.));
#1689=DIRECTION('',(0.,0.,1.));
#1690=DIRECTION('',(1.,0.,0.));
#1691=DIRECTION('',(0.,0.,1.));
#1692=DIRECTION('',(1.,0.,0.));
#1693=DIRECTION('',(0.,-1.,0.));
#1694=DIRECTION('',(0.,0.,1.));
#1695=DIRECTION('',(1.,0.,0.));
#1696=DIRECTION('',(0.,0.,1.));
#1697=DIRECTION('',(1.,0.,0.));
#1698=DIRECTION('',(0.,0.,1.));
#1699=DIRECTION('',(1.,0.,0.));
#1700=DIRECTION('',(0.,0.,1.));
#1701=DIRECTION('',(1.,0.,0.));
#1702=DIRECTION('',(0.,0.,1.));
#1703=DIRECTION('',(1.,0.,0.));
#1704=DIRECTION('',(0.,0.,1.));
#1705=DIRECTION('',(1.,0.,0.));
#1706=DIRECTION('',(0.,0.,1.));
#1707=DIRECTION('',(1.,0.,0.));
#1708=DIRECTION('',(0.,-1.,0.));
#1709=DIRECTION('',(0.,0.,1.));
#1710=DIRECTION('',(1.,0.,0.));
#1711=DIRECTION('',(-1.,0.,0.));
#1712=DIRECTION('',(0.,0.,1.));
#1713=DIRECTION('',(1.,0.,0.));
#1714=DIRECTION('',(0.,0.,1.));
#1715=DIRECTION('',(1.,0.,0.));
#1716=DIRECTION('',(0.,0.,1.));
#1717=DIRECTION('',(1.,0.,0.));
#1718=DIRECTION('',(0.,0.,1.));
#1719=DIRECTION('',(1.,0.,0.));
#1720=DIRECTION('',(0.,0.,1.));
#1721=DIRECTION('',(1.,0.,0.));
#1722=DIRECTION('',(-1.,0.,0.));
#1723=DIRECTION('',(0.,0.,1.));
#1724=DIRECTION('',(1.,0.,0.));
#1725=DIRECTION('',(0.,1.,0.));
#1726=DIRECTION('',(0.,0.,1.));
#1727=DIRECTION('',(1.,0.,0.));
#1728=DIRECTION('',(0.,0.,1.));
#1729=DIRECTION('',(1.,0.,0.));
#1730=DIRECTION('',(0.,0.,1.));
#1731=DIRECTION('',(1.,0.,0.));
#1732=DIRECTION('',(0.,0.,1.));
#1733=DIRECTION('',(1.,0.,0.));
#1734=DIRECTION('',(0.,0.,1.));
#1735=DIRECTION('',(1.,0.,0.));
#1736=DIRECTION('',(-1.,0.,0.));
#1737=DIRECTION('',(0.,0.,1.));
#1738=DIRECTION('',(0.,1.,0.));
#1739=DIRECTION('',(0.,0.,-1.));
#1740=DIRECTION('',(0.,1.,0.));
#1741=DIRECTION('',(0.,0.,-1.));
#1742=DIRECTION('',(0.,-1.,0.));
#1743=DIRECTION('',(0.,0.,-1.));
#1744=DIRECTION('',(0.,0.,-1.));
#1745=DIRECTION('',(0.,0.,-1.));
#1746=DIRECTION('',(-1.,0.,0.));
#1747=DIRECTION('',(1.,0.,0.));
#1748=DIRECTION('',(0.,0.,-1.));
#1749=DIRECTION('',(0.,0.,-1.));
#1750=DIRECTION('',(0.,-1.,0.));
#1751=DIRECTION('',(0.,0.,-1.));
#1752=DIRECTION('',(0.,0.,1.));
#1753=DIRECTION('',(1.,0.,0.));
#1754=DIRECTION('',(0.,0.,1.));
#1755=DIRECTION('',(1.,0.,0.));
#1756=DIRECTION('',(0.,0.,1.));
#1757=DIRECTION('',(1.,0.,0.));
#1758=DIRECTION('',(0.,0.,1.));
#1759=DIRECTION('',(1.,0.,0.));
#1760=DIRECTION('',(0.,0.,1.));
#1761=DIRECTION('',(1.,0.,0.));
#1762=DIRECTION('',(0.,0.,1.));
#1763=DIRECTION('',(1.,0.,0.));
#1764=DIRECTION('',(0.,0.,1.));
#1765=DIRECTION('',(1.,0.,0.));
#1766=DIRECTION('',(0.,0.,-1.));
#1767=DIRECTION('',(-1.,0.,0.));
#1768=DIRECTION('',(0.,0.,1.));
#1769=DIRECTION('',(1.,0.,0.));
#1770=DIRECTION('',(0.,0.,-1.));
#1771=DIRECTION('',(0.,0.,-1.));
#1772=DIRECTION('',(0.,0.,-1.));
#1773=DIRECTION('',(-1.,0.,0.));
#1774=DIRECTION('',(0.,0.,1.));
#1775=DIRECTION('',(1.,0.,0.));
#1776=DIRECTION('',(0.,0.,-1.));
#1777=DIRECTION('',(0.,0.,-1.));
#1778=DIRECTION('',(0.,0.,-1.));
#1779=DIRECTION('',(-1.,0.,0.));
#1780=DIRECTION('',(0.,0.,1.));
#1781=DIRECTION('',(1.,0.,0.));
#1782=DIRECTION('',(0.,0.,-1.));
#1783=DIRECTION('',(0.,0.,-1.));
#1784=DIRECTION('',(0.,0.,-1.));
#1785=DIRECTION('',(-1.,0.,0.));
#1786=DIRECTION('',(0.,0.,-1.));
#1787=DIRECTION('',(0.,0.,1.));
#1788=DIRECTION('',(1.,0.,0.));
#1789=DIRECTION('',(0.,0.,-1.));
#1790=DIRECTION('',(0.,0.,1.));
#1791=DIRECTION('',(1.,0.,0.));
#1792=DIRECTION('',(0.,0.,1.));
#1793=DIRECTION('',(1.,0.,0.));
#1794=DIRECTION('',(0.,0.,1.));
#1795=DIRECTION('',(1.,0.,0.));
#1796=DIRECTION('',(0.,0.,1.));
#1797=DIRECTION('',(1.,0.,0.));
#1798=DIRECTION('',(0.,0.,1.));
#1799=DIRECTION('',(1.,0.,0.));
#1800=DIRECTION('',(0.,0.,1.));
#1801=DIRECTION('',(1.,0.,0.));
#1802=DIRECTION('',(0.,0.,1.));
#1803=DIRECTION('',(1.,0.,0.));
#1804=DIRECTION('',(0.,0.,1.));
#1805=DIRECTION('',(1.,0.,0.));
#1806=DIRECTION('',(0.,0.,1.));
#1807=DIRECTION('',(1.,0.,0.));
#1808=DIRECTION('',(0.,0.,1.));
#1809=DIRECTION('',(1.,0.,0.));
#1810=DIRECTION('',(0.,0.,1.));
#1811=DIRECTION('',(1.,0.,0.));
#1812=DIRECTION('',(0.,0.,1.));
#1813=DIRECTION('',(1.,0.,0.));
#1814=DIRECTION('',(0.,0.,1.));
#1815=DIRECTION('',(1.,0.,0.));
#1816=DIRECTION('',(0.,0.,-1.));
#1817=DIRECTION('',(-1.,0.,0.));
#1818=DIRECTION('',(0.,0.,-1.));
#1819=DIRECTION('',(-1.,0.,0.));
#1820=DIRECTION('',(0.,0.,-1.));
#1821=DIRECTION('',(-1.,0.,0.));
#1822=DIRECTION('',(0.,0.,-1.));
#1823=DIRECTION('',(-1.,0.,0.));
#1824=DIRECTION('',(0.,0.,1.));
#1825=DIRECTION('',(1.,0.,0.));
#1826=DIRECTION('',(0.,0.,1.));
#1827=DIRECTION('',(1.,0.,0.));
#1828=DIRECTION('',(0.,0.,1.));
#1829=DIRECTION('',(1.,0.,0.));
#1830=DIRECTION('',(0.,0.,1.));
#1831=DIRECTION('',(1.,0.,0.));
#1832=DIRECTION('',(0.,0.,-1.));
#1833=DIRECTION('',(-1.,0.,0.));
#1834=DIRECTION('',(0.,0.,1.));
#1835=DIRECTION('',(1.,0.,0.));
#1836=DIRECTION('',(0.,0.,-1.));
#1837=DIRECTION('',(-1.,0.,0.));
#1838=DIRECTION('',(0.,0.,1.));
#1839=DIRECTION('',(1.,0.,0.));
#1840=DIRECTION('',(0.,0.,-1.));
#1841=DIRECTION('',(-1.,0.,0.));
#1842=DIRECTION('',(0.,0.,1.));
#1843=DIRECTION('',(1.,0.,0.));
#1844=DIRECTION('',(0.,0.,-1.));
#1845=DIRECTION('',(-1.,0.,0.));
#1846=DIRECTION('',(0.,0.,1.));
#1847=DIRECTION('',(1.,0.,0.));
#1848=DIRECTION('',(0.,-1.,0.));
#1849=DIRECTION('',(0.,0.,-1.));
#1850=DIRECTION('',(0.,0.,-1.));
#1851=DIRECTION('',(0.,0.,-1.));
#1852=DIRECTION('',(0.,0.,-1.));
#1853=DIRECTION('',(-1.,0.,0.));
#1854=DIRECTION('',(0.,0.,-1.));
#1855=DIRECTION('',(1.,-1.73472347597681E-16,0.));
#1856=DIRECTION('',(1.73472347597681E-16,1.,0.));
#1857=DIRECTION('',(0.,0.,-1.));
#1858=DIRECTION('',(0.,0.,-1.));
#1859=DIRECTION('',(-1.,0.,0.));
#1860=DIRECTION('',(0.,0.,-1.));
#1861=DIRECTION('',(0.,-1.,0.));
#1862=DIRECTION('',(0.,0.,-1.));
#1863=DIRECTION('',(0.,0.,-1.));
#1864=DIRECTION('',(0.,0.,-1.));
#1865=DIRECTION('',(-1.,0.,0.));
#1866=DIRECTION('',(0.,0.,-1.));
#1867=DIRECTION('',(1.,-1.73472347597681E-16,0.));
#1868=DIRECTION('',(1.73472347597681E-16,1.,0.));
#1869=DIRECTION('',(0.,0.,-1.));
#1870=DIRECTION('',(0.,0.,-1.));
#1871=DIRECTION('',(-1.,0.,0.));
#1872=DIRECTION('',(0.,0.,-1.));
#1873=DIRECTION('',(-1.,0.,0.));
#1874=DIRECTION('',(0.,0.,-1.));
#1875=DIRECTION('',(-1.,0.,0.));
#1876=DIRECTION('',(0.,0.,-1.));
#1877=DIRECTION('',(-1.,0.,0.));
#1878=DIRECTION('',(0.,0.,-1.));
#1879=DIRECTION('',(-1.,0.,0.));
#1880=DIRECTION('',(0.,0.,-1.));
#1881=DIRECTION('',(-1.,0.,0.));
#1882=DIRECTION('',(0.,0.,-1.));
#1883=DIRECTION('',(-1.,0.,0.));
#1884=DIRECTION('',(0.,0.,-1.));
#1885=DIRECTION('',(-1.,0.,0.));
#1886=DIRECTION('',(0.,0.,1.));
#1887=DIRECTION('',(1.,0.,0.));
#1888=DIRECTION('',(0.,0.,1.));
#1889=DIRECTION('',(1.,0.,0.));
#1890=DIRECTION('',(0.,0.,-1.));
#1891=DIRECTION('',(-1.,0.,0.));
#1892=DIRECTION('',(0.,0.,1.));
#1893=DIRECTION('',(1.,0.,0.));
#1894=DIRECTION('',(0.,0.,1.));
#1895=DIRECTION('',(1.,0.,0.));
#1896=DIRECTION('',(0.,0.,-1.));
#1897=DIRECTION('',(-1.,0.,0.));
#1898=DIRECTION('',(0.,0.,1.));
#1899=DIRECTION('',(1.,0.,0.));
#1900=DIRECTION('',(0.,0.,1.));
#1901=DIRECTION('',(1.,0.,0.));
#1902=DIRECTION('',(0.,0.,-1.));
#1903=DIRECTION('',(-1.,0.,0.));
#1904=DIRECTION('',(0.,0.,1.));
#1905=DIRECTION('',(1.,0.,0.));
#1906=DIRECTION('',(0.,0.,1.));
#1907=DIRECTION('',(1.,0.,0.));
#1908=DIRECTION('',(0.,1.,0.));
#1909=DIRECTION('',(0.,0.,1.));
#1910=DIRECTION('',(0.,1.,0.));
#1911=DIRECTION('',(0.,1.,0.));
#1912=DIRECTION('',(-1.,0.,2.16840434497101E-16));
#1913=DIRECTION('',(2.16840434497101E-16,0.,1.));
#1914=DIRECTION('',(0.,1.,0.));
#1915=DIRECTION('',(1.92747052886312E-16,0.,1.));
#1916=DIRECTION('',(1.,0.,-1.92747052886312E-16));
#1917=DIRECTION('',(0.,1.,0.));
#1918=DIRECTION('',(0.,1.,0.));
#1919=DIRECTION('',(0.,0.,1.));
#1920=DIRECTION('',(0.,1.,0.));
#1921=DIRECTION('',(0.,0.,1.));
#1922=DIRECTION('',(1.,0.,0.));
#1923=DIRECTION('',(0.,1.,0.));
#1924=DIRECTION('',(0.,1.,0.));
#1925=DIRECTION('',(0.,0.,1.));
#1926=DIRECTION('',(0.,1.,0.));
#1927=DIRECTION('',(-1.,0.,2.16840434497101E-16));
#1928=DIRECTION('',(2.16840434497101E-16,0.,1.));
#1929=DIRECTION('',(0.,1.,0.));
#1930=DIRECTION('',(0.,1.,0.));
#1931=DIRECTION('',(0.,0.,1.));
#1932=DIRECTION('',(0.,0.,-1.));
#1933=DIRECTION('',(-1.,0.,0.));
#1934=DIRECTION('',(0.,0.,-1.));
#1935=DIRECTION('',(-1.,0.,0.));
#1936=DIRECTION('',(0.,0.,-1.));
#1937=DIRECTION('',(-1.,0.,0.));
#1938=DIRECTION('',(0.,0.,-1.));
#1939=DIRECTION('',(-1.,0.,0.));
#1940=DIRECTION('',(0.,0.,-1.));
#1941=DIRECTION('',(-1.,0.,0.));
#1942=DIRECTION('',(0.,0.,-1.));
#1943=DIRECTION('',(-1.,0.,0.));
#1944=DIRECTION('',(0.,0.,-1.));
#1945=DIRECTION('',(-1.,0.,0.));
#1946=DIRECTION('',(0.,0.,-1.));
#1947=DIRECTION('',(-1.,0.,0.));
#1948=CARTESIAN_POINT('',(0.,0.,0.));
#1949=CARTESIAN_POINT('',(-0.0173614869458754,0.039725,0.0155));
#1950=CARTESIAN_POINT('',(-0.0173614869458754,0.039725,0.0155));
#1951=CARTESIAN_POINT('',(0.0170177389979185,0.039725,0.0155));
#1952=CARTESIAN_POINT('',(-0.0170177389979186,0.039725,0.0155));
#1953=CARTESIAN_POINT('',(-0.0170177389979186,0.039725,0.0265));
#1954=CARTESIAN_POINT('',(-0.0170177389979186,0.039725,0.0015));
#1955=CARTESIAN_POINT('',(-0.0173614869458754,0.039725,0.0015));
#1956=CARTESIAN_POINT('',(-0.0161058232185505,0.039725,0.0015));
#1957=CARTESIAN_POINT('',(-0.0173614869458754,0.039725,0.0015));
#1958=CARTESIAN_POINT('',(0.0161058232185504,0.039725,0.0015));
#1959=CARTESIAN_POINT('',(-0.0173614869458754,0.039725,0.0015));
#1960=CARTESIAN_POINT('',(0.0170177389979185,0.039725,0.0015));
#1961=CARTESIAN_POINT('',(0.0170177389979185,0.039725,0.0265));
#1962=CARTESIAN_POINT('',(-8.67361737988404E-19,0.039725,0.0075));
#1963=CARTESIAN_POINT('',(-0.0045,0.039725,0.0075));
#1964=CARTESIAN_POINT('',(0.0045,0.039725,0.0075));
#1965=CARTESIAN_POINT('',(-0.0045,0.039725,0.0085));
#1966=CARTESIAN_POINT('',(-0.0055,0.039725,0.0085));
#1967=CARTESIAN_POINT('',(-0.0055,0.039725,0.0105));
#1968=CARTESIAN_POINT('',(-0.0055,0.039725,0.0125));
#1969=CARTESIAN_POINT('',(-0.0045,0.039725,0.0125));
#1970=CARTESIAN_POINT('',(-0.0045,0.039725,0.0135));
#1971=CARTESIAN_POINT('',(0.,0.039725,0.0135));
#1972=CARTESIAN_POINT('',(0.0045,0.039725,0.0135));
#1973=CARTESIAN_POINT('',(0.0045,0.039725,0.0125));
#1974=CARTESIAN_POINT('',(0.0055,0.039725,0.0125));
#1975=CARTESIAN_POINT('',(0.0055,0.039725,0.0105));
#1976=CARTESIAN_POINT('',(0.0055,0.039725,0.0085));
#1977=CARTESIAN_POINT('',(0.0045,0.039725,0.0085));
#1978=CARTESIAN_POINT('',(-3.46944695195361E-18,-0.00772615347049778,0.));
#1979=CARTESIAN_POINT('',(0.0085,0.03125,0.));
#1980=CARTESIAN_POINT('',(0.0075,0.03125,0.));
#1981=CARTESIAN_POINT('',(0.0085,0.02725,0.));
#1982=CARTESIAN_POINT('',(0.0075,0.02725,0.));
#1983=CARTESIAN_POINT('',(0.0085,-0.04275,0.));
#1984=CARTESIAN_POINT('',(0.0075,-0.04275,0.));
#1985=CARTESIAN_POINT('',(0.0085,-0.04675,0.));
#1986=CARTESIAN_POINT('',(0.0075,-0.04675,0.));
#1987=CARTESIAN_POINT('',(-0.004,-0.04475,0.));
#1988=CARTESIAN_POINT('',(-0.0055,-0.04475,0.));
#1989=CARTESIAN_POINT('',(-0.004,0.02925,0.));
#1990=CARTESIAN_POINT('',(-0.0025,0.02925,0.));
#1991=CARTESIAN_POINT('',(-2.08166817117217E-17,0.040925,0.));
#1992=CARTESIAN_POINT('',(-0.0160398671726448,0.040925,0.));
#1993=CARTESIAN_POINT('',(0.0160398671726447,0.040925,0.));
#1994=CARTESIAN_POINT('',(0.0184958961218185,0.0404581790484346,0.));
#1995=CARTESIAN_POINT('',(0.018675,0.0379646029415511,0.));
#1996=CARTESIAN_POINT('',(0.018675,-0.0077,0.));
#1997=CARTESIAN_POINT('',(0.018675,-0.0534646029415512,0.));
#1998=CARTESIAN_POINT('',(0.0184958961218185,-0.0559581790484347,0.));
#1999=CARTESIAN_POINT('',(0.0160398671726448,-0.056425,0.));
#2000=CARTESIAN_POINT('',(1.04083408558608E-17,-0.056425,0.));
#2001=CARTESIAN_POINT('',(-0.0160398671726447,-0.056425,0.));
#2002=CARTESIAN_POINT('',(-0.0184958961218185,-0.0559581790484347,0.));
#2003=CARTESIAN_POINT('',(-0.018675,-0.0534646029415512,0.));
#2004=CARTESIAN_POINT('',(-0.018675,-0.0077,0.));
#2005=CARTESIAN_POINT('',(-0.018675,0.0379646029415511,0.));
#2006=CARTESIAN_POINT('',(-0.0184958961218186,0.0404581790484346,0.));
#2007=CARTESIAN_POINT('',(-0.013675,-0.036425,0.));
#2008=CARTESIAN_POINT('',(-0.014875,-0.036425,0.));
#2009=CARTESIAN_POINT('',(0.013675,-0.036425,0.));
#2010=CARTESIAN_POINT('',(0.012475,-0.036425,0.));
#2011=CARTESIAN_POINT('',(0.013675,0.036425,0.));
#2012=CARTESIAN_POINT('',(0.012475,0.036425,0.));
#2013=CARTESIAN_POINT('',(-0.013675,0.036425,0.));
#2014=CARTESIAN_POINT('',(-0.014875,0.036425,0.));
#2015=CARTESIAN_POINT('',(2.05998412772246E-18,-0.00425,0.));
#2016=CARTESIAN_POINT('',(0.001,-0.00425,0.));
#2017=CARTESIAN_POINT('',(-0.001,-0.00425,0.));
#2018=CARTESIAN_POINT('',(-0.001,-0.00525,0.));
#2019=CARTESIAN_POINT('',(-0.002,-0.00525,0.));
#2020=CARTESIAN_POINT('',(-0.002,-0.00775,0.));
#2021=CARTESIAN_POINT('',(-0.002,-0.01025,0.));
#2022=CARTESIAN_POINT('',(-0.001,-0.01025,0.));
#2023=CARTESIAN_POINT('',(-0.001,-0.01125,0.));
#2024=CARTESIAN_POINT('',(6.50521303491303E-19,-0.01125,0.));
#2025=CARTESIAN_POINT('',(0.001,-0.01125,0.));
#2026=CARTESIAN_POINT('',(0.001,-0.01025,0.));
#2027=CARTESIAN_POINT('',(0.002,-0.01025,0.));
#2028=CARTESIAN_POINT('',(0.002,-0.00775,0.));
#2029=CARTESIAN_POINT('',(0.002,-0.00525,0.));
#2030=CARTESIAN_POINT('',(0.001,-0.00525,0.));
#2031=CARTESIAN_POINT('',(-3.46944695195361E-18,-0.00772615347049778,0.0015));
#2032=CARTESIAN_POINT('',(0.013675,0.036425,0.0015));
#2033=CARTESIAN_POINT('',(0.015675,0.036425,0.0015));
#2034=CARTESIAN_POINT('',(-0.013675,-0.036425,0.0015));
#2035=CARTESIAN_POINT('',(-0.011675,-0.036425,0.0015));
#2036=CARTESIAN_POINT('',(0.013675,-0.036425,0.0015));
#2037=CARTESIAN_POINT('',(0.015675,-0.036425,0.0015));
#2038=CARTESIAN_POINT('',(-0.013675,0.036425,0.0015));
#2039=CARTESIAN_POINT('',(-0.011675,0.036425,0.0015));
#2040=CARTESIAN_POINT('',(0.0085,0.03125,0.0015));
#2041=CARTESIAN_POINT('',(0.0095,0.03125,0.0015));
#2042=CARTESIAN_POINT('',(0.0085,0.02725,0.0015));
#2043=CARTESIAN_POINT('',(0.0095,0.02725,0.0015));
#2044=CARTESIAN_POINT('',(0.0085,-0.04275,0.0015));
#2045=CARTESIAN_POINT('',(0.0095,-0.04275,0.0015));
#2046=CARTESIAN_POINT('',(0.0085,-0.04675,0.0015));
#2047=CARTESIAN_POINT('',(0.0095,-0.04675,0.0015));
#2048=CARTESIAN_POINT('',(-0.004,-0.04475,0.0015));
#2049=CARTESIAN_POINT('',(-0.0025,-0.04475,0.0015));
#2050=CARTESIAN_POINT('',(-0.004,0.02925,0.0015));
#2051=CARTESIAN_POINT('',(-0.0025,0.02925,0.0015));
#2052=CARTESIAN_POINT('',(0.0184958961218185,0.0404581790484346,0.0015));
#2053=CARTESIAN_POINT('',(0.017475,0.0381761249061199,0.0015));
#2054=CARTESIAN_POINT('',(-0.0184958961218186,0.0404581790484346,0.0015));
#2055=CARTESIAN_POINT('',(-0.017475,0.0381761249061199,0.0015));
#2056=CARTESIAN_POINT('',(-0.017475,-0.0550779526999174,0.0015));
#2057=CARTESIAN_POINT('',(-0.017475,-0.0536761249061199,0.0015));
#2058=CARTESIAN_POINT('',(-0.0184958961218185,-0.0559581790484347,0.0015));
#2059=CARTESIAN_POINT('',(-0.0161058232185504,-0.055225,0.0015));
#2060=CARTESIAN_POINT('',(0.0173614869458754,-0.055225,0.0015));
#2061=CARTESIAN_POINT('',(0.0161058232185504,-0.055225,0.0015));
#2062=CARTESIAN_POINT('',(0.0184958961218185,-0.0559581790484347,0.0015));
#2063=CARTESIAN_POINT('',(0.017475,-0.05367612490612,0.0015));
#2064=CARTESIAN_POINT('',(0.017475,-0.00760295269991737,0.0015));
#2065=CARTESIAN_POINT('',(-0.001,-0.00525,0.0015));
#2066=CARTESIAN_POINT('',(-0.001,-0.00425,0.0015));
#2067=CARTESIAN_POINT('',(-0.002,-0.00525,0.0015));
#2068=CARTESIAN_POINT('',(-3.46944695195361E-18,-0.00425,0.0015));
#2069=CARTESIAN_POINT('',(0.001,-0.00425,0.0015));
#2070=CARTESIAN_POINT('',(0.001,-0.00525,0.0015));
#2071=CARTESIAN_POINT('',(0.002,-0.00525,0.0015));
#2072=CARTESIAN_POINT('',(0.002,-0.00772615347049778,0.0015));
#2073=CARTESIAN_POINT('',(0.002,-0.01025,0.0015));
#2074=CARTESIAN_POINT('',(0.001,-0.01025,0.0015));
#2075=CARTESIAN_POINT('',(0.001,-0.01125,0.0015));
#2076=CARTESIAN_POINT('',(-3.46944695195361E-18,-0.01125,0.0015));
#2077=CARTESIAN_POINT('',(-0.001,-0.01125,0.0015));
#2078=CARTESIAN_POINT('',(-0.001,-0.01025,0.0015));
#2079=CARTESIAN_POINT('',(-0.002,-0.01025,0.0015));
#2080=CARTESIAN_POINT('',(-0.002,-0.00772615347049778,0.0015));
#2081=CARTESIAN_POINT('',(-2.08166817117217E-17,0.040925,0.0015));
#2082=CARTESIAN_POINT('',(-0.0045,0.040925,0.0085));
#2083=CARTESIAN_POINT('',(-0.0045,0.040925,0.0075));
#2084=CARTESIAN_POINT('',(-0.0055,0.040925,0.0085));
#2085=CARTESIAN_POINT('',(-8.67361737988404E-19,0.040925,0.0075));
#2086=CARTESIAN_POINT('',(0.0045,0.040925,0.0075));
#2087=CARTESIAN_POINT('',(0.0045,0.040925,0.0085));
#2088=CARTESIAN_POINT('',(0.0055,0.040925,0.0085));
#2089=CARTESIAN_POINT('',(0.0055,0.040925,0.0105));
#2090=CARTESIAN_POINT('',(0.0055,0.040925,0.0125));
#2091=CARTESIAN_POINT('',(0.0045,0.040925,0.0125));
#2092=CARTESIAN_POINT('',(0.0045,0.040925,0.0135));
#2093=CARTESIAN_POINT('',(0.,0.040925,0.0135));
#2094=CARTESIAN_POINT('',(-0.0045,0.040925,0.0135));
#2095=CARTESIAN_POINT('',(-0.0045,0.040925,0.0125));
#2096=CARTESIAN_POINT('',(-0.0055,0.040925,0.0125));
#2097=CARTESIAN_POINT('',(-0.0055,0.040925,0.0105));
#2098=CARTESIAN_POINT('',(-2.08166817117217E-17,0.040925,0.0155));
#2099=CARTESIAN_POINT('',(-0.00973996625977143,0.040925,0.0155));
#2100=CARTESIAN_POINT('',(0.00973996625977135,0.040925,0.0155));
#2101=CARTESIAN_POINT('',(0.00973996625977135,0.040925,0.0015));
#2102=CARTESIAN_POINT('',(0.00973996625977135,0.040925,0.0015));
#2103=CARTESIAN_POINT('',(-2.08166817117217E-17,0.040925,0.0015));
#2104=CARTESIAN_POINT('',(0.0160398671726447,0.040925,0.0015));
#2105=CARTESIAN_POINT('',(0.0160398671726447,0.040925,-0.124003451798271));
#2106=CARTESIAN_POINT('',(-0.0160398671726448,0.040925,-0.124003451798271));
#2107=CARTESIAN_POINT('',(-0.0160398671726448,0.040925,0.0015));
#2108=CARTESIAN_POINT('',(-2.08166817117217E-17,0.040925,0.0015));
#2109=CARTESIAN_POINT('',(-0.00973996625977143,0.040925,0.0015));
#2110=CARTESIAN_POINT('',(-0.00973996625977143,0.040925,0.0015));
#2111=CARTESIAN_POINT('',(-0.018675,-0.0077,0.0015));
#2112=CARTESIAN_POINT('',(-0.018675,-0.0077,0.0155));
#2113=CARTESIAN_POINT('',(-0.018675,-0.0466813747657621,0.0155));
#2114=CARTESIAN_POINT('',(-0.018675,0.031181374765762,0.0155));
#2115=CARTESIAN_POINT('',(-0.018675,0.031181374765762,0.0015));
#2116=CARTESIAN_POINT('',(-0.018675,0.031181374765762,0.0015));
#2117=CARTESIAN_POINT('',(-0.018675,-0.0077,0.0015));
#2118=CARTESIAN_POINT('',(-0.018675,0.0379646029415511,0.0015));
#2119=CARTESIAN_POINT('',(-0.018675,0.0379646029415511,-0.124003451798271));
#2120=CARTESIAN_POINT('',(-0.018675,-0.0534646029415512,-0.124003451798271));
#2121=CARTESIAN_POINT('',(-0.018675,-0.0534646029415512,0.0015));
#2122=CARTESIAN_POINT('',(-0.018675,-0.0077,0.0015));
#2123=CARTESIAN_POINT('',(-0.018675,-0.0466813747657621,0.0015));
#2124=CARTESIAN_POINT('',(-0.018675,-0.0466813747657621,0.0015));
#2125=CARTESIAN_POINT('',(1.04083408558608E-17,-0.056425,0.0015));
#2126=CARTESIAN_POINT('',(1.04083408558608E-17,-0.056425,0.0155));
#2127=CARTESIAN_POINT('',(0.00973996625977137,-0.056425,0.0155));
#2128=CARTESIAN_POINT('',(-0.00973996625977136,-0.056425,0.0155));
#2129=CARTESIAN_POINT('',(-0.00973996625977136,-0.056425,0.0015));
#2130=CARTESIAN_POINT('',(-0.00973996625977136,-0.056425,0.0015));
#2131=CARTESIAN_POINT('',(1.04083408558608E-17,-0.056425,0.0015));
#2132=CARTESIAN_POINT('',(-0.0160398671726447,-0.056425,0.0015));
#2133=CARTESIAN_POINT('',(-0.0160398671726447,-0.056425,-0.124003451798271));
#2134=CARTESIAN_POINT('',(0.0160398671726448,-0.056425,-0.124003451798271));
#2135=CARTESIAN_POINT('',(0.0160398671726448,-0.056425,0.0015));
#2136=CARTESIAN_POINT('',(1.04083408558608E-17,-0.056425,0.0015));
#2137=CARTESIAN_POINT('',(0.00973996625977137,-0.056425,0.0015));
#2138=CARTESIAN_POINT('',(0.00973996625977137,-0.056425,0.0015));
#2139=CARTESIAN_POINT('',(0.018675,-0.0077,0.0015));
#2140=CARTESIAN_POINT('',(0.018675,-0.0077,0.0015));
#2141=CARTESIAN_POINT('',(0.018675,0.0379646029415511,0.0015));
#2142=CARTESIAN_POINT('',(0.018675,0.031181374765762,0.0015));
#2143=CARTESIAN_POINT('',(0.018675,0.031181374765762,0.0015));
#2144=CARTESIAN_POINT('',(0.018675,0.031181374765762,0.0155));
#2145=CARTESIAN_POINT('',(0.018675,-0.0077,0.0155));
#2146=CARTESIAN_POINT('',(0.018675,-0.046681374765762,0.0155));
#2147=CARTESIAN_POINT('',(0.018675,-0.046681374765762,0.0015));
#2148=CARTESIAN_POINT('',(0.018675,-0.046681374765762,0.0015));
#2149=CARTESIAN_POINT('',(0.018675,-0.0077,0.0015));
#2150=CARTESIAN_POINT('',(0.018675,-0.0534646029415512,0.0015));
#2151=CARTESIAN_POINT('',(0.018675,-0.0534646029415512,-0.124003451798271));
#2152=CARTESIAN_POINT('',(0.018675,0.0379646029415511,-0.124003451798271));
#2153=CARTESIAN_POINT('',(-6.93889390390723E-18,-0.00775,0.0015));
#2154=CARTESIAN_POINT('',(-0.0184958961218185,0.0404581790484346,0.0015));
#2155=CARTESIAN_POINT('',(-0.017475,0.0391619263306146,0.0015));
#2156=CARTESIAN_POINT('',(-0.017475,-0.0550779526999174,0.0015));
#2157=CARTESIAN_POINT('',(-0.0184958961218186,0.0404581790484346,0.0015));
#2158=CARTESIAN_POINT('',(-0.034675,0.031181374765762,0.0015));
#2159=CARTESIAN_POINT('',(-0.0207948036433833,0.0391400272334704,0.0015));
#2160=CARTESIAN_POINT('',(-0.0184958961218186,0.0404581790484346,0.0015));
#2161=CARTESIAN_POINT('',(-0.0172517559537529,0.042797968620641,0.0015));
#2162=CARTESIAN_POINT('',(-0.00973996625977143,0.056925,0.0015));
#2163=CARTESIAN_POINT('',(-0.0184958961218186,0.0404581790484346,0.0015));
#2164=CARTESIAN_POINT('',(-6.93889390390723E-18,-0.00775,0.0015));
#2165=CARTESIAN_POINT('',(-0.0184958961218185,-0.0559581790484347,0.0015));
#2166=CARTESIAN_POINT('',(-0.017475,-0.0550779526999174,0.0015));
#2167=CARTESIAN_POINT('',(-0.017475,-0.0546619263306146,0.0015));
#2168=CARTESIAN_POINT('',(-0.0184958961218185,-0.0559581790484347,0.0015));
#2169=CARTESIAN_POINT('',(-0.0170177389979185,-0.055225,0.0015));
#2170=CARTESIAN_POINT('',(0.0173614869458754,-0.055225,0.0015));
#2171=CARTESIAN_POINT('',(-0.0184958961218185,-0.0559581790484347,0.0015));
#2172=CARTESIAN_POINT('',(-0.00973996625977136,-0.072425,0.0015));
#2173=CARTESIAN_POINT('',(-0.0172517559537528,-0.058297968620641,0.0015));
#2174=CARTESIAN_POINT('',(-0.0184958961218185,-0.0559581790484347,0.0015));
#2175=CARTESIAN_POINT('',(-0.0207948036433832,-0.0546400272334705,0.0015));
#2176=CARTESIAN_POINT('',(-0.034675,-0.0466813747657621,0.0015));
#2177=CARTESIAN_POINT('',(-6.93889390390723E-18,-0.00775,0.0015));
#2178=CARTESIAN_POINT('',(0.0173614869458754,-0.055225,0.0015));
#2179=CARTESIAN_POINT('',(0.0170177389979185,-0.055225,0.0015));
#2180=CARTESIAN_POINT('',(0.0184958961218185,-0.0559581790484347,0.0015));
#2181=CARTESIAN_POINT('',(0.017475,-0.0546619263306146,0.0015));
#2182=CARTESIAN_POINT('',(0.017475,-0.00760295269991737,0.0015));
#2183=CARTESIAN_POINT('',(0.0184958961218185,-0.0559581790484347,0.0015));
#2184=CARTESIAN_POINT('',(0.034675,-0.046681374765762,0.0015));
#2185=CARTESIAN_POINT('',(0.0207948036433832,-0.0546400272334705,0.0015));
#2186=CARTESIAN_POINT('',(0.0184958961218185,-0.0559581790484347,0.0015));
#2187=CARTESIAN_POINT('',(0.0172517559537528,-0.058297968620641,0.0015));
#2188=CARTESIAN_POINT('',(0.00973996625977137,-0.072425,0.0015));
#2189=CARTESIAN_POINT('',(0.0184958961218185,-0.0559581790484347,0.0015));
#2190=CARTESIAN_POINT('',(0.017475,-0.00760295269991737,0.0155));
#2191=CARTESIAN_POINT('',(0.017475,-0.00760295269991737,0.0155));
#2192=CARTESIAN_POINT('',(0.017475,-0.0546619263306146,0.0155));
#2193=CARTESIAN_POINT('',(0.017475,0.0391619263306146,0.0155));
#2194=CARTESIAN_POINT('',(0.017475,0.0391619263306146,0.0265));
#2195=CARTESIAN_POINT('',(0.017475,0.0391619263306146,0.0015));
#2196=CARTESIAN_POINT('',(0.017475,-0.00760295269991737,0.0015));
#2197=CARTESIAN_POINT('',(0.017475,-0.0546619263306146,0.0265));
#2198=CARTESIAN_POINT('',(0.0173614869458754,-0.055225,0.0155));
#2199=CARTESIAN_POINT('',(0.0170177389979185,-0.055225,0.0265));
#2200=CARTESIAN_POINT('',(0.0170177389979185,-0.055225,0.0155));
#2201=CARTESIAN_POINT('',(-0.0170177389979185,-0.055225,0.0265));
#2202=CARTESIAN_POINT('',(-0.0170177389979185,-0.055225,0.0155));
#2203=CARTESIAN_POINT('',(0.0173614869458754,-0.055225,0.0155));
#2204=CARTESIAN_POINT('',(-0.017475,-0.0550779526999174,0.0155));
#2205=CARTESIAN_POINT('',(-0.017475,0.0391619263306146,0.0265));
#2206=CARTESIAN_POINT('',(-0.017475,0.0391619263306146,0.0155));
#2207=CARTESIAN_POINT('',(-0.017475,-0.0550779526999174,0.0155));
#2208=CARTESIAN_POINT('',(-0.017475,-0.0546619263306146,0.0155));
#2209=CARTESIAN_POINT('',(-0.017475,-0.0546619263306146,0.0265));
#2210=CARTESIAN_POINT('',(-6.93889390390723E-18,-0.00775,0.0015));
#2211=CARTESIAN_POINT('',(0.0184958961218185,0.0404581790484346,0.0015));
#2212=CARTESIAN_POINT('',(0.0184958961218185,0.0404581790484346,0.0015));
#2213=CARTESIAN_POINT('',(0.0184958961218185,0.0404581790484346,0.0015));
#2214=CARTESIAN_POINT('',(0.00973996625977135,0.056925,0.0015));
#2215=CARTESIAN_POINT('',(0.0172517559537528,0.042797968620641,0.0015));
#2216=CARTESIAN_POINT('',(0.0184958961218185,0.0404581790484346,0.0015));
#2217=CARTESIAN_POINT('',(0.0207948036433832,0.0391400272334704,0.0015));
#2218=CARTESIAN_POINT('',(0.034675,0.031181374765762,0.0015));
#2219=CARTESIAN_POINT('',(-0.0184958961218186,0.0404581790484346,0.0155));
#2220=CARTESIAN_POINT('',(-0.0184958961218186,0.0404581790484346,0.0155));
#2221=CARTESIAN_POINT('',(-0.0172517559537529,0.042797968620641,0.0155));
#2222=CARTESIAN_POINT('',(-0.0207948036433833,0.0391400272334704,0.0155));
#2223=CARTESIAN_POINT('',(-0.0172517559537529,0.042797968620641,0.0155));
#2224=CARTESIAN_POINT('',(-0.0207948036433833,0.0391400272334704,0.0155));
#2225=CARTESIAN_POINT('',(-0.0184958961218185,-0.0559581790484347,0.0155));
#2226=CARTESIAN_POINT('',(-0.0184958961218185,-0.0559581790484347,0.0155));
#2227=CARTESIAN_POINT('',(-0.0207948036433832,-0.0546400272334705,0.0155));
#2228=CARTESIAN_POINT('',(-0.0172517559537528,-0.058297968620641,0.0155));
#2229=CARTESIAN_POINT('',(-0.0207948036433832,-0.0546400272334705,0.0155));
#2230=CARTESIAN_POINT('',(-0.0172517559537528,-0.058297968620641,0.0155));
#2231=CARTESIAN_POINT('',(0.0184958961218185,-0.0559581790484347,0.0155));
#2232=CARTESIAN_POINT('',(0.0184958961218185,-0.0559581790484347,0.0155));
#2233=CARTESIAN_POINT('',(0.0172517559537528,-0.058297968620641,0.0155));
#2234=CARTESIAN_POINT('',(0.0207948036433832,-0.0546400272334705,0.0155));
#2235=CARTESIAN_POINT('',(0.0172517559537528,-0.058297968620641,0.0155));
#2236=CARTESIAN_POINT('',(0.0207948036433832,-0.0546400272334705,0.0155));
#2237=CARTESIAN_POINT('',(0.0184958961218185,0.0404581790484346,0.0155));
#2238=CARTESIAN_POINT('',(0.0172517559537528,0.042797968620641,0.0155));
#2239=CARTESIAN_POINT('',(0.0172517559537528,0.042797968620641,0.0155));
#2240=CARTESIAN_POINT('',(0.0184958961218185,0.0404581790484346,0.0155));
#2241=CARTESIAN_POINT('',(0.0207948036433832,0.0391400272334704,0.0155));
#2242=CARTESIAN_POINT('',(0.0207948036433832,0.0391400272334704,0.0155));
#2243=CARTESIAN_POINT('',(-6.93889390390723E-18,-0.00775,0.0155));
#2244=CARTESIAN_POINT('',(-0.00973996625977143,0.056925,0.0155));
#2245=CARTESIAN_POINT('',(-0.034675,0.031181374765762,0.0155));
#2246=CARTESIAN_POINT('',(-0.034675,-0.0466813747657621,0.0155));
#2247=CARTESIAN_POINT('',(-0.00973996625977136,-0.072425,0.0155));
#2248=CARTESIAN_POINT('',(0.00973996625977137,-0.072425,0.0155));
#2249=CARTESIAN_POINT('',(0.034675,-0.046681374765762,0.0155));
#2250=CARTESIAN_POINT('',(0.034675,0.031181374765762,0.0155));
#2251=CARTESIAN_POINT('',(0.00973996625977135,0.056925,0.0155));
#2252=CARTESIAN_POINT('',(-0.0184958961218185,0.0404581790484346,0.0155));
#2253=CARTESIAN_POINT('',(0.0184958961218185,0.0404581790484346,0.0155));
#2254=CARTESIAN_POINT('',(0.0184958961218185,-0.0559581790484347,0.0155));
#2255=CARTESIAN_POINT('',(-0.0184958961218185,-0.0559581790484347,0.0155));
#2256=CARTESIAN_POINT('',(-0.0184958961218185,-0.0559581790484347,0.0265));
#2257=CARTESIAN_POINT('',(0.0184958961218185,-0.0559581790484347,0.0265));
#2258=CARTESIAN_POINT('',(0.0184958961218185,0.0404581790484346,0.0265));
#2259=CARTESIAN_POINT('',(-0.0184958961218185,0.0404581790484346,0.0265));
#2260=CARTESIAN_POINT('',(-0.0184958961218186,0.0404581790484346,-0.124003451798271));
#2261=CARTESIAN_POINT('',(0.0184958961218185,-0.0559581790484347,-0.124003451798271));
#2262=CARTESIAN_POINT('',(-0.0184958961218185,-0.0559581790484347,-0.124003451798271));
#2263=CARTESIAN_POINT('',(0.0184958961218185,0.0404581790484346,-0.124003451798271));
#2264=CARTESIAN_POINT('',(-0.013675,-0.036425,0.025));
#2265=CARTESIAN_POINT('',(-0.013675,-0.036425,0.0085));
#2266=CARTESIAN_POINT('',(-0.012475,-0.036425,0.0085));
#2267=CARTESIAN_POINT('',(0.013675,-0.036425,0.025));
#2268=CARTESIAN_POINT('',(0.013675,-0.036425,0.0085));
#2269=CARTESIAN_POINT('',(0.014875,-0.036425,0.0085));
#2270=CARTESIAN_POINT('',(0.013675,0.036425,0.025));
#2271=CARTESIAN_POINT('',(0.013675,0.036425,0.0085));
#2272=CARTESIAN_POINT('',(0.014875,0.036425,0.0085));
#2273=CARTESIAN_POINT('',(-0.013675,0.036425,0.025));
#2274=CARTESIAN_POINT('',(-0.013675,0.036425,0.0085));
#2275=CARTESIAN_POINT('',(-0.012475,0.036425,0.0085));
#2276=CARTESIAN_POINT('',(2.05998412772246E-18,-0.00425,0.025));
#2277=CARTESIAN_POINT('',(-0.001,-0.00425,0.025));
#2278=CARTESIAN_POINT('',(0.001,-0.00425,0.025));
#2279=CARTESIAN_POINT('',(0.001,-0.00525,0.025));
#2280=CARTESIAN_POINT('',(0.002,-0.00525,0.025));
#2281=CARTESIAN_POINT('',(0.002,-0.00775,0.025));
#2282=CARTESIAN_POINT('',(0.002,-0.01025,0.025));
#2283=CARTESIAN_POINT('',(0.001,-0.01025,0.025));
#2284=CARTESIAN_POINT('',(0.001,-0.01125,0.025));
#2285=CARTESIAN_POINT('',(6.50521303491303E-19,-0.01125,0.025));
#2286=CARTESIAN_POINT('',(-0.001,-0.01125,0.025));
#2287=CARTESIAN_POINT('',(-0.001,-0.01025,0.025));
#2288=CARTESIAN_POINT('',(-0.002,-0.01025,0.025));
#2289=CARTESIAN_POINT('',(-0.002,-0.00775,0.025));
#2290=CARTESIAN_POINT('',(-0.002,-0.00525,0.025));
#2291=CARTESIAN_POINT('',(-0.001,-0.00525,0.025));
#2292=CARTESIAN_POINT('',(-0.004,0.02925,0.003));
#2293=CARTESIAN_POINT('',(-0.004,-0.04475,0.025));
#2294=CARTESIAN_POINT('',(0.0085,-0.04675,0.025));
#2295=CARTESIAN_POINT('',(0.0085,-0.04275,0.025));
#2296=CARTESIAN_POINT('',(0.0085,0.02725,0.025));
#2297=CARTESIAN_POINT('',(0.0085,0.03125,0.025));
#2298=CARTESIAN_POINT('',(-0.013675,0.036425,0.0085));
#2299=CARTESIAN_POINT('',(-0.013675,0.036425,0.0085));
#2300=CARTESIAN_POINT('',(-0.011675,0.036425,0.0085));
#2301=CARTESIAN_POINT('',(0.,-0.00775,0.0085));
#2302=CARTESIAN_POINT('',(0.013675,0.036425,0.0085));
#2303=CARTESIAN_POINT('',(0.013675,0.036425,0.0085));
#2304=CARTESIAN_POINT('',(0.015675,0.036425,0.0085));
#2305=CARTESIAN_POINT('',(0.,-0.00775,0.0085));
#2306=CARTESIAN_POINT('',(0.013675,-0.036425,0.0085));
#2307=CARTESIAN_POINT('',(0.013675,-0.036425,0.0085));
#2308=CARTESIAN_POINT('',(0.015675,-0.036425,0.0085));
#2309=CARTESIAN_POINT('',(0.,-0.00775,0.0085));
#2310=CARTESIAN_POINT('',(-0.013675,-0.036425,0.0085));
#2311=CARTESIAN_POINT('',(-0.013675,-0.036425,0.0085));
#2312=CARTESIAN_POINT('',(-0.011675,-0.036425,0.0085));
#2313=CARTESIAN_POINT('',(0.,-0.00775,0.0085));
#2314=CARTESIAN_POINT('',(0.0045,-0.0586101790484347,0.0085));
#2315=CARTESIAN_POINT('',(0.0055,-0.0586101790484347,0.0085));
#2316=CARTESIAN_POINT('',(0.0045,-0.0586101790484347,0.0075));
#2317=CARTESIAN_POINT('',(0.0055,-0.0586101790484347,0.0105));
#2318=CARTESIAN_POINT('',(0.0055,-0.0586101790484347,0.0125));
#2319=CARTESIAN_POINT('',(-8.67361737988404E-19,-0.0586101790484347,0.0075));
#2320=CARTESIAN_POINT('',(-0.0045,-0.0586101790484347,0.0075));
#2321=CARTESIAN_POINT('',(0.0045,-0.0586101790484347,0.0125));
#2322=CARTESIAN_POINT('',(0.0045,-0.0586101790484347,0.0135));
#2323=CARTESIAN_POINT('',(0.,-0.0586101790484347,0.0135));
#2324=CARTESIAN_POINT('',(-0.0045,-0.0586101790484347,0.0135));
#2325=CARTESIAN_POINT('',(-0.0045,-0.0586101790484347,0.0125));
#2326=CARTESIAN_POINT('',(-0.0055,-0.0586101790484347,0.0125));
#2327=CARTESIAN_POINT('',(-0.0055,-0.0586101790484347,0.0105));
#2328=CARTESIAN_POINT('',(-0.0055,-0.0586101790484347,0.0085));
#2329=CARTESIAN_POINT('',(-0.0045,-0.0586101790484347,0.0085));
#2330=CARTESIAN_POINT('',(0.00973996625977135,0.056925,0.0155));
#2331=CARTESIAN_POINT('',(-0.00973996625977143,0.056925,0.0155));
#2332=CARTESIAN_POINT('',(-0.034675,0.031181374765762,0.0155));
#2333=CARTESIAN_POINT('',(-0.034675,-0.0466813747657621,0.0155));
#2334=CARTESIAN_POINT('',(-0.00973996625977136,-0.072425,0.0155));
#2335=CARTESIAN_POINT('',(0.00973996625977137,-0.072425,0.0155));
#2336=CARTESIAN_POINT('',(0.034675,0.031181374765762,0.0155));
#2337=CARTESIAN_POINT('',(0.034675,-0.046681374765762,0.0155));
#2338=MECHANICAL_DESIGN_GEOMETRIC_PRESENTATION_REPRESENTATION('',(#1355),
#2339);
#2339=(
GEOMETRIC_REPRESENTATION_CONTEXT(3)
GLOBAL_UNCERTAINTY_ASSIGNED_CONTEXT((#2340))
GLOBAL_UNIT_ASSIGNED_CONTEXT((#2343,#2342,#2341))
REPRESENTATION_CONTEXT('bottom case','TOP_LEVEL_ASSEMBLY_PART')
);
#2340=UNCERTAINTY_MEASURE_WITH_UNIT(LENGTH_MEASURE(1.E-8),#2343,
'DISTANCE_ACCURACY_VALUE','Maximum Tolerance applied to model');
#2341=(
NAMED_UNIT(*)
SI_UNIT($,.STERADIAN.)
SOLID_ANGLE_UNIT()
);
#2342=(
NAMED_UNIT(*)
PLANE_ANGLE_UNIT()
SI_UNIT($,.RADIAN.)
);
#2343=(
LENGTH_UNIT()
NAMED_UNIT(*)
SI_UNIT($,.METRE.)
);
#2344=PRODUCT_DEFINITION_SHAPE('','',#2345);
#2345=PRODUCT_DEFINITION('','',#2347,#2346);
#2346=PRODUCT_DEFINITION_CONTEXT('',#2353,'design');
#2347=PRODUCT_DEFINITION_FORMATION_WITH_SPECIFIED_SOURCE('','',#2349,
 .NOT_KNOWN.);
#2348=PRODUCT_RELATED_PRODUCT_CATEGORY('','',(#2349));
#2349=PRODUCT('bottom case','bottom case','bottom case',(#2351));
#2350=PRODUCT_CATEGORY('','');
#2351=PRODUCT_CONTEXT('',#2353,'mechanical');
#2352=APPLICATION_PROTOCOL_DEFINITION('international standard',
'ap242_managed_model_based_3d_engineering',2020,#2353);
#2353=APPLICATION_CONTEXT('managed model based 3d engineering');
ENDSEC;
END-ISO-10303-21;
